<svg xmlns="http://www.w3.org/2000/svg" width="81.289" height="33.949" viewBox="0 0 81.289 33.949">
  <g id="Aflog_logo" transform="translate(33.032)">
    <path id="Path_2764" data-name="Path 2764" d="M270.881,324.154h-.813c-.177,0-.413-.056-.667-.491a3.342,3.342,0,0,1-.376-1.689V304.217a2.21,2.21,0,1,0-4.42,0v17.756a8.144,8.144,0,0,0,.668,3.344,5.58,5.58,0,0,0,1.945,2.391,4.968,4.968,0,0,0,2.849.865h.065a3.2,3.2,0,0,0,1.94-.57,1.98,1.98,0,0,0,.855-1.64,2.268,2.268,0,0,0-.555-1.561A1.946,1.946,0,0,0,270.881,324.154Z" transform="translate(-264.606 -302.007)" fill="#fff"/>
    <path id="Path_2765" data-name="Path 2765" d="M300.941,322.451a9.779,9.779,0,0,0-4.89-1.231,9.932,9.932,0,0,0-4.937,1.23,8.775,8.775,0,0,0-3.411,3.429,10.718,10.718,0,0,0,0,9.9,8.767,8.767,0,0,0,3.411,3.428,10.493,10.493,0,0,0,9.86,0,8.809,8.809,0,0,0,3.393-3.427,10.656,10.656,0,0,0-.018-9.9A8.928,8.928,0,0,0,300.941,322.451Zm-2.212,13.193a5.48,5.48,0,0,1-5.356,0,4.957,4.957,0,0,1-1.85-1.938,5.939,5.939,0,0,1-.677-2.86,6.035,6.035,0,0,1,.679-2.879,4.935,4.935,0,0,1,1.848-1.952,5.482,5.482,0,0,1,5.356,0,4.824,4.824,0,0,1,1.829,1.947,6.155,6.155,0,0,1,.665,2.884,6.054,6.054,0,0,1-.664,2.865,4.841,4.841,0,0,1-1.83,1.933Z" transform="translate(-277.972 -313.74)" fill="#fff"/>
    <path id="Path_2766" data-name="Path 2766" d="M357.395,325.875a8.926,8.926,0,0,0-3.407-3.424h0a9.778,9.778,0,0,0-4.89-1.231,9.933,9.933,0,0,0-4.937,1.23,8.782,8.782,0,0,0-3.411,3.429,10.1,10.1,0,0,0-1.211,4.967,10.618,10.618,0,0,0,1.122,4.918,8.506,8.506,0,0,0,3.175,3.435,8.756,8.756,0,0,0,4.612,1.239,7.664,7.664,0,0,0,4.043-1.093,7.883,7.883,0,0,0,1.777-1.475,6.79,6.79,0,0,1-.71,3.029,4.958,4.958,0,0,1-1.861,2.013,5.06,5.06,0,0,1-2.6.684,6.745,6.745,0,0,1-2.785-.55,5.167,5.167,0,0,1-1.987-1.561,2.2,2.2,0,0,0-1.8-.913,2.275,2.275,0,0,0-1.25.4,1.981,1.981,0,0,0-.928,1.646,2.049,2.049,0,0,0,.484,1.273,9.726,9.726,0,0,0,3.6,2.818,10.927,10.927,0,0,0,4.6.981,9.62,9.62,0,0,0,4.964-1.3,9.077,9.077,0,0,0,3.421-3.559,10.349,10.349,0,0,0,1.208-4.96v-7.024A10,10,0,0,0,357.395,325.875Zm-3.125,4.97a6.054,6.054,0,0,1-.664,2.865,4.844,4.844,0,0,1-1.83,1.934,5.481,5.481,0,0,1-5.356,0,4.957,4.957,0,0,1-1.849-1.938,5.935,5.935,0,0,1-.677-2.86,6.035,6.035,0,0,1,.679-2.879,4.935,4.935,0,0,1,1.848-1.952,5.482,5.482,0,0,1,5.356,0,4.821,4.821,0,0,1,1.829,1.947A6.155,6.155,0,0,1,354.27,330.845Z" transform="translate(-310.367 -313.74)" fill="#fff"/>
    <path id="Path_2763" data-name="Path 2763" d="M239.8,302.557a2.124,2.124,0,0,0-1.465-.529,8.043,8.043,0,0,0-4.054,1.021,7.125,7.125,0,0,0-2.779,2.882,8.993,8.993,0,0,0-.982,4.273v.157h-1.01a1.972,1.972,0,0,0-1.387.5,1.75,1.75,0,0,0-.556,1.344,1.676,1.676,0,0,0,.555,1.279,1.974,1.974,0,0,0,1.387.5h1.01v12.394a2,2,0,0,0,.6,1.5,1.967,1.967,0,0,0,1.41.572,2.122,2.122,0,0,0,1.563-.576,2.033,2.033,0,0,0,.577-1.5V313.984h2.945a1.975,1.975,0,0,0,1.387-.5,1.677,1.677,0,0,0,.556-1.279,1.752,1.752,0,0,0-.556-1.344,1.975,1.975,0,0,0-1.387-.5h-2.945v-.485a4.2,4.2,0,0,1,1.009-2.944h0a3.406,3.406,0,0,1,2.657-1.084,2.123,2.123,0,0,0,1.465-.529,1.87,1.87,0,0,0,0-2.762Z" transform="translate(-241.984 -302.02)" fill="#fff"/>
    <path id="Path_2767" data-name="Path 2767" d="M197.383,326.09a9.267,9.267,0,0,0-3.393-3.427h0a9.347,9.347,0,0,0-4.779-1.252,9.521,9.521,0,0,0-4.809,1.251,9.065,9.065,0,0,0-3.413,3.43,9.69,9.69,0,0,0-1.233,4.84,10.231,10.231,0,0,0,1.145,4.83,8.714,8.714,0,0,0,3.162,3.418,8.436,8.436,0,0,0,4.492,1.241h7.812a2.254,2.254,0,0,0,1.237-.369,1.942,1.942,0,0,0,1.017-1.661v-.015c0-.043.011-.083.011-.128v-7.316A9.59,9.59,0,0,0,197.383,326.09Zm-10.934,9.83a5.421,5.421,0,0,1-1.956-2.049,5.994,5.994,0,0,1-.721-2.939,6.089,6.089,0,0,1,.722-2.957,5.4,5.4,0,0,1,1.955-2.064,5.312,5.312,0,0,1,7.46,2.061,6.21,6.21,0,0,1,.707,2.96,6.111,6.111,0,0,1-.706,2.943,5.305,5.305,0,0,1-1.938,2.045h0a5.483,5.483,0,0,1-5.523,0Z" transform="translate(-212.788 -313.857)" fill="#fff"/>
  </g>
</svg>
