<svg width="358" height="358" viewBox="0 0 358 358" fill="none" xmlns="http://www.w3.org/2000/svg">
<rect x="126.382" y="252.765" width="4.73933" height="53.7125" fill="#00B4A9"/>
<rect x="336.538" y="16.3507" width="4.73933" height="306.477" transform="rotate(45 336.538 16.3507)" fill="#00B4A9"/>
<rect x="25.2768" y="50.5527" width="4.73933" height="53.7125" fill="#00B4A9"/>
<rect x="36.0379" y="146.024" width="4.73933" height="101.106" transform="rotate(-45 36.0379 146.024)" fill="#00B4A9"/>
<circle cx="26.8562" cy="26.8562" r="26.8562" fill="#00B4A9"/>
<circle cx="26.8562" cy="127.962" r="26.8562" fill="#00B4A9"/>
<circle cx="229.068" cy="127.962" r="26.8562" fill="#00B4A9"/>
<circle cx="127.962" cy="229.068" r="26.8562" fill="#00B4A9"/>
<circle cx="127.962" cy="330.174" r="26.8562" fill="#00B4A9"/>
<circle cx="330.173" cy="330.174" r="26.8562" fill="#FFC700"/>
<circle cx="330.173" cy="26.8562" r="26.8562" fill="#00B4A9"/>
<path fill-rule="evenodd" clip-rule="evenodd" d="M127.962 53.7125C142.794 53.7125 154.818 41.6885 154.818 26.8562C154.818 12.0239 142.794 0 127.962 0C113.13 0 101.106 12.0239 101.106 26.8562C101.106 41.6885 113.13 53.7125 127.962 53.7125ZM127.962 48.9732C140.177 48.9732 150.079 39.0711 150.079 26.8563C150.079 14.6415 140.177 4.73938 127.962 4.73938C115.747 4.73938 105.845 14.6415 105.845 26.8563C105.845 39.0711 115.747 48.9732 127.962 48.9732Z" fill="#00B4A9"/>
<path fill-rule="evenodd" clip-rule="evenodd" d="M26.8562 255.924C41.6885 255.924 53.7125 243.9 53.7125 229.068C53.7125 214.235 41.6885 202.211 26.8562 202.211C12.0239 202.211 0 214.235 0 229.068C0 243.9 12.0239 255.924 26.8562 255.924ZM26.8563 251.185C39.0711 251.185 48.9732 241.283 48.9732 229.068C48.9732 216.853 39.0711 206.951 26.8563 206.951C14.6415 206.951 4.73938 216.853 4.73938 229.068C4.73938 241.283 14.6415 251.185 26.8563 251.185Z" fill="#00B4A9"/>
<path fill-rule="evenodd" clip-rule="evenodd" d="M229.068 255.924C243.9 255.924 255.924 243.9 255.924 229.068C255.924 214.235 243.9 202.211 229.068 202.211C214.236 202.211 202.212 214.235 202.212 229.068C202.212 243.9 214.236 255.924 229.068 255.924ZM229.068 251.185C241.282 251.185 251.184 241.283 251.184 229.068C251.184 216.853 241.282 206.951 229.068 206.951C216.853 206.951 206.951 216.853 206.951 229.068C206.951 241.283 216.853 251.185 229.068 251.185Z" fill="#00B4A9"/>
<path fill-rule="evenodd" clip-rule="evenodd" d="M330.173 255.924C345.006 255.924 357.03 243.9 357.03 229.068C357.03 214.235 345.006 202.211 330.173 202.211C315.341 202.211 303.317 214.235 303.317 229.068C303.317 243.9 315.341 255.924 330.173 255.924ZM330.174 251.185C342.388 251.185 352.29 241.283 352.29 229.068C352.29 216.853 342.388 206.951 330.174 206.951C317.959 206.951 308.057 216.853 308.057 229.068C308.057 241.283 317.959 251.185 330.174 251.185Z" fill="#00B4A9"/>
<path fill-rule="evenodd" clip-rule="evenodd" d="M26.8562 357.03C41.6885 357.03 53.7125 345.006 53.7125 330.174C53.7125 315.341 41.6885 303.317 26.8562 303.317C12.0239 303.317 0 315.341 0 330.174C0 345.006 12.0239 357.03 26.8562 357.03ZM26.8563 352.291C39.0711 352.291 48.9732 342.389 48.9732 330.174C48.9732 317.959 39.0711 308.057 26.8563 308.057C14.6415 308.057 4.73938 317.959 4.73938 330.174C4.73938 342.389 14.6415 352.291 26.8563 352.291Z" fill="#00B4A9"/>
<path fill-rule="evenodd" clip-rule="evenodd" d="M229.068 357.03C243.9 357.03 255.924 345.006 255.924 330.174C255.924 315.341 243.9 303.317 229.068 303.317C214.236 303.317 202.212 315.341 202.212 330.174C202.212 345.006 214.236 357.03 229.068 357.03ZM229.068 352.291C241.282 352.291 251.184 342.389 251.184 330.174C251.184 317.959 241.282 308.057 229.068 308.057C216.853 308.057 206.951 317.959 206.951 330.174C206.951 342.389 216.853 352.291 229.068 352.291Z" fill="#00B4A9"/>
<path fill-rule="evenodd" clip-rule="evenodd" d="M330.173 154.818C345.006 154.818 357.03 142.794 357.03 127.962C357.03 113.13 345.006 101.106 330.173 101.106C315.341 101.106 303.317 113.13 303.317 127.962C303.317 142.794 315.341 154.818 330.173 154.818ZM330.174 150.079C342.388 150.079 352.29 140.177 352.29 127.962C352.29 115.747 342.388 105.845 330.174 105.845C317.959 105.845 308.057 115.747 308.057 127.962C308.057 140.177 317.959 150.079 330.174 150.079Z" fill="#00B4A9"/>
<path fill-rule="evenodd" clip-rule="evenodd" d="M229.068 53.7125C243.9 53.7125 255.924 41.6885 255.924 26.8562C255.924 12.0239 243.9 0 229.068 0C214.236 0 202.212 12.0239 202.212 26.8562C202.212 41.6885 214.236 53.7125 229.068 53.7125ZM229.068 48.9732C241.282 48.9732 251.184 39.0711 251.184 26.8563C251.184 14.6415 241.282 4.73938 229.068 4.73938C216.853 4.73938 206.951 14.6415 206.951 26.8563C206.951 39.0711 216.853 48.9732 229.068 48.9732Z" fill="#00B4A9"/>
<path fill-rule="evenodd" clip-rule="evenodd" d="M127.962 154.818C142.794 154.818 154.818 142.794 154.818 127.962C154.818 113.13 142.794 101.106 127.962 101.106C113.13 101.106 101.106 113.13 101.106 127.962C101.106 142.794 113.13 154.818 127.962 154.818ZM127.962 150.079C140.177 150.079 150.079 140.177 150.079 127.962C150.079 115.747 140.177 105.845 127.962 105.845C115.747 105.845 105.845 115.747 105.845 127.962C105.845 140.177 115.747 150.079 127.962 150.079Z" fill="#00B4A9"/>
</svg>
