<svg width="839" height="271" viewBox="0 0 839 271" fill="none" xmlns="http://www.w3.org/2000/svg">
<rect x="72.9205" y="146.841" width="2.73451" height="30.9912" fill="#00B4A9"/>
<rect x="194.177" y="10.4341" width="2.73451" height="176.832" transform="rotate(45 194.177 10.4341)" fill="#00B4A9"/>
<rect x="14.5843" y="30.168" width="2.73451" height="30.9912" fill="#00B4A9"/>
<rect x="20.7932" y="85.2534" width="2.73451" height="58.3362" transform="rotate(-45 20.7932 85.2534)" fill="#00B4A9"/>
<ellipse cx="15.4956" cy="16.4956" rx="15.4956" ry="15.4956" fill="#00B4A9"/>
<ellipse cx="15.4956" cy="74.8318" rx="15.4956" ry="15.4956" fill="#00B4A9"/>
<ellipse cx="132.168" cy="74.8318" rx="15.4956" ry="15.4956" fill="#00B4A9"/>
<ellipse cx="73.8318" cy="133.168" rx="15.4956" ry="15.4956" fill="#00B4A9"/>
<ellipse cx="73.8318" cy="191.504" rx="15.4956" ry="15.4956" fill="#00B4A9"/>
<ellipse cx="190.504" cy="191.504" rx="15.4956" ry="15.4956" fill="#FFC700"/>
<ellipse cx="190.504" cy="16.4956" rx="15.4956" ry="15.4956" fill="#00B4A9"/>
<path fill-rule="evenodd" clip-rule="evenodd" d="M73.8318 31.9912C82.3898 31.9912 89.3274 25.0535 89.3274 16.4956C89.3274 7.93761 82.3898 1 73.8318 1C65.2738 1 58.3362 7.93761 58.3362 16.4956C58.3362 25.0535 65.2738 31.9912 73.8318 31.9912ZM73.8318 29.2567C80.8796 29.2567 86.5929 23.5434 86.5929 16.4956C86.5929 9.44788 80.8796 3.73456 73.8318 3.73456C66.7841 3.73456 61.0708 9.44788 61.0708 16.4956C61.0708 23.5434 66.7841 29.2567 73.8318 29.2567Z" fill="#00B4A9"/>
<path fill-rule="evenodd" clip-rule="evenodd" d="M15.4956 148.664C24.0536 148.664 30.9912 141.726 30.9912 133.168C30.9912 124.61 24.0536 117.672 15.4956 117.672C6.93761 117.672 0 124.61 0 133.168C0 141.726 6.93761 148.664 15.4956 148.664ZM15.4956 145.929C22.5434 145.929 28.2567 140.216 28.2567 133.168C28.2567 126.12 22.5434 120.407 15.4956 120.407C8.44787 120.407 2.73455 126.12 2.73455 133.168C2.73455 140.216 8.44787 145.929 15.4956 145.929Z" fill="#00B4A9"/>
<path fill-rule="evenodd" clip-rule="evenodd" d="M132.168 148.664C140.726 148.664 147.664 141.726 147.664 133.168C147.664 124.61 140.726 117.672 132.168 117.672C123.61 117.672 116.673 124.61 116.673 133.168C116.673 141.726 123.61 148.664 132.168 148.664ZM132.168 145.929C139.216 145.929 144.929 140.216 144.929 133.168C144.929 126.12 139.216 120.407 132.168 120.407C125.12 120.407 119.407 126.12 119.407 133.168C119.407 140.216 125.12 145.929 132.168 145.929Z" fill="#00B4A9"/>
<path fill-rule="evenodd" clip-rule="evenodd" d="M190.504 148.664C199.062 148.664 206 141.726 206 133.168C206 124.61 199.062 117.672 190.504 117.672C181.946 117.672 175.009 124.61 175.009 133.168C175.009 141.726 181.946 148.664 190.504 148.664ZM190.504 145.929C197.552 145.929 203.266 140.216 203.266 133.168C203.266 126.12 197.552 120.407 190.504 120.407C183.457 120.407 177.743 126.12 177.743 133.168C177.743 140.216 183.457 145.929 190.504 145.929Z" fill="#00B4A9"/>
<path fill-rule="evenodd" clip-rule="evenodd" d="M15.4956 207C24.0536 207 30.9912 200.062 30.9912 191.504C30.9912 182.946 24.0536 176.009 15.4956 176.009C6.93761 176.009 0 182.946 0 191.504C0 200.062 6.93761 207 15.4956 207ZM15.4956 204.266C22.5434 204.266 28.2567 198.552 28.2567 191.504C28.2567 184.457 22.5434 178.743 15.4956 178.743C8.44787 178.743 2.73455 184.457 2.73455 191.504C2.73455 198.552 8.44787 204.266 15.4956 204.266Z" fill="#00B4A9"/>
<path fill-rule="evenodd" clip-rule="evenodd" d="M132.168 207C140.726 207 147.664 200.062 147.664 191.504C147.664 182.946 140.726 176.009 132.168 176.009C123.61 176.009 116.673 182.946 116.673 191.504C116.673 200.062 123.61 207 132.168 207ZM132.168 204.266C139.216 204.266 144.929 198.552 144.929 191.504C144.929 184.457 139.216 178.743 132.168 178.743C125.12 178.743 119.407 184.457 119.407 191.504C119.407 198.552 125.12 204.266 132.168 204.266Z" fill="#00B4A9"/>
<path fill-rule="evenodd" clip-rule="evenodd" d="M190.504 90.3274C199.062 90.3274 206 83.3898 206 74.8318C206 66.2738 199.062 59.3362 190.504 59.3362C181.946 59.3362 175.009 66.2738 175.009 74.8318C175.009 83.3898 181.946 90.3274 190.504 90.3274ZM190.504 87.5929C197.552 87.5929 203.266 81.8796 203.266 74.8319C203.266 67.7841 197.552 62.0708 190.504 62.0708C183.457 62.0708 177.743 67.7841 177.743 74.8319C177.743 81.8796 183.457 87.5929 190.504 87.5929Z" fill="#00B4A9"/>
<path fill-rule="evenodd" clip-rule="evenodd" d="M132.168 31.9912C140.726 31.9912 147.664 25.0535 147.664 16.4956C147.664 7.93761 140.726 1 132.168 1C123.61 1 116.673 7.93761 116.673 16.4956C116.673 25.0535 123.61 31.9912 132.168 31.9912ZM132.168 29.2567C139.216 29.2567 144.929 23.5434 144.929 16.4956C144.929 9.44788 139.216 3.73456 132.168 3.73456C125.12 3.73456 119.407 9.44788 119.407 16.4956C119.407 23.5434 125.12 29.2567 132.168 29.2567Z" fill="#00B4A9"/>
<path fill-rule="evenodd" clip-rule="evenodd" d="M73.8318 90.3274C82.3898 90.3274 89.3274 83.3898 89.3274 74.8318C89.3274 66.2738 82.3898 59.3362 73.8318 59.3362C65.2738 59.3362 58.3362 66.2738 58.3362 74.8318C58.3362 83.3898 65.2738 90.3274 73.8318 90.3274ZM73.8318 87.5929C80.8796 87.5929 86.5929 81.8796 86.5929 74.8319C86.5929 67.7841 80.8796 62.0708 73.8318 62.0708C66.7841 62.0708 61.0708 67.7841 61.0708 74.8319C61.0708 81.8796 66.7841 87.5929 73.8318 87.5929Z" fill="#00B4A9"/>
<path d="M276.598 0.510193H249.742L316.093 113.464V201.142H338.21V113.464L406.14 0.510193H379.284L327.151 89.7676L276.598 0.510193Z" fill="#00B4A9"/>
<path d="M448.794 0.510193H428.257V201.142H448.794V0.510193Z" fill="#00B4A9"/>
<path d="M529.363 190.084L472.491 76.3395H496.978L540.421 164.017L579.916 76.3395H605.192L513.565 270.652H489.869L529.363 190.084Z" fill="#00B4A9"/>
<path d="M628.889 76.3395V32.1057H649.426V76.3395H669.963V95.2969H649.426V201.142H628.889V95.2969H614.671V76.3395H628.889Z" fill="#00B4A9"/>
<path d="M712.617 76.3395H692.08V201.142H712.617V76.3395Z" fill="#00B4A9"/>
<path d="M717.357 47.1136C717.357 55.4023 710.637 62.1215 702.349 62.1215C694.06 62.1215 687.341 55.4023 687.341 47.1136C687.341 38.825 694.06 32.1057 702.349 32.1057C710.637 32.1057 717.357 38.825 717.357 47.1136Z" fill="#00B4A9"/>
<path d="M838.103 86.6172C832.123 82.4671 819.266 74.7598 799.532 74.7598C761.261 74.7598 733.155 102.328 733.155 139.975C733.155 177.03 760.962 204.302 799.532 204.302C811.193 204.302 825.545 201.337 839 191.555V166.062C827.638 179.698 811.791 185.33 798.934 185.33C776.809 185.33 755.281 169.619 755.281 139.679C755.281 109.739 776.211 93.7316 799.233 93.7316C810.296 93.7316 826.741 97.8817 838.103 112.111V86.6172Z" fill="#FFC700"/>
</svg>
