<svg width="486" height="653" viewBox="0 0 486 653" fill="none" xmlns="http://www.w3.org/2000/svg">
<g filter="url(#filter0_dd_923_9531)">
<rect x="50" y="50" width="382" height="549" fill="white"/>
</g>
<path d="M149.5 463.5H176.5V506.5H149.5V463.5Z" stroke="#E8E9EC"/>
<path d="M241.5 463.5H268.5V506.5H241.5V463.5Z" stroke="#E8E9EC"/>
<path d="M101.5 463.5H149.5V506.5H101.5V463.5Z" stroke="#E8E9EC"/>
<path d="M125.477 491.179C124.625 491.179 123.862 491.019 123.188 490.7C122.515 490.376 121.98 489.933 121.584 489.37C121.192 488.808 120.983 488.164 120.958 487.44H123.259C123.301 487.977 123.534 488.415 123.956 488.756C124.377 489.093 124.884 489.261 125.477 489.261C125.941 489.261 126.355 489.155 126.717 488.942C127.079 488.729 127.365 488.433 127.573 488.053C127.782 487.674 127.884 487.241 127.88 486.756C127.884 486.261 127.78 485.822 127.567 485.439C127.354 485.055 127.062 484.755 126.691 484.538C126.321 484.316 125.894 484.205 125.413 484.205C125.021 484.201 124.635 484.273 124.256 484.423C123.877 484.572 123.576 484.768 123.355 485.011L121.213 484.659L121.897 477.909H129.491V479.891H123.86L123.483 483.362H123.559C123.802 483.076 124.145 482.839 124.588 482.652C125.032 482.46 125.517 482.364 126.046 482.364C126.838 482.364 127.546 482.552 128.168 482.927C128.79 483.298 129.28 483.809 129.638 484.461C129.996 485.113 130.175 485.859 130.175 486.698C130.175 487.563 129.975 488.335 129.574 489.012C129.178 489.685 128.626 490.216 127.919 490.604C127.215 490.987 126.402 491.179 125.477 491.179Z" fill="black"/>
<path d="M157.143 490L162.5 496L167.857 490" stroke="#999999" stroke-linecap="round" stroke-linejoin="round"/>
<path d="M167.857 480L162.5 474L157.143 480" stroke="#999999" stroke-linecap="round" stroke-linejoin="round"/>
<path d="M191.5 463.5H241.5V506.5H191.5V463.5Z" stroke="#E8E9EC"/>
<path d="M205.028 491V489.287L209.573 484.832C210.008 484.393 210.37 484.003 210.66 483.662C210.949 483.321 211.167 482.991 211.312 482.671C211.456 482.352 211.529 482.011 211.529 481.648C211.529 481.235 211.435 480.881 211.248 480.587C211.06 480.289 210.802 480.059 210.474 479.897C210.146 479.735 209.773 479.654 209.356 479.654C208.925 479.654 208.548 479.744 208.224 479.923C207.9 480.097 207.649 480.347 207.47 480.67C207.295 480.994 207.208 481.38 207.208 481.827H204.952C204.952 480.996 205.141 480.274 205.52 479.661C205.9 479.047 206.422 478.572 207.086 478.235C207.756 477.898 208.523 477.73 209.388 477.73C210.265 477.73 211.037 477.894 211.702 478.222C212.366 478.55 212.882 479 213.248 479.571C213.619 480.142 213.805 480.794 213.805 481.527C213.805 482.017 213.711 482.499 213.523 482.972C213.336 483.445 213.006 483.969 212.532 484.544C212.064 485.119 211.405 485.816 210.557 486.634L208.301 488.929V489.018H214.003V491H205.028ZM221.515 491.179C220.663 491.179 219.9 491.019 219.227 490.7C218.553 490.376 218.018 489.933 217.622 489.37C217.23 488.808 217.021 488.164 216.996 487.44H219.297C219.339 487.977 219.572 488.415 219.994 488.756C220.415 489.093 220.923 489.261 221.515 489.261C221.979 489.261 222.393 489.155 222.755 488.942C223.117 488.729 223.403 488.433 223.612 488.053C223.82 487.674 223.923 487.241 223.918 486.756C223.923 486.261 223.818 485.822 223.605 485.439C223.392 485.055 223.1 484.755 222.729 484.538C222.359 484.316 221.933 484.205 221.451 484.205C221.059 484.201 220.673 484.273 220.294 484.423C219.915 484.572 219.614 484.768 219.393 485.011L217.251 484.659L217.935 477.909H225.529V479.891H219.898L219.521 483.362H219.597C219.84 483.076 220.183 482.839 220.626 482.652C221.07 482.46 221.555 482.364 222.084 482.364C222.876 482.364 223.584 482.552 224.206 482.927C224.828 483.298 225.318 483.809 225.676 484.461C226.034 485.113 226.213 485.859 226.213 486.698C226.213 487.563 226.013 488.335 225.612 489.012C225.216 489.685 224.664 490.216 223.957 490.604C223.254 490.987 222.44 491.179 221.515 491.179Z" fill="black"/>
<path d="M250 490L256 496L262 490" stroke="#999999" stroke-linecap="round" stroke-linejoin="round"/>
<path d="M262 480L256 474L250 480" stroke="#999999" stroke-linecap="round" stroke-linejoin="round"/>
<path d="M280.5 463.5H330.5V506.5H280.5V463.5Z" stroke="#E8E9EC"/>
<path d="M292.303 491H289.772L294.381 477.909H297.308L301.923 491H299.392L295.896 480.594H295.793L292.303 491ZM292.386 485.867H299.29V487.772H292.386V485.867ZM303.648 477.909H306.55L310.436 487.395H310.589L314.476 477.909H317.378V491H315.102V482.006H314.981L311.363 490.962H309.663L306.045 481.987H305.923V491H303.648V477.909Z" fill="black"/>
<path d="M330.5 463.5H380.5V506.5H330.5V463.5Z" fill="black" stroke="#E8E9EC"/>
<path d="M113.773 173.273H115.708L118.298 179.597H118.401L120.992 173.273H122.926V182H121.409V176.004H121.328L118.916 181.974H117.783L115.371 175.991H115.29V182H113.773V173.273ZM127.435 182.128C126.796 182.128 126.242 181.987 125.773 181.706C125.304 181.425 124.941 181.031 124.682 180.526C124.426 180.02 124.298 179.429 124.298 178.753C124.298 178.077 124.426 177.484 124.682 176.976C124.941 176.467 125.304 176.072 125.773 175.791C126.242 175.51 126.796 175.369 127.435 175.369C128.074 175.369 128.628 175.51 129.097 175.791C129.566 176.072 129.928 176.467 130.183 176.976C130.442 177.484 130.571 178.077 130.571 178.753C130.571 179.429 130.442 180.02 130.183 180.526C129.928 181.031 129.566 181.425 129.097 181.706C128.628 181.987 128.074 182.128 127.435 182.128ZM127.443 180.892C127.79 180.892 128.08 180.797 128.313 180.607C128.546 180.413 128.719 180.155 128.833 179.831C128.949 179.507 129.007 179.146 129.007 178.749C129.007 178.348 128.949 177.986 128.833 177.662C128.719 177.335 128.546 177.075 128.313 176.882C128.08 176.689 127.79 176.592 127.443 176.592C127.088 176.592 126.793 176.689 126.557 176.882C126.324 177.075 126.149 177.335 126.033 177.662C125.919 177.986 125.862 178.348 125.862 178.749C125.862 179.146 125.919 179.507 126.033 179.831C126.149 180.155 126.324 180.413 126.557 180.607C126.793 180.797 127.088 180.892 127.443 180.892Z" fill="black"/>
<path d="M155.311 174.598V173.273H162.274V174.598H159.577V182H158.009V174.598H155.311ZM166.83 179.247V175.455H168.372V182H166.877V180.837H166.808C166.661 181.203 166.418 181.503 166.08 181.736C165.744 181.969 165.331 182.085 164.84 182.085C164.411 182.085 164.031 181.99 163.702 181.8C163.375 181.607 163.119 181.327 162.935 180.96C162.75 180.591 162.658 180.145 162.658 179.622V175.455H164.2V179.384C164.2 179.798 164.314 180.128 164.541 180.372C164.769 180.616 165.067 180.739 165.436 180.739C165.664 180.739 165.884 180.683 166.097 180.572C166.31 180.462 166.485 180.297 166.621 180.078C166.76 179.857 166.83 179.58 166.83 179.247Z" fill="black"/>
<path d="M195.434 182L192.971 173.273H194.671L196.243 179.686H196.324L198.003 173.273H199.55L201.233 179.69H201.31L202.883 173.273H204.583L202.12 182H200.56L198.813 175.876H198.745L196.993 182H195.434ZM207.841 182.128C207.184 182.128 206.618 181.991 206.14 181.719C205.666 181.443 205.301 181.054 205.045 180.551C204.79 180.045 204.662 179.45 204.662 178.766C204.662 178.092 204.79 177.501 205.045 176.993C205.304 176.482 205.665 176.084 206.128 175.8C206.591 175.513 207.135 175.369 207.76 175.369C208.163 175.369 208.544 175.435 208.902 175.565C209.263 175.693 209.581 175.892 209.856 176.162C210.135 176.432 210.354 176.776 210.513 177.193C210.672 177.608 210.751 178.102 210.751 178.676V179.149H205.386V178.109H209.273C209.27 177.814 209.206 177.551 209.081 177.321C208.956 177.088 208.781 176.905 208.557 176.771C208.335 176.638 208.077 176.571 207.781 176.571C207.466 176.571 207.189 176.648 206.95 176.801C206.711 176.952 206.525 177.151 206.392 177.398C206.261 177.642 206.194 177.911 206.192 178.203V179.111C206.192 179.491 206.261 179.818 206.4 180.091C206.54 180.361 206.734 180.568 206.984 180.713C207.234 180.855 207.527 180.926 207.862 180.926C208.086 180.926 208.29 180.895 208.471 180.832C208.653 180.767 208.811 180.672 208.944 180.547C209.078 180.422 209.179 180.267 209.247 180.082L210.687 180.244C210.596 180.625 210.423 180.957 210.167 181.241C209.915 181.523 209.591 181.741 209.196 181.898C208.801 182.051 208.349 182.128 207.841 182.128Z" fill="black"/>
<path d="M234.837 174.598V173.273H241.8V174.598H239.102V182H237.534V174.598H234.837ZM244.616 178.165V182H243.074V173.273H244.582V176.567H244.659C244.813 176.197 245.05 175.906 245.371 175.693C245.695 175.477 246.107 175.369 246.607 175.369C247.061 175.369 247.457 175.464 247.795 175.655C248.134 175.845 248.395 176.124 248.58 176.49C248.767 176.857 248.861 177.304 248.861 177.832V182H247.318V178.071C247.318 177.631 247.205 177.288 246.977 177.044C246.753 176.797 246.438 176.673 246.031 176.673C245.759 176.673 245.514 176.733 245.298 176.852C245.085 176.969 244.918 177.138 244.795 177.359C244.676 177.581 244.616 177.849 244.616 178.165Z" fill="black"/>
<path d="M277.013 182V173.273H282.604V174.598H278.594V176.967H282.221V178.293H278.594V182H277.013ZM283.882 182V175.455H285.378V176.545H285.446C285.566 176.168 285.77 175.876 286.06 175.672C286.353 175.464 286.686 175.361 287.061 175.361C287.147 175.361 287.242 175.365 287.347 175.374C287.455 175.379 287.544 175.389 287.615 175.403V176.822C287.55 176.8 287.446 176.78 287.304 176.763C287.165 176.743 287.03 176.733 286.9 176.733C286.618 176.733 286.365 176.794 286.141 176.916C285.919 177.036 285.745 177.202 285.617 177.415C285.489 177.628 285.425 177.874 285.425 178.152V182H283.882Z" fill="black"/>
<path d="M320.262 175.672C320.222 175.3 320.055 175.01 319.759 174.803C319.466 174.595 319.086 174.491 318.617 174.491C318.287 174.491 318.005 174.541 317.769 174.641C317.533 174.74 317.353 174.875 317.228 175.045C317.103 175.216 317.039 175.411 317.036 175.629C317.036 175.811 317.077 175.969 317.16 176.102C317.245 176.236 317.36 176.349 317.505 176.443C317.65 176.534 317.81 176.611 317.986 176.673C318.162 176.736 318.34 176.788 318.519 176.831L319.337 177.036C319.667 177.112 319.983 177.216 320.287 177.347C320.594 177.477 320.868 177.642 321.11 177.841C321.354 178.04 321.547 178.28 321.689 178.561C321.831 178.842 321.903 179.172 321.903 179.55C321.903 180.061 321.772 180.511 321.51 180.901C321.249 181.287 320.871 181.589 320.377 181.808C319.885 182.024 319.29 182.132 318.591 182.132C317.912 182.132 317.323 182.027 316.823 181.817C316.326 181.607 315.937 181.3 315.655 180.896C315.377 180.493 315.226 180.001 315.204 179.422H316.759C316.782 179.726 316.876 179.979 317.04 180.18C317.205 180.382 317.42 180.533 317.684 180.632C317.951 180.732 318.249 180.781 318.579 180.781C318.922 180.781 319.224 180.73 319.482 180.628C319.743 180.523 319.948 180.378 320.096 180.193C320.243 180.006 320.319 179.787 320.322 179.537C320.319 179.31 320.252 179.122 320.121 178.974C319.991 178.824 319.807 178.699 319.572 178.599C319.339 178.497 319.066 178.406 318.753 178.327L317.76 178.071C317.042 177.886 316.474 177.607 316.056 177.232C315.641 176.854 315.434 176.352 315.434 175.727C315.434 175.213 315.573 174.763 315.851 174.376C316.133 173.99 316.515 173.69 316.998 173.477C317.481 173.261 318.028 173.153 318.638 173.153C319.258 173.153 319.8 173.261 320.266 173.477C320.735 173.69 321.103 173.987 321.37 174.368C321.637 174.746 321.775 175.18 321.783 175.672H320.262ZM325.127 182.132C324.713 182.132 324.339 182.058 324.007 181.911C323.677 181.76 323.416 181.538 323.222 181.246C323.032 180.953 322.937 180.592 322.937 180.163C322.937 179.794 323.005 179.489 323.142 179.247C323.278 179.006 323.464 178.812 323.7 178.668C323.936 178.523 324.201 178.413 324.497 178.339C324.795 178.263 325.103 178.207 325.421 178.173C325.805 178.134 326.116 178.098 326.355 178.067C326.593 178.033 326.767 177.982 326.874 177.913C326.985 177.842 327.041 177.733 327.041 177.585V177.56C327.041 177.239 326.945 176.99 326.755 176.814C326.565 176.638 326.291 176.55 325.933 176.55C325.555 176.55 325.255 176.632 325.034 176.797C324.815 176.962 324.667 177.156 324.59 177.381L323.15 177.176C323.264 176.778 323.451 176.446 323.713 176.179C323.974 175.909 324.294 175.707 324.671 175.574C325.049 175.438 325.467 175.369 325.924 175.369C326.24 175.369 326.553 175.406 326.866 175.48C327.178 175.554 327.464 175.676 327.722 175.847C327.981 176.014 328.188 176.243 328.345 176.533C328.504 176.822 328.583 177.185 328.583 177.619V182H327.1V181.101H327.049C326.955 181.283 326.823 181.453 326.653 181.612C326.485 181.768 326.274 181.895 326.018 181.991C325.765 182.085 325.468 182.132 325.127 182.132ZM325.528 180.999C325.838 180.999 326.106 180.937 326.333 180.815C326.561 180.69 326.735 180.526 326.857 180.321C326.982 180.116 327.045 179.893 327.045 179.652V178.881C326.997 178.92 326.914 178.957 326.798 178.991C326.684 179.026 326.556 179.055 326.414 179.081C326.272 179.107 326.132 179.129 325.992 179.149C325.853 179.169 325.732 179.186 325.63 179.2C325.4 179.232 325.194 179.283 325.012 179.354C324.83 179.425 324.687 179.524 324.582 179.652C324.477 179.777 324.424 179.939 324.424 180.138C324.424 180.422 324.528 180.636 324.735 180.781C324.943 180.926 325.207 180.999 325.528 180.999Z" fill="black"/>
<path d="M360.057 175.672C360.017 175.3 359.849 175.01 359.554 174.803C359.261 174.595 358.881 174.491 358.412 174.491C358.082 174.491 357.8 174.541 357.564 174.641C357.328 174.74 357.148 174.875 357.023 175.045C356.898 175.216 356.834 175.411 356.831 175.629C356.831 175.811 356.872 175.969 356.955 176.102C357.04 176.236 357.155 176.349 357.3 176.443C357.445 176.534 357.605 176.611 357.781 176.673C357.957 176.736 358.135 176.788 358.314 176.831L359.132 177.036C359.462 177.112 359.778 177.216 360.082 177.347C360.389 177.477 360.663 177.642 360.905 177.841C361.149 178.04 361.342 178.28 361.484 178.561C361.626 178.842 361.697 179.172 361.697 179.55C361.697 180.061 361.567 180.511 361.305 180.901C361.044 181.287 360.666 181.589 360.172 181.808C359.68 182.024 359.085 182.132 358.386 182.132C357.707 182.132 357.118 182.027 356.618 181.817C356.121 181.607 355.732 181.3 355.45 180.896C355.172 180.493 355.021 180.001 354.999 179.422H356.554C356.577 179.726 356.67 179.979 356.835 180.18C357 180.382 357.214 180.533 357.479 180.632C357.746 180.732 358.044 180.781 358.374 180.781C358.717 180.781 359.018 180.73 359.277 180.628C359.538 180.523 359.743 180.378 359.891 180.193C360.038 180.006 360.114 179.787 360.116 179.537C360.114 179.31 360.047 179.122 359.916 178.974C359.786 178.824 359.602 178.699 359.366 178.599C359.134 178.497 358.861 178.406 358.548 178.327L357.555 178.071C356.837 177.886 356.268 177.607 355.851 177.232C355.436 176.854 355.229 176.352 355.229 175.727C355.229 175.213 355.368 174.763 355.646 174.376C355.928 173.99 356.31 173.69 356.793 173.477C357.276 173.261 357.822 173.153 358.433 173.153C359.053 173.153 359.595 173.261 360.061 173.477C360.53 173.69 360.898 173.987 361.165 174.368C361.432 174.746 361.57 175.18 361.578 175.672H360.057ZM367.211 179.247V175.455H368.753V182H367.257V180.837H367.189C367.042 181.203 366.799 181.503 366.461 181.736C366.125 181.969 365.712 182.085 365.221 182.085C364.792 182.085 364.412 181.99 364.083 181.8C363.756 181.607 363.5 181.327 363.316 180.96C363.131 180.591 363.039 180.145 363.039 179.622V175.455H364.581V179.384C364.581 179.798 364.695 180.128 364.922 180.372C365.15 180.616 365.448 180.739 365.817 180.739C366.044 180.739 366.265 180.683 366.478 180.572C366.691 180.462 366.865 180.297 367.002 180.078C367.141 179.857 367.211 179.58 367.211 179.247Z" fill="black"/>
<path d="M123.178 213.273V222H122.121V214.381H122.07L119.939 215.795V214.722L122.121 213.273H123.178Z" fill="black"/>
<path d="M102 198V197.5H101.5V198H102ZM142 198H142.5V197.5H142V198ZM142 238V238.5H142.5V238H142ZM102 238H101.5V238.5H102V238ZM102 198.5H142V197.5H102V198.5ZM141.5 198V238H142.5V198H141.5ZM142 237.5H102V238.5H142V237.5ZM102.5 238V198H101.5V238H102.5Z" fill="#DFDFDF"/>
<path d="M159.274 222V221.233L162.155 218.08C162.493 217.71 162.771 217.389 162.99 217.116C163.209 216.841 163.371 216.582 163.476 216.341C163.584 216.097 163.638 215.841 163.638 215.574C163.638 215.267 163.564 215.001 163.416 214.777C163.271 214.553 163.073 214.379 162.82 214.257C162.567 214.135 162.283 214.074 161.968 214.074C161.632 214.074 161.34 214.143 161.09 214.283C160.843 214.419 160.651 214.611 160.514 214.858C160.381 215.105 160.314 215.395 160.314 215.727H159.308C159.308 215.216 159.426 214.767 159.662 214.381C159.898 213.994 160.219 213.693 160.625 213.477C161.034 213.261 161.493 213.153 162.002 213.153C162.513 213.153 162.966 213.261 163.361 213.477C163.756 213.693 164.066 213.984 164.29 214.351C164.514 214.717 164.627 215.125 164.627 215.574C164.627 215.895 164.568 216.209 164.452 216.516C164.338 216.82 164.139 217.159 163.855 217.534C163.574 217.906 163.183 218.361 162.683 218.898L160.723 220.994V221.062H164.78V222H159.274Z" fill="black"/>
<path d="M142 198V197.5H141.5V198H142ZM182 198H182.5V197.5H182V198ZM182 238V238.5H182.5V238H182ZM142 238H141.5V238.5H142V238ZM142 198.5H182V197.5H142V198.5ZM181.5 198V238H182.5V198H181.5ZM182 237.5H142V238.5H182V237.5ZM142.5 238V198H141.5V238H142.5Z" fill="#DFDFDF"/>
<path d="M202.036 222.119C201.473 222.119 200.972 222.023 200.531 221.83C200.094 221.636 199.746 221.368 199.487 221.024C199.232 220.678 199.093 220.276 199.07 219.818H200.144C200.166 220.099 200.263 220.342 200.433 220.547C200.604 220.749 200.827 220.905 201.102 221.016C201.378 221.126 201.683 221.182 202.019 221.182C202.394 221.182 202.726 221.116 203.016 220.986C203.306 220.855 203.533 220.673 203.698 220.44C203.862 220.207 203.945 219.938 203.945 219.631C203.945 219.31 203.865 219.027 203.706 218.783C203.547 218.536 203.314 218.342 203.007 218.203C202.7 218.064 202.325 217.994 201.882 217.994H201.183V217.057H201.882C202.229 217.057 202.533 216.994 202.794 216.869C203.058 216.744 203.264 216.568 203.412 216.341C203.563 216.114 203.638 215.847 203.638 215.54C203.638 215.244 203.573 214.987 203.442 214.768C203.311 214.55 203.127 214.379 202.888 214.257C202.652 214.135 202.374 214.074 202.053 214.074C201.752 214.074 201.468 214.129 201.2 214.24C200.936 214.348 200.72 214.506 200.553 214.713C200.385 214.918 200.294 215.165 200.28 215.455H199.257C199.274 214.997 199.412 214.597 199.671 214.253C199.929 213.906 200.267 213.636 200.685 213.443C201.105 213.25 201.567 213.153 202.07 213.153C202.61 213.153 203.073 213.263 203.459 213.482C203.845 213.697 204.142 213.983 204.35 214.338C204.557 214.693 204.661 215.077 204.661 215.489C204.661 215.98 204.531 216.399 204.273 216.746C204.017 217.092 203.669 217.332 203.229 217.466V217.534C203.78 217.625 204.21 217.859 204.52 218.237C204.83 218.612 204.985 219.077 204.985 219.631C204.985 220.105 204.855 220.531 204.597 220.909C204.341 221.284 203.992 221.58 203.548 221.795C203.105 222.011 202.601 222.119 202.036 222.119Z" fill="black"/>
<path d="M182 198V197.5H181.5V198H182ZM222 198H222.5V197.5H222V198ZM222 238V238.5H222.5V238H222ZM182 238H181.5V238.5H182V238ZM182 198.5H222V197.5H182V198.5ZM221.5 198V238H222.5V198H221.5ZM222 237.5H182V238.5H222V237.5ZM182.5 238V198H181.5V238H182.5Z" fill="#DFDFDF"/>
<path d="M238.814 220.21V219.341L242.649 213.273H243.28V214.619H242.854L239.956 219.205V219.273H245.121V220.21H238.814ZM242.922 222V219.946V219.541V213.273H243.928V222H242.922Z" fill="black"/>
<path d="M222 198V197.5H221.5V198H222ZM262 198H262.5V197.5H262V198ZM262 238V238.5H262.5V238H262ZM222 238H221.5V238.5H222V238ZM222 198.5H262V197.5H222V198.5ZM261.5 198V238H262.5V198H261.5ZM262 237.5H222V238.5H262V237.5ZM222.5 238V198H221.5V238H222.5Z" fill="#DFDFDF"/>
<path d="M281.968 222.119C281.468 222.119 281.017 222.02 280.617 221.821C280.216 221.622 279.895 221.349 279.654 221.003C279.412 220.656 279.28 220.261 279.257 219.818H280.28C280.32 220.213 280.499 220.54 280.817 220.798C281.138 221.054 281.521 221.182 281.968 221.182C282.325 221.182 282.644 221.098 282.922 220.93C283.203 220.763 283.423 220.533 283.583 220.24C283.744 219.945 283.825 219.611 283.825 219.239C283.825 218.858 283.742 218.518 283.574 218.22C283.409 217.919 283.182 217.682 282.892 217.509C282.602 217.335 282.271 217.247 281.899 217.244C281.632 217.241 281.358 217.283 281.077 217.368C280.796 217.45 280.564 217.557 280.382 217.688L279.394 217.568L279.922 213.273H284.456V214.21H280.808L280.502 216.784H280.553C280.732 216.642 280.956 216.524 281.226 216.43C281.496 216.337 281.777 216.29 282.07 216.29C282.604 216.29 283.08 216.418 283.497 216.673C283.918 216.926 284.247 217.273 284.486 217.713C284.727 218.153 284.848 218.656 284.848 219.222C284.848 219.778 284.723 220.276 284.473 220.713C284.226 221.148 283.885 221.491 283.45 221.744C283.016 221.994 282.521 222.119 281.968 222.119Z" fill="black"/>
<path d="M262 198V197.5H261.5V198H262ZM302 198H302.5V197.5H302V198ZM302 238V238.5H302.5V238H302ZM262 238H261.5V238.5H262V238ZM262 198.5H302V197.5H262V198.5ZM301.5 198V238H302.5V198H301.5ZM302 237.5H262V238.5H302V237.5ZM262.5 238V198H261.5V238H262.5Z" fill="#DFDFDF"/>
<path d="M322.053 222.119C321.695 222.114 321.337 222.045 320.979 221.915C320.621 221.784 320.294 221.564 319.999 221.254C319.703 220.942 319.466 220.52 319.287 219.989C319.108 219.455 319.019 218.784 319.019 217.977C319.019 217.205 319.091 216.52 319.236 215.923C319.381 215.324 319.591 214.82 319.867 214.411C320.142 213.999 320.475 213.686 320.864 213.473C321.256 213.26 321.698 213.153 322.189 213.153C322.678 213.153 323.112 213.251 323.493 213.447C323.877 213.641 324.189 213.911 324.431 214.257C324.672 214.604 324.828 215.003 324.899 215.455H323.86C323.763 215.062 323.575 214.737 323.297 214.479C323.019 214.22 322.649 214.091 322.189 214.091C321.513 214.091 320.98 214.385 320.591 214.973C320.205 215.561 320.01 216.386 320.007 217.449H320.075C320.235 217.207 320.423 217.001 320.642 216.831C320.864 216.658 321.108 216.524 321.375 216.43C321.642 216.337 321.925 216.29 322.223 216.29C322.723 216.29 323.181 216.415 323.595 216.665C324.01 216.912 324.343 217.254 324.593 217.692C324.843 218.126 324.968 218.625 324.968 219.188C324.968 219.727 324.847 220.222 324.605 220.67C324.364 221.116 324.024 221.472 323.587 221.736C323.152 221.997 322.641 222.125 322.053 222.119ZM322.053 221.182C322.411 221.182 322.732 221.092 323.016 220.913C323.303 220.734 323.529 220.494 323.693 220.193C323.861 219.892 323.945 219.557 323.945 219.188C323.945 218.827 323.864 218.499 323.702 218.203C323.543 217.905 323.323 217.668 323.041 217.491C322.763 217.315 322.445 217.227 322.087 217.227C321.817 217.227 321.566 217.281 321.333 217.389C321.1 217.494 320.895 217.639 320.719 217.824C320.546 218.009 320.409 218.22 320.31 218.459C320.21 218.695 320.161 218.943 320.161 219.205C320.161 219.551 320.242 219.875 320.404 220.176C320.568 220.477 320.793 220.72 321.077 220.905C321.364 221.089 321.689 221.182 322.053 221.182Z" fill="black"/>
<path d="M302 198V197.5H301.5V198H302ZM342 198H342.5V197.5H342V198ZM342 238V238.5H342.5V238H342ZM302 238H301.5V238.5H302V238ZM302 198.5H342V197.5H302V198.5ZM341.5 198V238H342.5V198H341.5ZM342 237.5H302V238.5H342V237.5ZM302.5 238V198H301.5V238H302.5Z" fill="#DFDFDF"/>
<path d="M359.752 222L363.655 214.278V214.21H359.155V213.273H364.746V214.261L360.86 222H359.752Z" fill="black"/>
<path d="M342 198V197.5H341.5V198H342ZM382 198H382.5V197.5H382V198ZM382 238V238.5H382.5V238H382ZM342 238H341.5V238.5H342V238ZM342 198.5H382V197.5H342V198.5ZM381.5 198V238H382.5V198H381.5ZM382 237.5H342V238.5H382V237.5ZM342.5 238V198H341.5V238H342.5Z" fill="#DFDFDF"/>
<path d="M122.002 262.119C121.416 262.119 120.899 262.016 120.45 261.808C120.004 261.598 119.656 261.31 119.406 260.943C119.156 260.574 119.033 260.153 119.036 259.682C119.033 259.312 119.105 258.972 119.253 258.659C119.401 258.344 119.602 258.081 119.858 257.871C120.117 257.658 120.405 257.523 120.723 257.466V257.415C120.306 257.307 119.973 257.072 119.726 256.712C119.479 256.348 119.357 255.935 119.36 255.472C119.357 255.028 119.469 254.632 119.696 254.283C119.923 253.933 120.236 253.658 120.634 253.456C121.034 253.254 121.49 253.153 122.002 253.153C122.507 253.153 122.959 253.254 123.357 253.456C123.754 253.658 124.067 253.933 124.294 254.283C124.524 254.632 124.641 255.028 124.644 255.472C124.641 255.935 124.514 256.348 124.264 256.712C124.017 257.072 123.689 257.307 123.28 257.415V257.466C123.595 257.523 123.879 257.658 124.132 257.871C124.385 258.081 124.587 258.344 124.737 258.659C124.888 258.972 124.965 259.312 124.968 259.682C124.965 260.153 124.837 260.574 124.584 260.943C124.334 261.31 123.986 261.598 123.54 261.808C123.097 262.016 122.584 262.119 122.002 262.119ZM122.002 261.182C122.396 261.182 122.737 261.118 123.024 260.99C123.311 260.862 123.533 260.682 123.689 260.449C123.845 260.216 123.925 259.943 123.928 259.631C123.925 259.301 123.84 259.01 123.672 258.757C123.504 258.504 123.276 258.305 122.986 258.161C122.699 258.016 122.371 257.943 122.002 257.943C121.629 257.943 121.297 258.016 121.004 258.161C120.715 258.305 120.486 258.504 120.318 258.757C120.154 259.01 120.073 259.301 120.075 259.631C120.073 259.943 120.148 260.216 120.301 260.449C120.458 260.682 120.681 260.862 120.97 260.99C121.26 261.118 121.604 261.182 122.002 261.182ZM122.002 257.04C122.314 257.04 122.591 256.977 122.833 256.852C123.077 256.727 123.269 256.553 123.408 256.328C123.547 256.104 123.618 255.841 123.621 255.54C123.618 255.244 123.548 254.987 123.412 254.768C123.276 254.547 123.087 254.376 122.845 254.257C122.604 254.135 122.323 254.074 122.002 254.074C121.675 254.074 121.389 254.135 121.145 254.257C120.901 254.376 120.712 254.547 120.578 254.768C120.445 254.987 120.379 255.244 120.382 255.54C120.379 255.841 120.446 256.104 120.583 256.328C120.722 256.553 120.914 256.727 121.158 256.852C121.402 256.977 121.683 257.04 122.002 257.04Z" fill="black"/>
<path d="M102 238V237.5H101.5V238H102ZM142 238H142.5V237.5H142V238ZM142 278V278.5H142.5V278H142ZM102 278H101.5V278.5H102V278ZM102 238.5H142V237.5H102V238.5ZM141.5 238V278H142.5V238H141.5ZM142 277.5H102V278.5H142V277.5ZM102.5 278V238H101.5V278H102.5Z" fill="#DFDFDF"/>
<path d="M161.933 253.153C162.291 253.156 162.649 253.224 163.007 253.358C163.365 253.491 163.692 253.713 163.987 254.023C164.283 254.33 164.52 254.749 164.699 255.28C164.878 255.811 164.968 256.477 164.968 257.278C164.968 258.054 164.894 258.743 164.746 259.345C164.601 259.945 164.391 260.45 164.115 260.862C163.843 261.274 163.51 261.587 163.118 261.8C162.729 262.013 162.289 262.119 161.797 262.119C161.308 262.119 160.872 262.023 160.489 261.83C160.108 261.634 159.796 261.362 159.551 261.016C159.31 260.666 159.155 260.261 159.087 259.801H160.127C160.22 260.202 160.406 260.533 160.685 260.794C160.966 261.053 161.337 261.182 161.797 261.182C162.47 261.182 163.002 260.888 163.391 260.3C163.783 259.712 163.979 258.881 163.979 257.807H163.911C163.752 258.045 163.563 258.251 163.344 258.425C163.125 258.598 162.882 258.732 162.615 258.825C162.348 258.919 162.064 258.966 161.763 258.966C161.263 258.966 160.804 258.842 160.387 258.595C159.972 258.345 159.639 258.003 159.389 257.568C159.142 257.131 159.019 256.631 159.019 256.068C159.019 255.534 159.138 255.045 159.377 254.602C159.618 254.156 159.956 253.801 160.391 253.537C160.828 253.273 161.343 253.145 161.933 253.153ZM161.933 254.091C161.575 254.091 161.253 254.18 160.966 254.359C160.682 254.536 160.456 254.774 160.289 255.075C160.124 255.374 160.041 255.705 160.041 256.068C160.041 256.432 160.121 256.763 160.28 257.061C160.442 257.357 160.662 257.592 160.941 257.768C161.222 257.942 161.541 258.028 161.899 258.028C162.169 258.028 162.421 257.976 162.654 257.871C162.887 257.763 163.09 257.616 163.263 257.432C163.439 257.244 163.577 257.033 163.676 256.797C163.776 256.558 163.825 256.31 163.825 256.051C163.825 255.71 163.743 255.391 163.578 255.092C163.416 254.794 163.192 254.553 162.905 254.368C162.621 254.183 162.297 254.091 161.933 254.091Z" fill="black"/>
<path d="M142 238V237.5H141.5V238H142ZM182 238H182.5V237.5H182V238ZM182 278V278.5H182.5V278H182ZM142 278H141.5V278.5H142V278ZM142 238.5H182V237.5H142V238.5ZM181.5 238V278H182.5V238H181.5ZM182 277.5H142V278.5H182V277.5ZM142.5 278V238H141.5V278H142.5Z" fill="#DFDFDF"/>
<path d="M199.293 253.273V262H198.236V254.381H198.185L196.054 255.795V254.722L198.236 253.273H199.293ZM205.886 262.119C205.244 262.119 204.697 261.945 204.246 261.595C203.794 261.243 203.449 260.733 203.21 260.065C202.972 259.395 202.852 258.585 202.852 257.636C202.852 256.693 202.972 255.888 203.21 255.22C203.452 254.55 203.798 254.038 204.25 253.686C204.705 253.331 205.25 253.153 205.886 253.153C206.523 253.153 207.067 253.331 207.518 253.686C207.973 254.038 208.32 254.55 208.558 255.22C208.8 255.888 208.92 256.693 208.92 257.636C208.92 258.585 208.801 259.395 208.562 260.065C208.324 260.733 207.979 261.243 207.527 261.595C207.075 261.945 206.528 262.119 205.886 262.119ZM205.886 261.182C206.523 261.182 207.017 260.875 207.369 260.261C207.722 259.648 207.898 258.773 207.898 257.636C207.898 256.881 207.817 256.237 207.655 255.706C207.496 255.175 207.266 254.77 206.964 254.491C206.666 254.213 206.307 254.074 205.886 254.074C205.256 254.074 204.763 254.385 204.408 255.007C204.053 255.626 203.875 256.503 203.875 257.636C203.875 258.392 203.955 259.034 204.114 259.562C204.273 260.091 204.501 260.493 204.8 260.768C205.101 261.044 205.463 261.182 205.886 261.182Z" fill="black"/>
<path d="M182 238V237.5H181.5V238H182ZM222 238H222.5V237.5H222V238ZM222 278V278.5H222.5V278H222ZM182 278H181.5V278.5H182V278ZM182 238.5H222V237.5H182V238.5ZM221.5 238V278H222.5V238H221.5ZM222 277.5H182V278.5H222V277.5ZM182.5 278V238H181.5V278H182.5Z" fill="#DFDFDF"/>
<path d="M239.293 253.273V262H238.236V254.381H238.185L236.054 255.795V254.722L238.236 253.273H239.293ZM247.062 253.273V262H246.006V254.381H245.955L243.824 255.795V254.722L246.006 253.273H247.062Z" fill="black"/>
<path d="M222 238V237.5H221.5V238H222ZM262 238H262.5V237.5H262V238ZM262 278V278.5H262.5V278H262ZM222 278H221.5V278.5H222V278ZM222 238.5H262V237.5H222V238.5ZM261.5 238V278H262.5V238H261.5ZM262 277.5H222V278.5H262V277.5ZM222.5 278V238H221.5V278H222.5Z" fill="#DFDFDF"/>
<path d="M279.293 253.273V262H278.236V254.381H278.185L276.054 255.795V254.722L278.236 253.273H279.293ZM283.159 262V261.233L286.04 258.08C286.378 257.71 286.656 257.389 286.875 257.116C287.094 256.841 287.256 256.582 287.361 256.341C287.469 256.097 287.523 255.841 287.523 255.574C287.523 255.267 287.449 255.001 287.301 254.777C287.156 254.553 286.957 254.379 286.705 254.257C286.452 254.135 286.168 254.074 285.852 254.074C285.517 254.074 285.224 254.143 284.974 254.283C284.727 254.419 284.536 254.611 284.399 254.858C284.266 255.105 284.199 255.395 284.199 255.727H283.193C283.193 255.216 283.311 254.767 283.547 254.381C283.783 253.994 284.104 253.693 284.51 253.477C284.919 253.261 285.378 253.153 285.886 253.153C286.398 253.153 286.851 253.261 287.246 253.477C287.641 253.693 287.95 253.984 288.175 254.351C288.399 254.717 288.511 255.125 288.511 255.574C288.511 255.895 288.453 256.209 288.337 256.516C288.223 256.82 288.024 257.159 287.74 257.534C287.459 257.906 287.068 258.361 286.568 258.898L284.608 260.994V261.062H288.665V262H283.159Z" fill="black"/>
<path d="M262 238V237.5H261.5V238H262ZM302 238H302.5V237.5H302V238ZM302 278V278.5H302.5V278H302ZM262 278H261.5V278.5H262V278ZM262 238.5H302V237.5H262V238.5ZM301.5 238V278H302.5V238H301.5ZM302 277.5H262V278.5H302V277.5ZM262.5 278V238H261.5V278H262.5Z" fill="#DFDFDF"/>
<path d="M319.293 253.273V262H318.236V254.381H318.185L316.054 255.795V254.722L318.236 253.273H319.293ZM325.92 262.119C325.358 262.119 324.857 262.023 324.416 261.83C323.979 261.636 323.631 261.368 323.372 261.024C323.116 260.678 322.977 260.276 322.955 259.818H324.028C324.051 260.099 324.148 260.342 324.318 260.547C324.489 260.749 324.712 260.905 324.987 261.016C325.263 261.126 325.568 261.182 325.903 261.182C326.278 261.182 326.611 261.116 326.901 260.986C327.19 260.855 327.418 260.673 327.582 260.44C327.747 260.207 327.83 259.938 327.83 259.631C327.83 259.31 327.75 259.027 327.591 258.783C327.432 258.536 327.199 258.342 326.892 258.203C326.585 258.064 326.21 257.994 325.767 257.994H325.068V257.057H325.767C326.114 257.057 326.418 256.994 326.679 256.869C326.943 256.744 327.149 256.568 327.297 256.341C327.447 256.114 327.523 255.847 327.523 255.54C327.523 255.244 327.457 254.987 327.327 254.768C327.196 254.55 327.011 254.379 326.773 254.257C326.537 254.135 326.259 254.074 325.938 254.074C325.636 254.074 325.352 254.129 325.085 254.24C324.821 254.348 324.605 254.506 324.438 254.713C324.27 254.918 324.179 255.165 324.165 255.455H323.142C323.159 254.997 323.297 254.597 323.555 254.253C323.814 253.906 324.152 253.636 324.57 253.443C324.99 253.25 325.452 253.153 325.955 253.153C326.494 253.153 326.957 253.263 327.344 253.482C327.73 253.697 328.027 253.983 328.234 254.338C328.442 254.693 328.545 255.077 328.545 255.489C328.545 255.98 328.416 256.399 328.158 256.746C327.902 257.092 327.554 257.332 327.114 257.466V257.534C327.665 257.625 328.095 257.859 328.405 258.237C328.714 258.612 328.869 259.077 328.869 259.631C328.869 260.105 328.74 260.531 328.482 260.909C328.226 261.284 327.876 261.58 327.433 261.795C326.99 262.011 326.486 262.119 325.92 262.119Z" fill="black"/>
<path d="M302 238V237.5H301.5V238H302ZM342 238H342.5V237.5H342V238ZM342 278V278.5H342.5V278H342ZM302 278H301.5V278.5H302V278ZM302 238.5H342V237.5H302V238.5ZM341.5 238V278H342.5V238H341.5ZM342 277.5H302V278.5H342V277.5ZM302.5 278V238H301.5V278H302.5Z" fill="#DFDFDF"/>
<path d="M359.293 253.273V262H358.236V254.381H358.185L356.054 255.795V254.722L358.236 253.273H359.293ZM362.699 260.21V259.341L366.534 253.273H367.165V254.619H366.739L363.841 259.205V259.273H369.006V260.21H362.699ZM366.807 262V259.946V259.541V253.273H367.812V262H366.807Z" fill="black"/>
<path d="M342 238V237.5H341.5V238H342ZM382 238H382.5V237.5H382V238ZM382 278V278.5H382.5V278H382ZM342 278H341.5V278.5H342V278ZM342 238.5H382V237.5H342V238.5ZM381.5 238V278H382.5V238H381.5ZM382 277.5H342V278.5H382V277.5ZM342.5 278V238H341.5V278H342.5Z" fill="#DFDFDF"/>
<path d="M119.293 293.273V302H118.236V294.381H118.185L116.054 295.795V294.722L118.236 293.273H119.293ZM125.852 302.119C125.352 302.119 124.902 302.02 124.501 301.821C124.101 301.622 123.78 301.349 123.538 301.003C123.297 300.656 123.165 300.261 123.142 299.818H124.165C124.205 300.213 124.384 300.54 124.702 300.798C125.023 301.054 125.406 301.182 125.852 301.182C126.21 301.182 126.528 301.098 126.807 300.93C127.088 300.763 127.308 300.533 127.467 300.24C127.629 299.945 127.71 299.611 127.71 299.239C127.71 298.858 127.626 298.518 127.459 298.22C127.294 297.919 127.067 297.682 126.777 297.509C126.487 297.335 126.156 297.247 125.784 297.244C125.517 297.241 125.243 297.283 124.962 297.368C124.68 297.45 124.449 297.557 124.267 297.688L123.278 297.568L123.807 293.273H128.341V294.21H124.693L124.386 296.784H124.438C124.616 296.642 124.841 296.524 125.111 296.43C125.381 296.337 125.662 296.29 125.955 296.29C126.489 296.29 126.964 296.418 127.382 296.673C127.803 296.926 128.132 297.273 128.371 297.713C128.612 298.153 128.733 298.656 128.733 299.222C128.733 299.778 128.608 300.276 128.358 300.713C128.111 301.148 127.77 301.491 127.335 301.744C126.901 301.994 126.406 302.119 125.852 302.119Z" fill="black"/>
<path d="M102 278V277.5H101.5V278H102ZM142 278H142.5V277.5H142V278ZM142 318V318.5H142.5V318H142ZM102 318H101.5V318.5H102V318ZM102 278.5H142V277.5H102V278.5ZM141.5 278V318H142.5V278H141.5ZM142 317.5H102V318.5H142V317.5ZM102.5 318V278H101.5V318H102.5Z" fill="#DFDFDF"/>
<path d="M159.293 293.273V302H158.236V294.381H158.185L156.054 295.795V294.722L158.236 293.273H159.293ZM165.938 302.119C165.58 302.114 165.222 302.045 164.864 301.915C164.506 301.784 164.179 301.564 163.884 301.254C163.588 300.942 163.351 300.52 163.172 299.989C162.993 299.455 162.903 298.784 162.903 297.977C162.903 297.205 162.976 296.52 163.121 295.923C163.266 295.324 163.476 294.82 163.751 294.411C164.027 293.999 164.359 293.686 164.749 293.473C165.141 293.26 165.582 293.153 166.074 293.153C166.563 293.153 166.997 293.251 167.378 293.447C167.761 293.641 168.074 293.911 168.315 294.257C168.557 294.604 168.713 295.003 168.784 295.455H167.744C167.648 295.062 167.46 294.737 167.182 294.479C166.903 294.22 166.534 294.091 166.074 294.091C165.398 294.091 164.865 294.385 164.476 294.973C164.089 295.561 163.895 296.386 163.892 297.449H163.96C164.119 297.207 164.308 297.001 164.527 296.831C164.749 296.658 164.993 296.524 165.26 296.43C165.527 296.337 165.81 296.29 166.108 296.29C166.608 296.29 167.065 296.415 167.48 296.665C167.895 296.912 168.227 297.254 168.477 297.692C168.727 298.126 168.852 298.625 168.852 299.188C168.852 299.727 168.732 300.222 168.49 300.67C168.249 301.116 167.909 301.472 167.472 301.736C167.037 301.997 166.526 302.125 165.938 302.119ZM165.938 301.182C166.295 301.182 166.616 301.092 166.901 300.913C167.188 300.734 167.413 300.494 167.578 300.193C167.746 299.892 167.83 299.557 167.83 299.188C167.83 298.827 167.749 298.499 167.587 298.203C167.428 297.905 167.207 297.668 166.926 297.491C166.648 297.315 166.33 297.227 165.972 297.227C165.702 297.227 165.45 297.281 165.217 297.389C164.984 297.494 164.78 297.639 164.604 297.824C164.43 298.009 164.294 298.22 164.195 298.459C164.095 298.695 164.045 298.943 164.045 299.205C164.045 299.551 164.126 299.875 164.288 300.176C164.453 300.477 164.678 300.72 164.962 300.905C165.249 301.089 165.574 301.182 165.938 301.182Z" fill="black"/>
<path d="M142 278V277.5H141.5V278H142ZM182 278H182.5V277.5H182V278ZM182 318V318.5H182.5V318H182ZM142 318H141.5V318.5H142V318ZM142 278.5H182V277.5H142V278.5ZM181.5 278V318H182.5V278H181.5ZM182 317.5H142V318.5H182V317.5ZM142.5 318V278H141.5V318H142.5Z" fill="#DFDFDF"/>
<path d="M199.293 293.273V302H198.236V294.381H198.185L196.054 295.795V294.722L198.236 293.273H199.293ZM203.636 302L207.54 294.278V294.21H203.04V293.273H208.631V294.261L204.744 302H203.636Z" fill="black"/>
<path d="M182 278V277.5H181.5V278H182ZM222 278H222.5V277.5H222V278ZM222 318V318.5H222.5V318H222ZM182 318H181.5V318.5H182V318ZM182 278.5H222V277.5H182V278.5ZM221.5 278V318H222.5V278H221.5ZM222 317.5H182V318.5H222V317.5ZM182.5 318V278H181.5V318H182.5Z" fill="#DFDFDF"/>
<path d="M222 278H262V318H222V278Z" fill="#00B4A9"/>
<path d="M239.468 293.273V302H237.887V294.811H237.836L235.794 296.115V294.666L237.963 293.273H239.468ZM246.023 302.119C245.389 302.119 244.827 302.013 244.335 301.8C243.847 301.587 243.463 301.295 243.185 300.926C242.909 300.554 242.773 300.132 242.776 299.661C242.773 299.294 242.852 298.957 243.014 298.651C243.176 298.344 243.395 298.088 243.67 297.884C243.949 297.676 244.259 297.544 244.599 297.487V297.428C244.151 297.328 243.787 297.099 243.509 296.741C243.233 296.381 243.097 295.964 243.099 295.493C243.097 295.044 243.222 294.643 243.474 294.291C243.727 293.939 244.074 293.662 244.514 293.46C244.955 293.256 245.457 293.153 246.023 293.153C246.582 293.153 247.081 293.256 247.518 293.46C247.959 293.662 248.305 293.939 248.558 294.291C248.814 294.643 248.942 295.044 248.942 295.493C248.942 295.964 248.801 296.381 248.52 296.741C248.241 297.099 247.882 297.328 247.442 297.428V297.487C247.783 297.544 248.089 297.676 248.362 297.884C248.638 298.088 248.857 298.344 249.018 298.651C249.183 298.957 249.266 299.294 249.266 299.661C249.266 300.132 249.126 300.554 248.848 300.926C248.57 301.295 248.186 301.587 247.697 301.8C247.212 302.013 246.653 302.119 246.023 302.119ZM246.023 300.901C246.349 300.901 246.634 300.845 246.875 300.734C247.116 300.621 247.304 300.462 247.438 300.257C247.571 300.053 247.639 299.817 247.642 299.55C247.639 299.271 247.567 299.026 247.425 298.812C247.286 298.597 247.094 298.428 246.849 298.305C246.608 298.183 246.332 298.122 246.023 298.122C245.71 298.122 245.432 298.183 245.188 298.305C244.943 298.428 244.75 298.597 244.608 298.812C244.469 299.026 244.401 299.271 244.403 299.55C244.401 299.817 244.466 300.053 244.599 300.257C244.733 300.459 244.92 300.616 245.162 300.73C245.406 300.844 245.693 300.901 246.023 300.901ZM246.023 296.925C246.29 296.925 246.526 296.871 246.73 296.763C246.938 296.655 247.101 296.504 247.22 296.311C247.339 296.118 247.401 295.895 247.403 295.642C247.401 295.392 247.341 295.173 247.224 294.986C247.108 294.795 246.946 294.649 246.739 294.547C246.531 294.442 246.293 294.389 246.023 294.389C245.747 294.389 245.504 294.442 245.294 294.547C245.087 294.649 244.925 294.795 244.808 294.986C244.695 295.173 244.639 295.392 244.642 295.642C244.639 295.895 244.696 296.118 244.812 296.311C244.932 296.501 245.095 296.652 245.303 296.763C245.513 296.871 245.753 296.925 246.023 296.925Z" fill="white"/>
<path d="M222 278V277.5H221.5V278H222ZM262 278H262.5V277.5H262V278ZM262 318V318.5H262.5V318H262ZM222 318H221.5V318.5H222V318ZM222 278.5H262V277.5H222V278.5ZM261.5 278V318H262.5V278H261.5ZM262 317.5H222V318.5H262V317.5ZM222.5 318V278H221.5V318H222.5Z" fill="#DFDFDF"/>
<path d="M279.293 293.273V302H278.236V294.381H278.185L276.054 295.795V294.722L278.236 293.273H279.293ZM285.818 293.153C286.176 293.156 286.534 293.224 286.892 293.358C287.25 293.491 287.577 293.713 287.872 294.023C288.168 294.33 288.405 294.749 288.584 295.28C288.763 295.811 288.852 296.477 288.852 297.278C288.852 298.054 288.778 298.743 288.631 299.345C288.486 299.945 288.276 300.45 288 300.862C287.727 301.274 287.395 301.587 287.003 301.8C286.614 302.013 286.173 302.119 285.682 302.119C285.193 302.119 284.757 302.023 284.374 301.83C283.993 301.634 283.68 301.362 283.436 301.016C283.195 300.666 283.04 300.261 282.972 299.801H284.011C284.105 300.202 284.291 300.533 284.57 300.794C284.851 301.053 285.222 301.182 285.682 301.182C286.355 301.182 286.886 300.888 287.276 300.3C287.668 299.712 287.864 298.881 287.864 297.807H287.795C287.636 298.045 287.447 298.251 287.229 298.425C287.01 298.598 286.767 298.732 286.5 298.825C286.233 298.919 285.949 298.966 285.648 298.966C285.148 298.966 284.689 298.842 284.271 298.595C283.857 298.345 283.524 298.003 283.274 297.568C283.027 297.131 282.903 296.631 282.903 296.068C282.903 295.534 283.023 295.045 283.261 294.602C283.503 294.156 283.841 293.801 284.276 293.537C284.713 293.273 285.227 293.145 285.818 293.153ZM285.818 294.091C285.46 294.091 285.138 294.18 284.851 294.359C284.567 294.536 284.341 294.774 284.173 295.075C284.009 295.374 283.926 295.705 283.926 296.068C283.926 296.432 284.006 296.763 284.165 297.061C284.327 297.357 284.547 297.592 284.825 297.768C285.107 297.942 285.426 298.028 285.784 298.028C286.054 298.028 286.305 297.976 286.538 297.871C286.771 297.763 286.974 297.616 287.148 297.432C287.324 297.244 287.462 297.033 287.561 296.797C287.661 296.558 287.71 296.31 287.71 296.051C287.71 295.71 287.628 295.391 287.463 295.092C287.301 294.794 287.077 294.553 286.79 294.368C286.506 294.183 286.182 294.091 285.818 294.091Z" fill="black"/>
<path d="M262 278V277.5H261.5V278H262ZM302 278H302.5V277.5H302V278ZM302 318V318.5H302.5V318H302ZM262 318H261.5V318.5H262V318ZM262 278.5H302V277.5H262V278.5ZM301.5 278V318H302.5V278H301.5ZM302 317.5H262V318.5H302V317.5ZM262.5 318V278H261.5V318H262.5Z" fill="#DFDFDF"/>
<path d="M315.39 302V301.233L318.27 298.08C318.608 297.71 318.887 297.389 319.105 297.116C319.324 296.841 319.486 296.582 319.591 296.341C319.699 296.097 319.753 295.841 319.753 295.574C319.753 295.267 319.679 295.001 319.532 294.777C319.387 294.553 319.188 294.379 318.935 294.257C318.682 294.135 318.398 294.074 318.083 294.074C317.748 294.074 317.455 294.143 317.205 294.283C316.958 294.419 316.766 294.611 316.63 294.858C316.496 295.105 316.429 295.395 316.429 295.727H315.424C315.424 295.216 315.542 294.767 315.777 294.381C316.013 293.994 316.334 293.693 316.74 293.477C317.15 293.261 317.608 293.153 318.117 293.153C318.628 293.153 319.081 293.261 319.476 293.477C319.871 293.693 320.181 293.984 320.405 294.351C320.63 294.717 320.742 295.125 320.742 295.574C320.742 295.895 320.684 296.209 320.567 296.516C320.453 296.82 320.255 297.159 319.971 297.534C319.689 297.906 319.299 298.361 318.799 298.898L316.838 300.994V301.062H320.895V302H315.39ZM325.886 302.119C325.244 302.119 324.697 301.945 324.246 301.595C323.794 301.243 323.449 300.733 323.21 300.065C322.972 299.395 322.852 298.585 322.852 297.636C322.852 296.693 322.972 295.888 323.21 295.22C323.452 294.55 323.798 294.038 324.25 293.686C324.705 293.331 325.25 293.153 325.886 293.153C326.523 293.153 327.067 293.331 327.518 293.686C327.973 294.038 328.32 294.55 328.558 295.22C328.8 295.888 328.92 296.693 328.92 297.636C328.92 298.585 328.801 299.395 328.562 300.065C328.324 300.733 327.979 301.243 327.527 301.595C327.075 301.945 326.528 302.119 325.886 302.119ZM325.886 301.182C326.523 301.182 327.017 300.875 327.369 300.261C327.722 299.648 327.898 298.773 327.898 297.636C327.898 296.881 327.817 296.237 327.655 295.706C327.496 295.175 327.266 294.77 326.964 294.491C326.666 294.213 326.307 294.074 325.886 294.074C325.256 294.074 324.763 294.385 324.408 295.007C324.053 295.626 323.875 296.503 323.875 297.636C323.875 298.392 323.955 299.034 324.114 299.562C324.273 300.091 324.501 300.493 324.8 300.768C325.101 301.044 325.463 301.182 325.886 301.182Z" fill="black"/>
<path d="M302 278V277.5H301.5V278H302ZM342 278H342.5V277.5H342V278ZM342 318V318.5H342.5V318H342ZM302 318H301.5V318.5H302V318ZM302 278.5H342V277.5H302V278.5ZM341.5 278V318H342.5V278H341.5ZM342 317.5H302V318.5H342V317.5ZM302.5 318V278H301.5V318H302.5Z" fill="#DFDFDF"/>
<path d="M355.39 302V301.233L358.27 298.08C358.608 297.71 358.887 297.389 359.105 297.116C359.324 296.841 359.486 296.582 359.591 296.341C359.699 296.097 359.753 295.841 359.753 295.574C359.753 295.267 359.679 295.001 359.532 294.777C359.387 294.553 359.188 294.379 358.935 294.257C358.682 294.135 358.398 294.074 358.083 294.074C357.748 294.074 357.455 294.143 357.205 294.283C356.958 294.419 356.766 294.611 356.63 294.858C356.496 295.105 356.429 295.395 356.429 295.727H355.424C355.424 295.216 355.542 294.767 355.777 294.381C356.013 293.994 356.334 293.693 356.74 293.477C357.15 293.261 357.608 293.153 358.117 293.153C358.628 293.153 359.081 293.261 359.476 293.477C359.871 293.693 360.181 293.984 360.405 294.351C360.63 294.717 360.742 295.125 360.742 295.574C360.742 295.895 360.684 296.209 360.567 296.516C360.453 296.82 360.255 297.159 359.971 297.534C359.689 297.906 359.299 298.361 358.799 298.898L356.838 300.994V301.062H360.895V302H355.39ZM367.062 293.273V302H366.006V294.381H365.955L363.824 295.795V294.722L366.006 293.273H367.062Z" fill="black"/>
<path d="M342 278V277.5H341.5V278H342ZM382 278H382.5V277.5H382V278ZM382 318V318.5H382.5V318H382ZM342 318H341.5V318.5H342V318ZM342 278.5H382V277.5H342V278.5ZM381.5 278V318H382.5V278H381.5ZM382 317.5H342V318.5H382V317.5ZM342.5 318V278H341.5V318H342.5Z" fill="#DFDFDF"/>
<path d="M115.39 342V341.233L118.27 338.08C118.608 337.71 118.887 337.389 119.105 337.116C119.324 336.841 119.486 336.582 119.591 336.341C119.699 336.097 119.753 335.841 119.753 335.574C119.753 335.267 119.679 335.001 119.532 334.777C119.387 334.553 119.188 334.379 118.935 334.257C118.682 334.135 118.398 334.074 118.083 334.074C117.748 334.074 117.455 334.143 117.205 334.283C116.958 334.419 116.766 334.611 116.63 334.858C116.496 335.105 116.429 335.395 116.429 335.727H115.424C115.424 335.216 115.542 334.767 115.777 334.381C116.013 333.994 116.334 333.693 116.74 333.477C117.15 333.261 117.608 333.153 118.117 333.153C118.628 333.153 119.081 333.261 119.476 333.477C119.871 333.693 120.181 333.984 120.405 334.351C120.63 334.717 120.742 335.125 120.742 335.574C120.742 335.895 120.684 336.209 120.567 336.516C120.453 336.82 120.255 337.159 119.971 337.534C119.689 337.906 119.299 338.361 118.799 338.898L116.838 340.994V341.062H120.895V342H115.39ZM123.159 342V341.233L126.04 338.08C126.378 337.71 126.656 337.389 126.875 337.116C127.094 336.841 127.256 336.582 127.361 336.341C127.469 336.097 127.523 335.841 127.523 335.574C127.523 335.267 127.449 335.001 127.301 334.777C127.156 334.553 126.957 334.379 126.705 334.257C126.452 334.135 126.168 334.074 125.852 334.074C125.517 334.074 125.224 334.143 124.974 334.283C124.727 334.419 124.536 334.611 124.399 334.858C124.266 335.105 124.199 335.395 124.199 335.727H123.193C123.193 335.216 123.311 334.767 123.547 334.381C123.783 333.994 124.104 333.693 124.51 333.477C124.919 333.261 125.378 333.153 125.886 333.153C126.398 333.153 126.851 333.261 127.246 333.477C127.641 333.693 127.95 333.984 128.175 334.351C128.399 334.717 128.511 335.125 128.511 335.574C128.511 335.895 128.453 336.209 128.337 336.516C128.223 336.82 128.024 337.159 127.74 337.534C127.459 337.906 127.068 338.361 126.568 338.898L124.608 340.994V341.062H128.665V342H123.159Z" fill="black"/>
<path d="M102 318V317.5H101.5V318H102ZM142 318H142.5V317.5H142V318ZM142 358V358.5H142.5V358H142ZM102 358H101.5V358.5H102V358ZM102 318.5H142V317.5H102V318.5ZM141.5 318V358H142.5V318H141.5ZM142 357.5H102V358.5H142V357.5ZM102.5 358V318H101.5V358H102.5Z" fill="#DFDFDF"/>
<path d="M155.39 342V341.233L158.27 338.08C158.608 337.71 158.887 337.389 159.105 337.116C159.324 336.841 159.486 336.582 159.591 336.341C159.699 336.097 159.753 335.841 159.753 335.574C159.753 335.267 159.679 335.001 159.532 334.777C159.387 334.553 159.188 334.379 158.935 334.257C158.682 334.135 158.398 334.074 158.083 334.074C157.748 334.074 157.455 334.143 157.205 334.283C156.958 334.419 156.766 334.611 156.63 334.858C156.496 335.105 156.429 335.395 156.429 335.727H155.424C155.424 335.216 155.542 334.767 155.777 334.381C156.013 333.994 156.334 333.693 156.74 333.477C157.15 333.261 157.608 333.153 158.117 333.153C158.628 333.153 159.081 333.261 159.476 333.477C159.871 333.693 160.181 333.984 160.405 334.351C160.63 334.717 160.742 335.125 160.742 335.574C160.742 335.895 160.684 336.209 160.567 336.516C160.453 336.82 160.255 337.159 159.971 337.534C159.689 337.906 159.299 338.361 158.799 338.898L156.838 340.994V341.062H160.895V342H155.39ZM165.92 342.119C165.358 342.119 164.857 342.023 164.416 341.83C163.979 341.636 163.631 341.368 163.372 341.024C163.116 340.678 162.977 340.276 162.955 339.818H164.028C164.051 340.099 164.148 340.342 164.318 340.547C164.489 340.749 164.712 340.905 164.987 341.016C165.263 341.126 165.568 341.182 165.903 341.182C166.278 341.182 166.611 341.116 166.901 340.986C167.19 340.855 167.418 340.673 167.582 340.44C167.747 340.207 167.83 339.938 167.83 339.631C167.83 339.31 167.75 339.027 167.591 338.783C167.432 338.536 167.199 338.342 166.892 338.203C166.585 338.064 166.21 337.994 165.767 337.994H165.068V337.057H165.767C166.114 337.057 166.418 336.994 166.679 336.869C166.943 336.744 167.149 336.568 167.297 336.341C167.447 336.114 167.523 335.847 167.523 335.54C167.523 335.244 167.457 334.987 167.327 334.768C167.196 334.55 167.011 334.379 166.773 334.257C166.537 334.135 166.259 334.074 165.938 334.074C165.636 334.074 165.352 334.129 165.085 334.24C164.821 334.348 164.605 334.506 164.438 334.713C164.27 334.918 164.179 335.165 164.165 335.455H163.142C163.159 334.997 163.297 334.597 163.555 334.253C163.814 333.906 164.152 333.636 164.57 333.443C164.99 333.25 165.452 333.153 165.955 333.153C166.494 333.153 166.957 333.263 167.344 333.482C167.73 333.697 168.027 333.983 168.234 334.338C168.442 334.693 168.545 335.077 168.545 335.489C168.545 335.98 168.416 336.399 168.158 336.746C167.902 337.092 167.554 337.332 167.114 337.466V337.534C167.665 337.625 168.095 337.859 168.405 338.237C168.714 338.612 168.869 339.077 168.869 339.631C168.869 340.105 168.74 340.531 168.482 340.909C168.226 341.284 167.876 341.58 167.433 341.795C166.99 342.011 166.486 342.119 165.92 342.119Z" fill="black"/>
<path d="M142 318V317.5H141.5V318H142ZM182 318H182.5V317.5H182V318ZM182 358V358.5H182.5V358H182ZM142 358H141.5V358.5H142V358ZM142 318.5H182V317.5H142V318.5ZM181.5 318V358H182.5V318H181.5ZM182 357.5H142V358.5H182V357.5ZM142.5 358V318H141.5V358H142.5Z" fill="#DFDFDF"/>
<path d="M195.39 342V341.233L198.27 338.08C198.608 337.71 198.887 337.389 199.105 337.116C199.324 336.841 199.486 336.582 199.591 336.341C199.699 336.097 199.753 335.841 199.753 335.574C199.753 335.267 199.679 335.001 199.532 334.777C199.387 334.553 199.188 334.379 198.935 334.257C198.682 334.135 198.398 334.074 198.083 334.074C197.748 334.074 197.455 334.143 197.205 334.283C196.958 334.419 196.766 334.611 196.63 334.858C196.496 335.105 196.429 335.395 196.429 335.727H195.424C195.424 335.216 195.542 334.767 195.777 334.381C196.013 333.994 196.334 333.693 196.74 333.477C197.15 333.261 197.608 333.153 198.117 333.153C198.628 333.153 199.081 333.261 199.476 333.477C199.871 333.693 200.181 333.984 200.405 334.351C200.63 334.717 200.742 335.125 200.742 335.574C200.742 335.895 200.684 336.209 200.567 336.516C200.453 336.82 200.255 337.159 199.971 337.534C199.689 337.906 199.299 338.361 198.799 338.898L196.838 340.994V341.062H200.895V342H195.39ZM202.699 340.21V339.341L206.534 333.273H207.165V334.619H206.739L203.841 339.205V339.273H209.006V340.21H202.699ZM206.807 342V339.946V339.541V333.273H207.812V342H206.807Z" fill="black"/>
<path d="M182 318V317.5H181.5V318H182ZM222 318H222.5V317.5H222V318ZM222 358V358.5H222.5V358H222ZM182 358H181.5V358.5H182V358ZM182 318.5H222V317.5H182V318.5ZM221.5 318V358H222.5V318H221.5ZM222 357.5H182V358.5H222V357.5ZM182.5 358V318H181.5V358H182.5Z" fill="#DFDFDF"/>
<path d="M235.39 342V341.233L238.27 338.08C238.608 337.71 238.887 337.389 239.105 337.116C239.324 336.841 239.486 336.582 239.591 336.341C239.699 336.097 239.753 335.841 239.753 335.574C239.753 335.267 239.679 335.001 239.532 334.777C239.387 334.553 239.188 334.379 238.935 334.257C238.682 334.135 238.398 334.074 238.083 334.074C237.748 334.074 237.455 334.143 237.205 334.283C236.958 334.419 236.766 334.611 236.63 334.858C236.496 335.105 236.429 335.395 236.429 335.727H235.424C235.424 335.216 235.542 334.767 235.777 334.381C236.013 333.994 236.334 333.693 236.74 333.477C237.15 333.261 237.608 333.153 238.117 333.153C238.628 333.153 239.081 333.261 239.476 333.477C239.871 333.693 240.181 333.984 240.405 334.351C240.63 334.717 240.742 335.125 240.742 335.574C240.742 335.895 240.684 336.209 240.567 336.516C240.453 336.82 240.255 337.159 239.971 337.534C239.689 337.906 239.299 338.361 238.799 338.898L236.838 340.994V341.062H240.895V342H235.39ZM245.852 342.119C245.352 342.119 244.902 342.02 244.501 341.821C244.101 341.622 243.78 341.349 243.538 341.003C243.297 340.656 243.165 340.261 243.142 339.818H244.165C244.205 340.213 244.384 340.54 244.702 340.798C245.023 341.054 245.406 341.182 245.852 341.182C246.21 341.182 246.528 341.098 246.807 340.93C247.088 340.763 247.308 340.533 247.467 340.24C247.629 339.945 247.71 339.611 247.71 339.239C247.71 338.858 247.626 338.518 247.459 338.22C247.294 337.919 247.067 337.682 246.777 337.509C246.487 337.335 246.156 337.247 245.784 337.244C245.517 337.241 245.243 337.283 244.962 337.368C244.68 337.45 244.449 337.557 244.267 337.688L243.278 337.568L243.807 333.273H248.341V334.21H244.693L244.386 336.784H244.438C244.616 336.642 244.841 336.524 245.111 336.43C245.381 336.337 245.662 336.29 245.955 336.29C246.489 336.29 246.964 336.418 247.382 336.673C247.803 336.926 248.132 337.273 248.371 337.713C248.612 338.153 248.733 338.656 248.733 339.222C248.733 339.778 248.608 340.276 248.358 340.713C248.111 341.148 247.77 341.491 247.335 341.744C246.901 341.994 246.406 342.119 245.852 342.119Z" fill="black"/>
<path d="M222 318V317.5H221.5V318H222ZM262 318H262.5V317.5H262V318ZM262 358V358.5H262.5V358H262ZM222 358H221.5V358.5H222V358ZM222 318.5H262V317.5H222V318.5ZM261.5 318V358H262.5V318H261.5ZM262 357.5H222V358.5H262V357.5ZM222.5 358V318H221.5V358H222.5Z" fill="#DFDFDF"/>
<path d="M275.39 342V341.233L278.27 338.08C278.608 337.71 278.887 337.389 279.105 337.116C279.324 336.841 279.486 336.582 279.591 336.341C279.699 336.097 279.753 335.841 279.753 335.574C279.753 335.267 279.679 335.001 279.532 334.777C279.387 334.553 279.188 334.379 278.935 334.257C278.682 334.135 278.398 334.074 278.083 334.074C277.748 334.074 277.455 334.143 277.205 334.283C276.958 334.419 276.766 334.611 276.63 334.858C276.496 335.105 276.429 335.395 276.429 335.727H275.424C275.424 335.216 275.542 334.767 275.777 334.381C276.013 333.994 276.334 333.693 276.74 333.477C277.15 333.261 277.608 333.153 278.117 333.153C278.628 333.153 279.081 333.261 279.476 333.477C279.871 333.693 280.181 333.984 280.405 334.351C280.63 334.717 280.742 335.125 280.742 335.574C280.742 335.895 280.684 336.209 280.567 336.516C280.453 336.82 280.255 337.159 279.971 337.534C279.689 337.906 279.299 338.361 278.799 338.898L276.838 340.994V341.062H280.895V342H275.39ZM285.938 342.119C285.58 342.114 285.222 342.045 284.864 341.915C284.506 341.784 284.179 341.564 283.884 341.254C283.588 340.942 283.351 340.52 283.172 339.989C282.993 339.455 282.903 338.784 282.903 337.977C282.903 337.205 282.976 336.52 283.121 335.923C283.266 335.324 283.476 334.82 283.751 334.411C284.027 333.999 284.359 333.686 284.749 333.473C285.141 333.26 285.582 333.153 286.074 333.153C286.563 333.153 286.997 333.251 287.378 333.447C287.761 333.641 288.074 333.911 288.315 334.257C288.557 334.604 288.713 335.003 288.784 335.455H287.744C287.648 335.062 287.46 334.737 287.182 334.479C286.903 334.22 286.534 334.091 286.074 334.091C285.398 334.091 284.865 334.385 284.476 334.973C284.089 335.561 283.895 336.386 283.892 337.449H283.96C284.119 337.207 284.308 337.001 284.527 336.831C284.749 336.658 284.993 336.524 285.26 336.43C285.527 336.337 285.81 336.29 286.108 336.29C286.608 336.29 287.065 336.415 287.48 336.665C287.895 336.912 288.227 337.254 288.477 337.692C288.727 338.126 288.852 338.625 288.852 339.188C288.852 339.727 288.732 340.222 288.49 340.67C288.249 341.116 287.909 341.472 287.472 341.736C287.037 341.997 286.526 342.125 285.938 342.119ZM285.938 341.182C286.295 341.182 286.616 341.092 286.901 340.913C287.188 340.734 287.413 340.494 287.578 340.193C287.746 339.892 287.83 339.557 287.83 339.188C287.83 338.827 287.749 338.499 287.587 338.203C287.428 337.905 287.207 337.668 286.926 337.491C286.648 337.315 286.33 337.227 285.972 337.227C285.702 337.227 285.45 337.281 285.217 337.389C284.984 337.494 284.78 337.639 284.604 337.824C284.43 338.009 284.294 338.22 284.195 338.459C284.095 338.695 284.045 338.943 284.045 339.205C284.045 339.551 284.126 339.875 284.288 340.176C284.453 340.477 284.678 340.72 284.962 340.905C285.249 341.089 285.574 341.182 285.938 341.182Z" fill="black"/>
<path d="M262 318V317.5H261.5V318H262ZM302 318H302.5V317.5H302V318ZM302 358V358.5H302.5V358H302ZM262 358H261.5V358.5H262V358ZM262 318.5H302V317.5H262V318.5ZM301.5 318V358H302.5V318H301.5ZM302 357.5H262V358.5H302V357.5ZM262.5 358V318H261.5V358H262.5Z" fill="#DFDFDF"/>
<path d="M315.39 342V341.233L318.27 338.08C318.608 337.71 318.887 337.389 319.105 337.116C319.324 336.841 319.486 336.582 319.591 336.341C319.699 336.097 319.753 335.841 319.753 335.574C319.753 335.267 319.679 335.001 319.532 334.777C319.387 334.553 319.188 334.379 318.935 334.257C318.682 334.135 318.398 334.074 318.083 334.074C317.748 334.074 317.455 334.143 317.205 334.283C316.958 334.419 316.766 334.611 316.63 334.858C316.496 335.105 316.429 335.395 316.429 335.727H315.424C315.424 335.216 315.542 334.767 315.777 334.381C316.013 333.994 316.334 333.693 316.74 333.477C317.15 333.261 317.608 333.153 318.117 333.153C318.628 333.153 319.081 333.261 319.476 333.477C319.871 333.693 320.181 333.984 320.405 334.351C320.63 334.717 320.742 335.125 320.742 335.574C320.742 335.895 320.684 336.209 320.567 336.516C320.453 336.82 320.255 337.159 319.971 337.534C319.689 337.906 319.299 338.361 318.799 338.898L316.838 340.994V341.062H320.895V342H315.39ZM323.636 342L327.54 334.278V334.21H323.04V333.273H328.631V334.261L324.744 342H323.636Z" fill="black"/>
<path d="M302 318V317.5H301.5V318H302ZM342 318H342.5V317.5H342V318ZM342 358V358.5H342.5V358H342ZM302 358H301.5V358.5H302V358ZM302 318.5H342V317.5H302V318.5ZM341.5 318V358H342.5V318H341.5ZM342 357.5H302V358.5H342V357.5ZM302.5 358V318H301.5V358H302.5Z" fill="#DFDFDF"/>
<path d="M355.39 342V341.233L358.27 338.08C358.608 337.71 358.887 337.389 359.105 337.116C359.324 336.841 359.486 336.582 359.591 336.341C359.699 336.097 359.753 335.841 359.753 335.574C359.753 335.267 359.679 335.001 359.532 334.777C359.387 334.553 359.188 334.379 358.935 334.257C358.682 334.135 358.398 334.074 358.083 334.074C357.748 334.074 357.455 334.143 357.205 334.283C356.958 334.419 356.766 334.611 356.63 334.858C356.496 335.105 356.429 335.395 356.429 335.727H355.424C355.424 335.216 355.542 334.767 355.777 334.381C356.013 333.994 356.334 333.693 356.74 333.477C357.15 333.261 357.608 333.153 358.117 333.153C358.628 333.153 359.081 333.261 359.476 333.477C359.871 333.693 360.181 333.984 360.405 334.351C360.63 334.717 360.742 335.125 360.742 335.574C360.742 335.895 360.684 336.209 360.567 336.516C360.453 336.82 360.255 337.159 359.971 337.534C359.689 337.906 359.299 338.361 358.799 338.898L356.838 340.994V341.062H360.895V342H355.39ZM365.886 342.119C365.301 342.119 364.784 342.016 364.335 341.808C363.889 341.598 363.541 341.31 363.291 340.943C363.041 340.574 362.918 340.153 362.92 339.682C362.918 339.312 362.99 338.972 363.138 338.659C363.286 338.344 363.487 338.081 363.743 337.871C364.001 337.658 364.29 337.523 364.608 337.466V337.415C364.19 337.307 363.858 337.072 363.611 336.712C363.364 336.348 363.241 335.935 363.244 335.472C363.241 335.028 363.354 334.632 363.581 334.283C363.808 333.933 364.121 333.658 364.518 333.456C364.919 333.254 365.375 333.153 365.886 333.153C366.392 333.153 366.844 333.254 367.241 333.456C367.639 333.658 367.952 333.933 368.179 334.283C368.409 334.632 368.526 335.028 368.528 335.472C368.526 335.935 368.399 336.348 368.149 336.712C367.902 337.072 367.574 337.307 367.165 337.415V337.466C367.48 337.523 367.764 337.658 368.017 337.871C368.27 338.081 368.472 338.344 368.622 338.659C368.773 338.972 368.849 339.312 368.852 339.682C368.849 340.153 368.722 340.574 368.469 340.943C368.219 341.31 367.871 341.598 367.425 341.808C366.982 342.016 366.469 342.119 365.886 342.119ZM365.886 341.182C366.281 341.182 366.622 341.118 366.909 340.99C367.196 340.862 367.418 340.682 367.574 340.449C367.73 340.216 367.81 339.943 367.812 339.631C367.81 339.301 367.724 339.01 367.557 338.757C367.389 338.504 367.161 338.305 366.871 338.161C366.584 338.016 366.256 337.943 365.886 337.943C365.514 337.943 365.182 338.016 364.889 338.161C364.599 338.305 364.371 338.504 364.203 338.757C364.038 339.01 363.957 339.301 363.96 339.631C363.957 339.943 364.033 340.216 364.186 340.449C364.342 340.682 364.565 340.862 364.855 340.99C365.145 341.118 365.489 341.182 365.886 341.182ZM365.886 337.04C366.199 337.04 366.476 336.977 366.717 336.852C366.962 336.727 367.153 336.553 367.293 336.328C367.432 336.104 367.503 335.841 367.506 335.54C367.503 335.244 367.433 334.987 367.297 334.768C367.161 334.547 366.972 334.376 366.73 334.257C366.489 334.135 366.207 334.074 365.886 334.074C365.56 334.074 365.274 334.135 365.03 334.257C364.786 334.376 364.597 334.547 364.463 334.768C364.33 334.987 364.264 335.244 364.267 335.54C364.264 335.841 364.331 336.104 364.467 336.328C364.607 336.553 364.798 336.727 365.043 336.852C365.287 336.977 365.568 337.04 365.886 337.04Z" fill="black"/>
<path d="M342 318V317.5H341.5V318H342ZM382 318H382.5V317.5H382V318ZM382 358V358.5H382.5V358H382ZM342 358H341.5V358.5H342V358ZM342 318.5H382V317.5H342V318.5ZM381.5 318V358H382.5V318H381.5ZM382 357.5H342V358.5H382V357.5ZM342.5 358V318H341.5V358H342.5Z" fill="#DFDFDF"/>
<path d="M115.39 382V381.233L118.27 378.08C118.608 377.71 118.887 377.389 119.105 377.116C119.324 376.841 119.486 376.582 119.591 376.341C119.699 376.097 119.753 375.841 119.753 375.574C119.753 375.267 119.679 375.001 119.532 374.777C119.387 374.553 119.188 374.379 118.935 374.257C118.682 374.135 118.398 374.074 118.083 374.074C117.748 374.074 117.455 374.143 117.205 374.283C116.958 374.419 116.766 374.611 116.63 374.858C116.496 375.105 116.429 375.395 116.429 375.727H115.424C115.424 375.216 115.542 374.767 115.777 374.381C116.013 373.994 116.334 373.693 116.74 373.477C117.15 373.261 117.608 373.153 118.117 373.153C118.628 373.153 119.081 373.261 119.476 373.477C119.871 373.693 120.181 373.984 120.405 374.351C120.63 374.717 120.742 375.125 120.742 375.574C120.742 375.895 120.684 376.209 120.567 376.516C120.453 376.82 120.255 377.159 119.971 377.534C119.689 377.906 119.299 378.361 118.799 378.898L116.838 380.994V381.062H120.895V382H115.39ZM125.818 373.153C126.176 373.156 126.534 373.224 126.892 373.358C127.25 373.491 127.577 373.713 127.872 374.023C128.168 374.33 128.405 374.749 128.584 375.28C128.763 375.811 128.852 376.477 128.852 377.278C128.852 378.054 128.778 378.743 128.631 379.345C128.486 379.945 128.276 380.45 128 380.862C127.727 381.274 127.395 381.587 127.003 381.8C126.614 382.013 126.173 382.119 125.682 382.119C125.193 382.119 124.757 382.023 124.374 381.83C123.993 381.634 123.68 381.362 123.436 381.016C123.195 380.666 123.04 380.261 122.972 379.801H124.011C124.105 380.202 124.291 380.533 124.57 380.794C124.851 381.053 125.222 381.182 125.682 381.182C126.355 381.182 126.886 380.888 127.276 380.3C127.668 379.712 127.864 378.881 127.864 377.807H127.795C127.636 378.045 127.447 378.251 127.229 378.425C127.01 378.598 126.767 378.732 126.5 378.825C126.233 378.919 125.949 378.966 125.648 378.966C125.148 378.966 124.689 378.842 124.271 378.595C123.857 378.345 123.524 378.003 123.274 377.568C123.027 377.131 122.903 376.631 122.903 376.068C122.903 375.534 123.023 375.045 123.261 374.602C123.503 374.156 123.841 373.801 124.276 373.537C124.713 373.273 125.227 373.145 125.818 373.153ZM125.818 374.091C125.46 374.091 125.138 374.18 124.851 374.359C124.567 374.536 124.341 374.774 124.173 375.075C124.009 375.374 123.926 375.705 123.926 376.068C123.926 376.432 124.006 376.763 124.165 377.061C124.327 377.357 124.547 377.592 124.825 377.768C125.107 377.942 125.426 378.028 125.784 378.028C126.054 378.028 126.305 377.976 126.538 377.871C126.771 377.763 126.974 377.616 127.148 377.432C127.324 377.244 127.462 377.033 127.561 376.797C127.661 376.558 127.71 376.31 127.71 376.051C127.71 375.71 127.628 375.391 127.463 375.092C127.301 374.794 127.077 374.553 126.79 374.368C126.506 374.183 126.182 374.091 125.818 374.091Z" fill="black"/>
<path d="M102 358V357.5H101.5V358H102ZM142 358H142.5V357.5H142V358ZM142 398V398.5H142.5V398H142ZM102 398H101.5V398.5H102V398ZM102 358.5H142V357.5H102V358.5ZM141.5 358V398H142.5V358H141.5ZM142 397.5H102V398.5H142V397.5ZM102.5 398V358H101.5V398H102.5Z" fill="#DFDFDF"/>
<path d="M158.151 382.119C157.588 382.119 157.087 382.023 156.647 381.83C156.209 381.636 155.861 381.368 155.603 381.024C155.347 380.678 155.208 380.276 155.185 379.818H156.259C156.282 380.099 156.378 380.342 156.549 380.547C156.719 380.749 156.942 380.905 157.218 381.016C157.493 381.126 157.799 381.182 158.134 381.182C158.509 381.182 158.841 381.116 159.131 380.986C159.421 380.855 159.648 380.673 159.813 380.44C159.978 380.207 160.06 379.938 160.06 379.631C160.06 379.31 159.98 379.027 159.821 378.783C159.662 378.536 159.429 378.342 159.123 378.203C158.816 378.064 158.441 377.994 157.998 377.994H157.299V377.057H157.998C158.344 377.057 158.648 376.994 158.909 376.869C159.174 376.744 159.38 376.568 159.527 376.341C159.678 376.114 159.753 375.847 159.753 375.54C159.753 375.244 159.688 374.987 159.557 374.768C159.426 374.55 159.242 374.379 159.003 374.257C158.767 374.135 158.489 374.074 158.168 374.074C157.867 374.074 157.583 374.129 157.316 374.24C157.051 374.348 156.836 374.506 156.668 374.713C156.5 374.918 156.409 375.165 156.395 375.455H155.373C155.39 374.997 155.527 374.597 155.786 374.253C156.044 373.906 156.382 373.636 156.8 373.443C157.221 373.25 157.682 373.153 158.185 373.153C158.725 373.153 159.188 373.263 159.574 373.482C159.961 373.697 160.257 373.983 160.465 374.338C160.672 374.693 160.776 375.077 160.776 375.489C160.776 375.98 160.647 376.399 160.388 376.746C160.132 377.092 159.784 377.332 159.344 377.466V377.534C159.895 377.625 160.326 377.859 160.635 378.237C160.945 378.612 161.1 379.077 161.1 379.631C161.1 380.105 160.971 380.531 160.712 380.909C160.456 381.284 160.107 381.58 159.664 381.795C159.221 382.011 158.716 382.119 158.151 382.119ZM165.886 382.119C165.244 382.119 164.697 381.945 164.246 381.595C163.794 381.243 163.449 380.733 163.21 380.065C162.972 379.395 162.852 378.585 162.852 377.636C162.852 376.693 162.972 375.888 163.21 375.22C163.452 374.55 163.798 374.038 164.25 373.686C164.705 373.331 165.25 373.153 165.886 373.153C166.523 373.153 167.067 373.331 167.518 373.686C167.973 374.038 168.32 374.55 168.558 375.22C168.8 375.888 168.92 376.693 168.92 377.636C168.92 378.585 168.801 379.395 168.562 380.065C168.324 380.733 167.979 381.243 167.527 381.595C167.075 381.945 166.528 382.119 165.886 382.119ZM165.886 381.182C166.523 381.182 167.017 380.875 167.369 380.261C167.722 379.648 167.898 378.773 167.898 377.636C167.898 376.881 167.817 376.237 167.655 375.706C167.496 375.175 167.266 374.77 166.964 374.491C166.666 374.213 166.307 374.074 165.886 374.074C165.256 374.074 164.763 374.385 164.408 375.007C164.053 375.626 163.875 376.503 163.875 377.636C163.875 378.392 163.955 379.034 164.114 379.562C164.273 380.091 164.501 380.493 164.8 380.768C165.101 381.044 165.463 381.182 165.886 381.182Z" fill="black"/>
<path d="M142 358V357.5H141.5V358H142ZM182 358H182.5V357.5H182V358ZM182 398V398.5H182.5V398H182ZM142 398H141.5V398.5H142V398ZM142 358.5H182V357.5H142V358.5ZM181.5 358V398H182.5V358H181.5ZM182 397.5H142V398.5H182V397.5ZM142.5 398V358H141.5V398H142.5Z" fill="#DFDFDF"/>
<path d="M182 358H222V398H182V358Z" fill="#FCFCFC"/>
<path d="M203.178 373.273V382H202.121V374.381H202.07L199.939 375.795V374.722L202.121 373.273H203.178Z" fill="#747474"/>
<path d="M182 358V357.5H181.5V358H182ZM222 358H222.5V357.5H222V358ZM222 398V398.5H222.5V398H222ZM182 398H181.5V398.5H182V398ZM182 358.5H222V357.5H182V358.5ZM221.5 358V398H222.5V358H221.5ZM222 397.5H182V398.5H222V397.5ZM182.5 398V358H181.5V398H182.5Z" fill="#DFDFDF"/>
<path d="M222 358H262V398H222V358Z" fill="#FCFCFC"/>
<path d="M239.274 382V381.233L242.155 378.08C242.493 377.71 242.771 377.389 242.99 377.116C243.209 376.841 243.371 376.582 243.476 376.341C243.584 376.097 243.638 375.841 243.638 375.574C243.638 375.267 243.564 375.001 243.416 374.777C243.271 374.553 243.073 374.379 242.82 374.257C242.567 374.135 242.283 374.074 241.968 374.074C241.632 374.074 241.34 374.143 241.09 374.283C240.843 374.419 240.651 374.611 240.514 374.858C240.381 375.105 240.314 375.395 240.314 375.727H239.308C239.308 375.216 239.426 374.767 239.662 374.381C239.898 373.994 240.219 373.693 240.625 373.477C241.034 373.261 241.493 373.153 242.002 373.153C242.513 373.153 242.966 373.261 243.361 373.477C243.756 373.693 244.066 373.984 244.29 374.351C244.514 374.717 244.627 375.125 244.627 375.574C244.627 375.895 244.568 376.209 244.452 376.516C244.338 376.82 244.139 377.159 243.855 377.534C243.574 377.906 243.183 378.361 242.683 378.898L240.723 380.994V381.062H244.78V382H239.274Z" fill="#747474"/>
<path d="M222 358V357.5H221.5V358H222ZM262 358H262.5V357.5H262V358ZM262 398V398.5H262.5V398H262ZM222 398H221.5V398.5H222V398ZM222 358.5H262V357.5H222V358.5ZM261.5 358V398H262.5V358H261.5ZM262 397.5H222V398.5H262V397.5ZM222.5 398V358H221.5V398H222.5Z" fill="#DFDFDF"/>
<path d="M262 358H302V398H262V358Z" fill="#FCFCFC"/>
<path d="M282.036 382.119C281.473 382.119 280.972 382.023 280.531 381.83C280.094 381.636 279.746 381.368 279.487 381.024C279.232 380.678 279.093 380.276 279.07 379.818H280.144C280.166 380.099 280.263 380.342 280.433 380.547C280.604 380.749 280.827 380.905 281.102 381.016C281.378 381.126 281.683 381.182 282.019 381.182C282.394 381.182 282.726 381.116 283.016 380.986C283.306 380.855 283.533 380.673 283.698 380.44C283.862 380.207 283.945 379.938 283.945 379.631C283.945 379.31 283.865 379.027 283.706 378.783C283.547 378.536 283.314 378.342 283.007 378.203C282.7 378.064 282.325 377.994 281.882 377.994H281.183V377.057H281.882C282.229 377.057 282.533 376.994 282.794 376.869C283.058 376.744 283.264 376.568 283.412 376.341C283.563 376.114 283.638 375.847 283.638 375.54C283.638 375.244 283.573 374.987 283.442 374.768C283.311 374.55 283.127 374.379 282.888 374.257C282.652 374.135 282.374 374.074 282.053 374.074C281.752 374.074 281.468 374.129 281.2 374.24C280.936 374.348 280.72 374.506 280.553 374.713C280.385 374.918 280.294 375.165 280.28 375.455H279.257C279.274 374.997 279.412 374.597 279.671 374.253C279.929 373.906 280.267 373.636 280.685 373.443C281.105 373.25 281.567 373.153 282.07 373.153C282.61 373.153 283.073 373.263 283.459 373.482C283.845 373.697 284.142 373.983 284.35 374.338C284.557 374.693 284.661 375.077 284.661 375.489C284.661 375.98 284.531 376.399 284.273 376.746C284.017 377.092 283.669 377.332 283.229 377.466V377.534C283.78 377.625 284.21 377.859 284.52 378.237C284.83 378.612 284.985 379.077 284.985 379.631C284.985 380.105 284.855 380.531 284.597 380.909C284.341 381.284 283.992 381.58 283.548 381.795C283.105 382.011 282.601 382.119 282.036 382.119Z" fill="#747474"/>
<path d="M262 358V357.5H261.5V358H262ZM302 358H302.5V357.5H302V358ZM302 398V398.5H302.5V398H302ZM262 398H261.5V398.5H262V398ZM262 358.5H302V357.5H262V358.5ZM301.5 358V398H302.5V358H301.5ZM302 397.5H262V398.5H302V397.5ZM262.5 398V358H261.5V398H262.5Z" fill="#DFDFDF"/>
<path d="M302 358H342V398H302V358Z" fill="#FCFCFC"/>
<path d="M318.814 380.21V379.341L322.649 373.273H323.28V374.619H322.854L319.956 379.205V379.273H325.121V380.21H318.814ZM322.922 382V379.946V379.541V373.273H323.928V382H322.922Z" fill="#747474"/>
<path d="M302 358V357.5H301.5V358H302ZM342 358H342.5V357.5H342V358ZM342 398V398.5H342.5V398H342ZM302 398H301.5V398.5H302V398ZM302 358.5H342V357.5H302V358.5ZM341.5 358V398H342.5V358H341.5ZM342 397.5H302V398.5H342V397.5ZM302.5 398V358H301.5V398H302.5Z" fill="#DFDFDF"/>
<path d="M342 358H382V398H342V358Z" fill="#FCFCFC"/>
<path d="M361.968 382.119C361.468 382.119 361.017 382.02 360.617 381.821C360.216 381.622 359.895 381.349 359.654 381.003C359.412 380.656 359.28 380.261 359.257 379.818H360.28C360.32 380.213 360.499 380.54 360.817 380.798C361.138 381.054 361.521 381.182 361.968 381.182C362.325 381.182 362.644 381.098 362.922 380.93C363.203 380.763 363.423 380.533 363.583 380.24C363.744 379.945 363.825 379.611 363.825 379.239C363.825 378.858 363.742 378.518 363.574 378.22C363.409 377.919 363.182 377.682 362.892 377.509C362.602 377.335 362.271 377.247 361.899 377.244C361.632 377.241 361.358 377.283 361.077 377.368C360.796 377.45 360.564 377.557 360.382 377.688L359.394 377.568L359.922 373.273H364.456V374.21H360.808L360.502 376.784H360.553C360.732 376.642 360.956 376.524 361.226 376.43C361.496 376.337 361.777 376.29 362.07 376.29C362.604 376.29 363.08 376.418 363.497 376.673C363.918 376.926 364.247 377.273 364.486 377.713C364.727 378.153 364.848 378.656 364.848 379.222C364.848 379.778 364.723 380.276 364.473 380.713C364.226 381.148 363.885 381.491 363.45 381.744C363.016 381.994 362.521 382.119 361.968 382.119Z" fill="#747474"/>
<path d="M342 358V357.5H341.5V358H342ZM382 358H382.5V357.5H382V358ZM382 398V398.5H382.5V398H382ZM342 398H341.5V398.5H342V398ZM342 358.5H382V357.5H342V358.5ZM381.5 358V398H382.5V358H381.5ZM382 397.5H342V398.5H382V397.5ZM342.5 398V358H341.5V398H342.5Z" fill="#DFDFDF"/>
<path d="M103.138 116.909H106.551L110.156 125.705H110.31L113.915 116.909H117.328V130H114.643V121.479H114.535L111.147 129.936H109.319L105.931 121.447H105.822V130H103.138V116.909ZM122.357 130.185C121.731 130.185 121.172 130.077 120.682 129.859C120.192 129.638 119.805 129.312 119.519 128.881C119.238 128.447 119.097 127.906 119.097 127.258C119.097 126.712 119.197 126.254 119.398 125.884C119.598 125.513 119.871 125.214 120.216 124.989C120.561 124.763 120.953 124.592 121.392 124.477C121.835 124.362 122.3 124.281 122.785 124.234C123.356 124.175 123.817 124.119 124.166 124.068C124.515 124.013 124.769 123.932 124.927 123.825C125.084 123.719 125.163 123.561 125.163 123.352V123.314C125.163 122.909 125.035 122.596 124.78 122.374C124.528 122.153 124.17 122.042 123.706 122.042C123.216 122.042 122.826 122.151 122.536 122.368C122.246 122.581 122.055 122.849 121.961 123.173L119.442 122.969C119.57 122.372 119.822 121.857 120.197 121.422C120.572 120.983 121.055 120.646 121.648 120.412C122.244 120.173 122.934 120.054 123.719 120.054C124.264 120.054 124.786 120.118 125.285 120.246C125.787 120.374 126.233 120.572 126.621 120.84C127.013 121.109 127.322 121.454 127.547 121.876C127.773 122.293 127.886 122.794 127.886 123.378V130H125.304V128.638H125.227C125.069 128.945 124.858 129.216 124.594 129.45C124.33 129.68 124.013 129.862 123.642 129.994C123.271 130.121 122.843 130.185 122.357 130.185ZM123.137 128.306C123.537 128.306 123.891 128.227 124.198 128.07C124.505 127.908 124.746 127.69 124.92 127.418C125.095 127.145 125.182 126.836 125.182 126.491V125.449C125.097 125.504 124.98 125.555 124.831 125.602C124.686 125.645 124.522 125.685 124.339 125.724C124.155 125.758 123.972 125.79 123.789 125.82C123.606 125.845 123.439 125.869 123.29 125.89C122.971 125.937 122.692 126.011 122.453 126.114C122.214 126.216 122.029 126.354 121.897 126.529C121.765 126.7 121.699 126.913 121.699 127.168C121.699 127.539 121.833 127.822 122.101 128.018C122.374 128.21 122.719 128.306 123.137 128.306ZM129.999 130V120.182H132.639V121.895H132.741C132.92 121.286 133.22 120.825 133.642 120.514C134.064 120.199 134.55 120.041 135.1 120.041C135.236 120.041 135.383 120.05 135.541 120.067C135.698 120.084 135.837 120.107 135.956 120.137V122.553C135.828 122.515 135.651 122.481 135.426 122.451C135.2 122.421 134.993 122.406 134.806 122.406C134.405 122.406 134.047 122.494 133.732 122.668C133.421 122.839 133.173 123.077 132.99 123.384C132.811 123.691 132.722 124.045 132.722 124.445V130H129.999ZM141.343 130.192C140.337 130.192 139.472 129.979 138.748 129.553C138.028 129.122 137.474 128.526 137.086 127.763C136.702 127 136.511 126.122 136.511 125.129C136.511 124.124 136.705 123.241 137.092 122.483C137.484 121.72 138.04 121.126 138.761 120.7C139.481 120.269 140.337 120.054 141.33 120.054C142.187 120.054 142.937 120.21 143.58 120.521C144.224 120.832 144.733 121.268 145.108 121.831C145.483 122.393 145.69 123.054 145.728 123.812H143.158C143.086 123.322 142.894 122.928 142.583 122.63C142.276 122.327 141.874 122.176 141.375 122.176C140.953 122.176 140.585 122.291 140.269 122.521C139.958 122.747 139.715 123.077 139.54 123.512C139.366 123.947 139.278 124.473 139.278 125.091C139.278 125.717 139.364 126.25 139.534 126.689C139.709 127.128 139.954 127.462 140.269 127.692C140.585 127.923 140.953 128.038 141.375 128.038C141.686 128.038 141.965 127.974 142.212 127.846C142.464 127.718 142.67 127.533 142.832 127.29C142.999 127.043 143.107 126.746 143.158 126.401H145.728C145.685 127.151 145.481 127.812 145.114 128.383C144.752 128.95 144.251 129.393 143.612 129.712C142.973 130.032 142.217 130.192 141.343 130.192ZM150.194 124.324V130H147.471V116.909H150.118V121.914H150.233C150.454 121.335 150.812 120.881 151.307 120.553C151.801 120.22 152.421 120.054 153.167 120.054C153.849 120.054 154.443 120.203 154.95 120.501C155.461 120.795 155.858 121.219 156.139 121.773C156.425 122.323 156.565 122.982 156.561 123.749V130H153.838V124.234C153.842 123.629 153.689 123.158 153.378 122.822C153.071 122.485 152.64 122.317 152.086 122.317C151.716 122.317 151.388 122.396 151.102 122.553C150.821 122.711 150.599 122.941 150.437 123.244C150.28 123.542 150.199 123.902 150.194 124.324ZM163.311 130V128.006L167.971 123.691C168.367 123.308 168.699 122.962 168.968 122.656C169.241 122.349 169.447 122.048 169.588 121.754C169.729 121.456 169.799 121.134 169.799 120.789C169.799 120.406 169.711 120.075 169.537 119.798C169.362 119.517 169.123 119.302 168.821 119.153C168.518 118.999 168.175 118.923 167.792 118.923C167.391 118.923 167.042 119.004 166.743 119.165C166.445 119.327 166.215 119.56 166.053 119.862C165.891 120.165 165.81 120.525 165.81 120.942H163.183C163.183 120.086 163.377 119.342 163.765 118.712C164.153 118.081 164.696 117.593 165.395 117.248C166.094 116.903 166.899 116.73 167.811 116.73C168.748 116.73 169.564 116.896 170.259 117.229C170.958 117.557 171.501 118.013 171.889 118.597C172.277 119.18 172.471 119.849 172.471 120.604C172.471 121.098 172.373 121.586 172.177 122.067C171.985 122.549 171.642 123.084 171.148 123.672C170.653 124.256 169.956 124.957 169.057 125.775L167.146 127.648V127.737H172.643V130H163.311ZM180.189 130.288C179.09 130.283 178.144 130.013 177.351 129.476C176.563 128.939 175.955 128.161 175.529 127.143C175.107 126.124 174.899 124.899 174.903 123.467C174.903 122.04 175.114 120.823 175.536 119.817C175.962 118.812 176.569 118.047 177.357 117.523C178.15 116.994 179.094 116.73 180.189 116.73C181.284 116.73 182.226 116.994 183.014 117.523C183.807 118.051 184.416 118.818 184.843 119.824C185.269 120.825 185.48 122.04 185.475 123.467C185.475 124.903 185.262 126.131 184.836 127.149C184.414 128.168 183.809 128.945 183.021 129.482C182.232 130.019 181.289 130.288 180.189 130.288ZM180.189 127.993C180.939 127.993 181.538 127.616 181.985 126.862C182.433 126.107 182.654 124.976 182.65 123.467C182.65 122.474 182.548 121.648 182.343 120.987C182.143 120.327 181.857 119.83 181.487 119.498C181.12 119.165 180.688 118.999 180.189 118.999C179.443 118.999 178.847 119.372 178.399 120.118C177.952 120.864 177.726 121.98 177.722 123.467C177.722 124.473 177.822 125.312 178.022 125.986C178.227 126.655 178.514 127.158 178.885 127.494C179.256 127.827 179.691 127.993 180.189 127.993ZM187.85 130V128.006L192.51 123.691C192.906 123.308 193.238 122.962 193.507 122.656C193.78 122.349 193.986 122.048 194.127 121.754C194.268 121.456 194.338 121.134 194.338 120.789C194.338 120.406 194.251 120.075 194.076 119.798C193.901 119.517 193.662 119.302 193.36 119.153C193.057 118.999 192.714 118.923 192.331 118.923C191.93 118.923 191.581 119.004 191.282 119.165C190.984 119.327 190.754 119.56 190.592 119.862C190.43 120.165 190.349 120.525 190.349 120.942H187.722C187.722 120.086 187.916 119.342 188.304 118.712C188.692 118.081 189.235 117.593 189.934 117.248C190.633 116.903 191.438 116.73 192.35 116.73C193.287 116.73 194.104 116.896 194.798 117.229C195.497 117.557 196.04 118.013 196.428 118.597C196.816 119.18 197.01 119.849 197.01 120.604C197.01 121.098 196.912 121.586 196.716 122.067C196.524 122.549 196.181 123.084 195.687 123.672C195.192 124.256 194.496 124.957 193.596 125.775L191.685 127.648V127.737H197.182V130H187.85ZM200.119 130V128.006L204.779 123.691C205.176 123.308 205.508 122.962 205.776 122.656C206.049 122.349 206.256 122.048 206.396 121.754C206.537 121.456 206.607 121.134 206.607 120.789C206.607 120.406 206.52 120.075 206.345 119.798C206.171 119.517 205.932 119.302 205.629 119.153C205.327 118.999 204.984 118.923 204.6 118.923C204.2 118.923 203.85 119.004 203.552 119.165C203.254 119.327 203.024 119.56 202.862 119.862C202.7 120.165 202.619 120.525 202.619 120.942H199.992C199.992 120.086 200.186 119.342 200.573 118.712C200.961 118.081 201.504 117.593 202.203 117.248C202.902 116.903 203.708 116.73 204.619 116.73C205.557 116.73 206.373 116.896 207.068 117.229C207.767 117.557 208.31 118.013 208.698 118.597C209.085 119.18 209.279 119.849 209.279 120.604C209.279 121.098 209.181 121.586 208.985 122.067C208.794 122.549 208.45 123.084 207.956 123.672C207.462 124.256 206.765 124.957 205.866 125.775L203.955 127.648V127.737H209.452V130H200.119Z" fill="black"/>
<g opacity="0.2">
<path fill-rule="evenodd" clip-rule="evenodd" d="M371.457 129.957L370.043 128.543L375.836 122.75L370.043 116.957L371.457 115.543L378.664 122.75L371.457 129.957Z" fill="black"/>
</g>
<path fill-rule="evenodd" clip-rule="evenodd" d="M352.543 115.543L353.957 116.957L348.164 122.75L353.957 128.543L352.543 129.957L345.336 122.75L352.543 115.543Z" fill="black"/>
<defs>
<filter id="filter0_dd_923_9531" x="0" y="0" width="486" height="653" filterUnits="userSpaceOnUse" color-interpolation-filters="sRGB">
<feFlood flood-opacity="0" result="BackgroundImageFix"/>
<feColorMatrix in="SourceAlpha" type="matrix" values="0 0 0 0 0 0 0 0 0 0 0 0 0 0 0 0 0 0 127 0" result="hardAlpha"/>
<feOffset dy="4"/>
<feGaussianBlur stdDeviation="25"/>
<feComposite in2="hardAlpha" operator="out"/>
<feColorMatrix type="matrix" values="0 0 0 0 0 0 0 0 0 0 0 0 0 0 0 0 0 0 0.1 0"/>
<feBlend mode="normal" in2="BackgroundImageFix" result="effect1_dropShadow_923_9531"/>
<feColorMatrix in="SourceAlpha" type="matrix" values="0 0 0 0 0 0 0 0 0 0 0 0 0 0 0 0 0 0 127 0" result="hardAlpha"/>
<feOffset dx="4"/>
<feGaussianBlur stdDeviation="25"/>
<feComposite in2="hardAlpha" operator="out"/>
<feColorMatrix type="matrix" values="0 0 0 0 0 0 0 0 0 0 0 0 0 0 0 0 0 0 0.1 0"/>
<feBlend mode="normal" in2="effect1_dropShadow_923_9531" result="effect2_dropShadow_923_9531"/>
<feBlend mode="normal" in="SourceGraphic" in2="effect2_dropShadow_923_9531" result="shape"/>
</filter>
</defs>
</svg>
