<svg width="475" height="425" viewBox="0 0 475 425" fill="none" xmlns="http://www.w3.org/2000/svg">
<g clip-path="url(#clip0_927_9677)">
<path d="M66.829 425L66.3773 424.166C72.4338 420.894 79.9713 416.822 83.9082 410.141C87.7892 403.554 87.8762 394.61 84.1355 386.798C80.952 380.15 75.1042 374.194 67.2243 369.574C65.67 368.662 64.0384 367.798 62.4605 366.963C58.6464 364.944 54.7025 362.856 51.4506 359.894C46.9716 355.814 43.5827 348.968 46.1086 342.87C46.9393 340.923 48.2997 339.248 50.0354 338.035C51.7712 336.822 53.8126 336.12 55.928 336.007L55.9816 336.954C54.0436 337.057 52.1733 337.7 50.5828 338.811C48.9923 339.922 47.7454 341.456 46.9836 343.239C44.6364 348.906 47.8567 355.336 52.0905 359.193C55.2536 362.074 59.1435 364.133 62.9052 366.125C64.4921 366.965 66.1331 367.834 67.7052 368.755C75.749 373.472 81.7269 379.569 84.9923 386.389C88.8675 394.481 88.7658 403.767 84.7268 410.622C80.6557 417.531 72.9892 421.673 66.829 425Z" fill="#F1F1F1"/>
<path d="M61.9472 341.007C66.537 341.007 70.2577 339.202 70.2577 336.975C70.2577 334.749 66.537 332.944 61.9472 332.944C57.3575 332.944 53.6367 334.749 53.6367 336.975C53.6367 339.202 57.3575 341.007 61.9472 341.007Z" fill="#F1F1F1"/>
<path d="M68.5957 367.57C73.1854 367.57 76.9062 365.765 76.9062 363.538C76.9062 361.312 73.1854 359.506 68.5957 359.506C64.0059 359.506 60.2852 361.312 60.2852 363.538C60.2852 365.765 64.0059 367.57 68.5957 367.57Z" fill="#F1F1F1"/>
<path d="M53.3994 371.839C57.9891 371.839 61.7099 370.034 61.7099 367.807C61.7099 365.581 57.9891 363.776 53.3994 363.776C48.8096 363.776 45.0889 365.581 45.0889 367.807C45.0889 370.034 48.8096 371.839 53.3994 371.839Z" fill="#F1F1F1"/>
<path d="M77.1435 394.133C81.7333 394.133 85.454 392.328 85.454 390.101C85.454 387.874 81.7333 386.069 77.1435 386.069C72.5537 386.069 68.833 387.874 68.833 390.101C68.833 392.328 72.5537 394.133 77.1435 394.133Z" fill="#F1F1F1"/>
<path d="M93.7646 394.133C98.3544 394.133 102.075 392.328 102.075 390.101C102.075 387.874 98.3544 386.069 93.7646 386.069C89.1748 386.069 85.4541 387.874 85.4541 390.101C85.4541 392.328 89.1748 394.133 93.7646 394.133Z" fill="#F1F1F1"/>
<path d="M399.907 384.093H264.644C261.438 384.089 258.365 382.815 256.098 380.551C253.831 378.287 252.555 375.217 252.552 372.014V176.078C252.555 172.876 253.831 169.806 256.098 167.542C258.365 165.277 261.438 164.004 264.644 164H399.907C403.113 164.004 406.187 165.277 408.454 167.542C410.721 169.806 411.996 172.876 412 176.078V372.014C411.996 375.217 410.721 378.287 408.454 380.551C406.187 382.815 403.113 384.089 399.907 384.093V384.093Z" fill="#E6E6E6"/>
<path d="M400.146 376.386H264.406C263.418 376.385 262.471 375.993 261.772 375.295C261.073 374.597 260.68 373.65 260.679 372.663V175.43C260.68 174.442 261.073 173.496 261.772 172.798C262.471 172.1 263.418 171.707 264.406 171.706H400.146C401.134 171.707 402.082 172.1 402.78 172.798C403.479 173.496 403.872 174.442 403.873 175.43V372.663C403.872 373.65 403.479 374.597 402.78 375.295C402.082 375.993 401.134 376.385 400.146 376.386V376.386Z" fill="white"/>
<path d="M331.761 168.727C332.329 168.727 332.79 168.266 332.79 167.699C332.79 167.132 332.329 166.672 331.761 166.672C331.193 166.672 330.732 167.132 330.732 167.699C330.732 168.266 331.193 168.727 331.761 168.727Z" fill="white"/>
<path d="M386.988 301.582H277.564C277.473 301.582 277.386 301.546 277.322 301.481C277.258 301.417 277.222 301.33 277.222 301.24V248.853C277.222 248.762 277.258 248.675 277.322 248.611C277.386 248.547 277.473 248.511 277.564 248.511C277.655 248.511 277.742 248.547 277.806 248.611C277.87 248.675 277.907 248.762 277.907 248.853V300.898H386.988C387.079 300.898 387.165 300.934 387.229 300.998C387.293 301.062 387.329 301.149 387.329 301.24C387.329 301.33 387.293 301.417 387.229 301.481C387.165 301.545 387.079 301.581 386.988 301.582V301.582Z" fill="#3F3D56"/>
<path d="M300.943 297.819H290.99C290.721 297.819 290.462 297.712 290.272 297.521C290.081 297.331 289.974 297.073 289.974 296.804V283.1C289.974 282.831 290.081 282.573 290.272 282.382C290.462 282.192 290.721 282.085 290.99 282.085H300.943C301.212 282.085 301.471 282.192 301.661 282.382C301.852 282.573 301.959 282.831 301.959 283.1V296.804C301.959 297.073 301.852 297.331 301.661 297.521C301.471 297.712 301.212 297.819 300.943 297.819Z" fill="#00B4A9"/>
<path d="M319.093 297.819H309.141C308.871 297.819 308.613 297.712 308.422 297.521C308.232 297.331 308.124 297.073 308.124 296.804V270.102C308.124 269.833 308.232 269.575 308.422 269.384C308.613 269.194 308.871 269.087 309.141 269.087H319.093C319.363 269.087 319.621 269.194 319.812 269.384C320.002 269.575 320.109 269.833 320.11 270.102V296.804C320.109 297.073 320.002 297.331 319.812 297.521C319.621 297.712 319.363 297.819 319.093 297.819V297.819Z" fill="#00B4A9"/>
<path d="M337.242 297.819H327.29C327.02 297.819 326.762 297.712 326.572 297.521C326.381 297.331 326.274 297.073 326.273 296.804V283.1C326.274 282.831 326.381 282.573 326.572 282.382C326.762 282.192 327.02 282.085 327.29 282.085H337.242C337.512 282.085 337.77 282.192 337.961 282.382C338.152 282.573 338.259 282.831 338.259 283.1V296.804C338.259 297.073 338.152 297.331 337.961 297.521C337.77 297.712 337.512 297.819 337.242 297.819V297.819Z" fill="#00B4A9"/>
<path d="M355.392 297.819H345.439C345.176 297.825 344.921 297.726 344.731 297.544C344.54 297.362 344.429 297.113 344.423 296.85V264.925C344.429 264.662 344.54 264.412 344.731 264.231C344.921 264.049 345.176 263.95 345.439 263.956H355.392C355.655 263.95 355.91 264.049 356.101 264.231C356.291 264.412 356.402 264.662 356.409 264.925V296.85C356.402 297.113 356.291 297.362 356.101 297.544C355.91 297.726 355.655 297.825 355.392 297.819V297.819Z" fill="#00B4A9"/>
<path d="M373.542 297.819H363.59C363.32 297.819 363.062 297.712 362.871 297.521C362.681 297.331 362.574 297.073 362.573 296.804V255.736C362.574 255.467 362.681 255.209 362.871 255.018C363.062 254.828 363.32 254.721 363.59 254.72H373.542C373.812 254.721 374.07 254.828 374.261 255.018C374.451 255.209 374.559 255.467 374.559 255.736V296.804C374.559 297.073 374.451 297.331 374.261 297.521C374.07 297.712 373.812 297.819 373.542 297.819V297.819Z" fill="#00B4A9"/>
<path d="M295.967 277.98C297.102 277.98 298.021 277.061 298.021 275.928C298.021 274.794 297.102 273.875 295.967 273.875C294.832 273.875 293.912 274.794 293.912 275.928C293.912 277.061 294.832 277.98 295.967 277.98Z" fill="#3F3D56"/>
<path d="M314.116 264.64C315.251 264.64 316.171 263.721 316.171 262.588C316.171 261.454 315.251 260.535 314.116 260.535C312.981 260.535 312.062 261.454 312.062 262.588C312.062 263.721 312.981 264.64 314.116 264.64Z" fill="#3F3D56"/>
<path d="M332.267 277.98C333.401 277.98 334.321 277.061 334.321 275.928C334.321 274.794 333.401 273.875 332.267 273.875C331.132 273.875 330.212 274.794 330.212 275.928C330.212 277.061 331.132 277.98 332.267 277.98Z" fill="#3F3D56"/>
<path d="M350.416 258.141C351.551 258.141 352.471 257.222 352.471 256.089C352.471 254.955 351.551 254.036 350.416 254.036C349.281 254.036 348.361 254.955 348.361 256.089C348.361 257.222 349.281 258.141 350.416 258.141Z" fill="#3F3D56"/>
<path d="M368.565 250.616C369.7 250.616 370.62 249.697 370.62 248.564C370.62 247.43 369.7 246.511 368.565 246.511C367.431 246.511 366.511 247.43 366.511 248.564C366.511 249.697 367.431 250.616 368.565 250.616Z" fill="#3F3D56"/>
<path d="M332.31 276.387L314.117 262.777L296.173 276.201L295.762 275.654L314.117 261.921L332.223 275.468L350.216 255.801L350.289 255.771L368.438 248.467L368.694 249.101L350.617 256.377L332.31 276.387Z" fill="#3F3D56"/>
<path d="M172.417 270.482C171.722 270.481 171.036 270.633 170.407 270.927C169.778 271.221 169.221 271.649 168.776 272.182L147.497 271.517L146.664 267.934L135.651 273.302L137.076 283.115L169.506 278.968C170.103 279.431 170.802 279.745 171.544 279.884C172.287 280.023 173.052 279.983 173.776 279.767C174.5 279.551 175.162 279.165 175.707 278.643C176.252 278.12 176.664 277.474 176.909 276.76C177.154 276.046 177.225 275.284 177.115 274.537C177.006 273.79 176.72 273.08 176.28 272.466C175.841 271.852 175.261 271.352 174.589 271.007C173.917 270.662 173.172 270.482 172.417 270.482H172.417Z" fill="#FFB6B6"/>
<path d="M133.001 418.76H138.823L141.593 396.329L133 396.33L133.001 418.76Z" fill="#FFB6B6"/>
<path d="M131.516 416.861L142.981 416.861H142.982C144.92 416.861 146.778 417.63 148.148 418.998C149.519 420.367 150.288 422.223 150.289 424.159V424.396L131.516 424.397L131.516 416.861Z" fill="#2F2E41"/>
<path d="M111.032 414.135L116.625 415.75L125.521 394.969L117.266 392.587L111.032 414.135Z" fill="#FFB6B6"/>
<path d="M110.133 411.9L121.148 415.079L121.149 415.079C123.01 415.617 124.582 416.871 125.518 418.565C126.454 420.26 126.678 422.257 126.14 424.117L126.074 424.345L108.039 419.139L110.133 411.9Z" fill="#2F2E41"/>
<path d="M125.851 321.361C125.851 321.361 123.78 327.132 127.047 335.006L129.568 367.435L130.314 413.556H140.928L147.351 366.538L151.209 323.906L125.851 321.361Z" fill="#2F2E41"/>
<path d="M119.882 321.361C119.882 321.361 117.811 327.132 121.078 335.006L123.599 367.435L111.048 411.36H121.662L141.382 366.538L145.24 323.906L119.882 321.361Z" fill="#2F2E41"/>
<path d="M151.018 243.98C157.46 243.98 162.682 238.764 162.682 232.329C162.682 225.895 157.46 220.679 151.018 220.679C144.577 220.679 139.354 225.895 139.354 232.329C139.354 238.764 144.577 243.98 151.018 243.98Z" fill="#FFB6B6"/>
<path d="M153.421 262.5L150.214 252.699L138.179 245.873L135.738 249.286C135.738 249.286 118.516 253.806 120.599 273.559C122.682 293.311 121.732 302.798 121.732 302.798L116.983 324.617C116.983 324.617 118.445 324.868 151.996 330.723C151.996 330.723 150.409 302.005 153.421 284C154.107 279.899 157 279.941 157 272.5C157 265.059 153.421 262.5 153.421 262.5Z" fill="#00B4A9"/>
<path opacity="0.1" d="M140.902 370.418L129.973 392.469V398.79L140.902 370.418Z" fill="black"/>
<path d="M195.597 318.981C195.614 318.982 195.631 318.981 195.649 318.98C204.436 318.521 212.719 314.736 218.812 308.395C224.905 302.053 228.352 293.632 228.45 284.843C228.549 276.054 225.292 267.558 219.343 261.082C213.394 254.605 205.198 250.636 196.423 249.98C196.315 249.971 196.205 249.985 196.103 250.021C196 250.057 195.905 250.113 195.826 250.187C195.746 250.259 195.682 250.347 195.638 250.446C195.594 250.544 195.571 250.651 195.57 250.758L194.814 318.183C194.812 318.393 194.893 318.594 195.04 318.744C195.187 318.894 195.387 318.979 195.597 318.981V318.981Z" fill="#3F3D56"/>
<path d="M168.452 261.129C168.722 261.132 168.979 261.242 169.168 261.434L192.406 285.172C192.5 285.267 192.573 285.379 192.623 285.503C192.673 285.627 192.697 285.759 192.695 285.892L192.333 318.155C192.332 318.293 192.303 318.43 192.246 318.557C192.19 318.683 192.108 318.796 192.005 318.89C191.902 318.984 191.781 319.056 191.649 319.102C191.517 319.148 191.378 319.166 191.238 319.156C184.777 318.673 178.579 316.399 173.34 312.591C168.101 308.784 164.029 303.592 161.581 297.599C159.134 291.607 158.408 285.052 159.485 278.67C160.562 272.288 163.399 266.333 167.678 261.473C167.771 261.369 167.884 261.284 168.011 261.225C168.137 261.166 168.275 261.133 168.415 261.129C168.427 261.129 168.44 261.129 168.452 261.129Z" fill="#E6E6E6"/>
<path d="M192.082 249.704C192.342 249.707 192.59 249.809 192.778 249.988C192.878 250.084 192.958 250.199 193.011 250.327C193.065 250.454 193.092 250.592 193.09 250.731L192.763 279.84C192.761 280.041 192.699 280.236 192.586 280.401C192.472 280.567 192.312 280.695 192.126 280.77C191.94 280.844 191.736 280.862 191.539 280.821C191.343 280.779 191.163 280.681 191.023 280.538L170.744 259.823C170.651 259.728 170.578 259.615 170.528 259.491C170.478 259.367 170.454 259.235 170.455 259.102C170.457 258.968 170.485 258.837 170.537 258.714C170.59 258.591 170.666 258.48 170.761 258.387C170.774 258.375 170.786 258.363 170.799 258.352C176.697 253.167 184.173 250.12 192.019 249.705C192.04 249.704 192.061 249.704 192.082 249.704Z" fill="#00B4A9"/>
<path d="M160.544 283.763C159.85 283.763 159.164 283.915 158.535 284.209C157.906 284.502 157.349 284.931 156.904 285.463L135.625 284.799L134.792 281.215L123.779 286.583L125.204 296.397L157.634 292.249C158.231 292.712 158.93 293.026 159.672 293.165C160.415 293.304 161.18 293.264 161.904 293.048C162.628 292.832 163.29 292.447 163.835 291.924C164.38 291.401 164.792 290.756 165.037 290.042C165.282 289.327 165.353 288.565 165.243 287.819C165.134 287.072 164.848 286.362 164.408 285.748C163.969 285.134 163.389 284.633 162.717 284.288C162.045 283.943 161.3 283.763 160.544 283.763Z" fill="#FFB6B6"/>
<path d="M121.986 290.625L121.394 261.39C121.373 260.367 121.556 259.35 121.931 258.398C122.306 257.446 122.867 256.577 123.58 255.843C124.294 255.109 125.146 254.523 126.087 254.119C127.028 253.716 128.041 253.503 129.065 253.492C130.089 253.482 131.106 253.674 132.055 254.059C133.004 254.443 133.868 255.012 134.596 255.732C135.324 256.452 135.902 257.309 136.297 258.253C136.691 259.197 136.894 260.21 136.894 261.234V282.599L121.986 290.625Z" fill="#00B4A9"/>
<path d="M223.406 424.886H42.4749C42.3489 424.886 42.2281 424.836 42.1391 424.747C42.05 424.658 42 424.537 42 424.411C42 424.286 42.05 424.165 42.1391 424.076C42.2281 423.987 42.3489 423.937 42.4749 423.937H223.406C223.532 423.937 223.653 423.987 223.742 424.076C223.831 424.165 223.881 424.286 223.881 424.411C223.881 424.537 223.831 424.658 223.742 424.747C223.653 424.836 223.532 424.886 223.406 424.886Z" fill="#CBCBCB"/>
<path d="M161.171 227.396C157.067 231.004 150.767 231.842 145.871 229.43C148.07 232.053 152.247 245 152.247 245C152.247 245 140.453 243.754 138.787 243.396C128.945 241.28 132.523 215.66 143.01 215.789C144.786 215.811 146.339 216.027 147.521 217.359C148.305 215.148 150.801 213.846 153.13 214.015C155.459 214.183 157.566 215.59 159.064 217.39C160.26 218.848 161.123 220.551 161.592 222.381C162.062 224.21 162.127 226.121 161.782 227.978L161.171 227.396Z" fill="#2F2E41"/>
</g>
<path d="M0 15C0 6.71573 6.71573 0 15 0H118C126.284 0 133 6.71573 133 15V17C133 25.2843 126.284 32 118 32H15C6.71573 32 0 25.2843 0 17V15Z" fill="#FF9797"/>
<path d="M26.0332 18.7041C26.0332 18.4404 25.9922 18.2061 25.9102 18.001C25.834 17.7959 25.6963 17.6084 25.4971 17.4385C25.2979 17.2686 25.0166 17.1045 24.6533 16.9463C24.2959 16.7822 23.8389 16.6152 23.2822 16.4453C22.6729 16.2578 22.1104 16.0498 21.5947 15.8213C21.085 15.5869 20.6396 15.3174 20.2588 15.0127C19.8779 14.7021 19.582 14.3477 19.3711 13.9492C19.1602 13.5449 19.0547 13.0791 19.0547 12.5518C19.0547 12.0303 19.1631 11.5557 19.3799 11.1279C19.6025 10.7002 19.916 10.3311 20.3203 10.0205C20.7305 9.7041 21.2139 9.46094 21.7705 9.29102C22.3271 9.11523 22.9424 9.02734 23.6162 9.02734C24.5654 9.02734 25.3828 9.20312 26.0684 9.55469C26.7598 9.90625 27.29 10.3779 27.6592 10.9697C28.0342 11.5615 28.2217 12.2148 28.2217 12.9297H26.0332C26.0332 12.5078 25.9424 12.1357 25.7607 11.8135C25.585 11.4854 25.3154 11.2275 24.9521 11.04C24.5947 10.8525 24.1406 10.7588 23.5898 10.7588C23.0684 10.7588 22.6348 10.8379 22.2891 10.9961C21.9434 11.1543 21.6855 11.3682 21.5156 11.6377C21.3457 11.9072 21.2607 12.2119 21.2607 12.5518C21.2607 12.792 21.3164 13.0117 21.4277 13.2109C21.5391 13.4043 21.709 13.5859 21.9375 13.7559C22.166 13.9199 22.4531 14.0752 22.7988 14.2217C23.1445 14.3682 23.5518 14.5088 24.0205 14.6436C24.7295 14.8545 25.3477 15.0889 25.875 15.3467C26.4023 15.5986 26.8418 15.8857 27.1934 16.208C27.5449 16.5303 27.8086 16.8965 27.9844 17.3066C28.1602 17.7109 28.248 18.1709 28.248 18.6865C28.248 19.2256 28.1396 19.7119 27.9229 20.1455C27.7061 20.5732 27.3955 20.9395 26.9912 21.2441C26.5928 21.543 26.1123 21.7744 25.5498 21.9385C24.9932 22.0967 24.3721 22.1758 23.6865 22.1758C23.0713 22.1758 22.4648 22.0938 21.8672 21.9297C21.2754 21.7656 20.7363 21.5166 20.25 21.1826C19.7637 20.8428 19.377 20.4209 19.0898 19.917C18.8027 19.4072 18.6592 18.8125 18.6592 18.1328H20.8652C20.8652 18.5488 20.9355 18.9033 21.0762 19.1963C21.2227 19.4893 21.4248 19.7295 21.6826 19.917C21.9404 20.0986 22.2393 20.2334 22.5791 20.3213C22.9248 20.4092 23.2939 20.4531 23.6865 20.4531C24.2021 20.4531 24.6328 20.3799 24.9785 20.2334C25.3301 20.0869 25.5938 19.8818 25.7695 19.6182C25.9453 19.3545 26.0332 19.0498 26.0332 18.7041ZM35.71 19.7588V12.4902H37.8369V22H35.833L35.71 19.7588ZM36.0088 17.7812L36.7207 17.7637C36.7207 18.4023 36.6504 18.9912 36.5098 19.5303C36.3691 20.0635 36.1523 20.5293 35.8594 20.9277C35.5664 21.3203 35.1914 21.6279 34.7344 21.8506C34.2773 22.0674 33.7295 22.1758 33.0908 22.1758C32.6279 22.1758 32.2031 22.1084 31.8164 21.9736C31.4297 21.8389 31.0957 21.6309 30.8145 21.3496C30.5391 21.0684 30.3252 20.7021 30.1729 20.251C30.0205 19.7998 29.9443 19.2607 29.9443 18.6338V12.4902H32.0625V18.6514C32.0625 18.9971 32.1035 19.2871 32.1855 19.5215C32.2676 19.75 32.3789 19.9346 32.5195 20.0752C32.6602 20.2158 32.8242 20.3154 33.0117 20.374C33.1992 20.4326 33.3984 20.4619 33.6094 20.4619C34.2129 20.4619 34.6875 20.3447 35.0332 20.1104C35.3848 19.8701 35.6338 19.5479 35.7803 19.1436C35.9326 18.7393 36.0088 18.2852 36.0088 17.7812ZM40.0166 8.5H42.1348V19.9697L41.9326 22H40.0166V8.5ZM48.3398 17.1572V17.3418C48.3398 18.0449 48.2607 18.6924 48.1025 19.2842C47.9502 19.8701 47.7158 20.3799 47.3994 20.8135C47.0889 21.2471 46.7021 21.584 46.2393 21.8242C45.7822 22.0586 45.252 22.1758 44.6484 22.1758C44.0566 22.1758 43.541 22.0645 43.1016 21.8418C42.6621 21.6191 42.293 21.3027 41.9941 20.8926C41.7012 20.4824 41.4639 19.9932 41.2822 19.4248C41.1006 18.8564 40.9717 18.2295 40.8955 17.5439V16.9551C40.9717 16.2637 41.1006 15.6367 41.2822 15.0742C41.4639 14.5059 41.7012 14.0166 41.9941 13.6064C42.293 13.1904 42.6592 12.8711 43.0928 12.6484C43.5322 12.4258 44.0449 12.3145 44.6309 12.3145C45.2402 12.3145 45.7764 12.4316 46.2393 12.666C46.708 12.9004 47.0977 13.2344 47.4082 13.668C47.7188 14.0957 47.9502 14.6055 48.1025 15.1973C48.2607 15.7891 48.3398 16.4424 48.3398 17.1572ZM46.2217 17.3418V17.1572C46.2217 16.7295 46.1865 16.3281 46.1162 15.9531C46.0459 15.5723 45.9287 15.2383 45.7646 14.9512C45.6064 14.6641 45.3896 14.4385 45.1143 14.2744C44.8447 14.1045 44.5078 14.0195 44.1035 14.0195C43.7285 14.0195 43.4062 14.084 43.1367 14.2129C42.8672 14.3418 42.6416 14.5176 42.46 14.7402C42.2783 14.9629 42.1348 15.2207 42.0293 15.5137C41.9297 15.8066 41.8623 16.123 41.8271 16.4629V18.0537C41.8799 18.4932 41.9912 18.8975 42.1611 19.2666C42.3369 19.6299 42.583 19.9229 42.8994 20.1455C43.2158 20.3623 43.623 20.4707 44.1211 20.4707C44.5137 20.4707 44.8447 20.3916 45.1143 20.2334C45.3838 20.0752 45.5977 19.8555 45.7559 19.5742C45.9199 19.2871 46.0371 18.9531 46.1074 18.5723C46.1836 18.1914 46.2217 17.7812 46.2217 17.3418ZM55.4678 19.4248C55.4678 19.2139 55.415 19.0234 55.3096 18.8535C55.2041 18.6777 55.002 18.5195 54.7031 18.3789C54.4102 18.2383 53.9766 18.1094 53.4023 17.9922C52.8984 17.8809 52.4355 17.749 52.0137 17.5967C51.5977 17.4385 51.2402 17.248 50.9414 17.0254C50.6426 16.8027 50.4111 16.5391 50.2471 16.2344C50.083 15.9297 50.001 15.5781 50.001 15.1797C50.001 14.793 50.0859 14.4268 50.2559 14.0811C50.4258 13.7354 50.6689 13.4307 50.9854 13.167C51.3018 12.9033 51.6855 12.6953 52.1367 12.543C52.5938 12.3906 53.1035 12.3145 53.666 12.3145C54.4629 12.3145 55.1455 12.4492 55.7139 12.7188C56.2881 12.9824 56.7275 13.3428 57.0322 13.7998C57.3369 14.251 57.4893 14.7607 57.4893 15.3291H55.3711C55.3711 15.0771 55.3066 14.8428 55.1777 14.626C55.0547 14.4033 54.8672 14.2246 54.6152 14.0898C54.3633 13.9492 54.0469 13.8789 53.666 13.8789C53.3027 13.8789 53.001 13.9375 52.7607 14.0547C52.5264 14.166 52.3506 14.3125 52.2334 14.4941C52.1221 14.6758 52.0664 14.875 52.0664 15.0918C52.0664 15.25 52.0957 15.3936 52.1543 15.5225C52.2188 15.6455 52.3242 15.7598 52.4707 15.8652C52.6172 15.9648 52.8164 16.0586 53.0684 16.1465C53.3262 16.2344 53.6484 16.3193 54.0352 16.4014C54.7617 16.5537 55.3857 16.75 55.9072 16.9902C56.4346 17.2246 56.8389 17.5293 57.1201 17.9043C57.4014 18.2734 57.542 18.7422 57.542 19.3105C57.542 19.7324 57.4512 20.1191 57.2695 20.4707C57.0938 20.8164 56.8359 21.1182 56.4961 21.376C56.1562 21.6279 55.749 21.8242 55.2744 21.9648C54.8057 22.1055 54.2783 22.1758 53.6924 22.1758C52.8311 22.1758 52.1016 22.0234 51.5039 21.7188C50.9062 21.4082 50.4521 21.0127 50.1416 20.5322C49.8369 20.0459 49.6846 19.542 49.6846 19.0205H51.7324C51.7559 19.4131 51.8643 19.7266 52.0576 19.9609C52.2568 20.1895 52.5029 20.3564 52.7959 20.4619C53.0947 20.5615 53.4023 20.6113 53.7188 20.6113C54.0996 20.6113 54.4189 20.5615 54.6768 20.4619C54.9346 20.3564 55.1309 20.2158 55.2656 20.04C55.4004 19.8584 55.4678 19.6533 55.4678 19.4248ZM63.2812 20.4883C63.627 20.4883 63.9375 20.4209 64.2129 20.2861C64.4941 20.1455 64.7197 19.9521 64.8896 19.7061C65.0654 19.46 65.1621 19.1758 65.1797 18.8535H67.1748C67.1631 19.4688 66.9814 20.0283 66.6299 20.5322C66.2783 21.0361 65.8125 21.4375 65.2324 21.7363C64.6523 22.0293 64.0107 22.1758 63.3076 22.1758C62.5811 22.1758 61.9482 22.0527 61.4092 21.8066C60.8701 21.5547 60.4219 21.209 60.0645 20.7695C59.707 20.3301 59.4375 19.8232 59.2559 19.249C59.0801 18.6748 58.9922 18.0596 58.9922 17.4033V17.0957C58.9922 16.4395 59.0801 15.8242 59.2559 15.25C59.4375 14.6699 59.707 14.1602 60.0645 13.7207C60.4219 13.2812 60.8701 12.9385 61.4092 12.6924C61.9482 12.4404 62.5781 12.3145 63.2988 12.3145C64.0605 12.3145 64.7285 12.4668 65.3027 12.7715C65.877 13.0703 66.3281 13.4893 66.6562 14.0283C66.9902 14.5615 67.1631 15.1826 67.1748 15.8916H65.1797C65.1621 15.54 65.0742 15.2236 64.916 14.9424C64.7637 14.6553 64.5469 14.4268 64.2656 14.2568C63.9902 14.0869 63.6592 14.002 63.2725 14.002C62.8447 14.002 62.4902 14.0898 62.209 14.2656C61.9277 14.4355 61.708 14.6699 61.5498 14.9688C61.3916 15.2617 61.2773 15.5928 61.207 15.9619C61.1426 16.3252 61.1104 16.7031 61.1104 17.0957V17.4033C61.1104 17.7959 61.1426 18.1768 61.207 18.5459C61.2715 18.915 61.3828 19.2461 61.541 19.5391C61.7051 19.8262 61.9277 20.0576 62.209 20.2334C62.4902 20.4033 62.8477 20.4883 63.2812 20.4883ZM70.9277 14.3008V22H68.8096V12.4902H70.8311L70.9277 14.3008ZM73.8369 12.4287L73.8193 14.3975C73.6904 14.374 73.5498 14.3564 73.3975 14.3447C73.251 14.333 73.1045 14.3271 72.958 14.3271C72.5947 14.3271 72.2754 14.3799 72 14.4854C71.7246 14.585 71.4932 14.7314 71.3057 14.9248C71.124 15.1123 70.9834 15.3408 70.8838 15.6104C70.7842 15.8799 70.7256 16.1816 70.708 16.5156L70.2246 16.5508C70.2246 15.9531 70.2832 15.3994 70.4004 14.8896C70.5176 14.3799 70.6934 13.9316 70.9277 13.5449C71.168 13.1582 71.4668 12.8564 71.8242 12.6396C72.1875 12.4229 72.6064 12.3145 73.0811 12.3145C73.21 12.3145 73.3477 12.3262 73.4941 12.3496C73.6465 12.373 73.7607 12.3994 73.8369 12.4287ZM77.4316 12.4902V22H75.3047V12.4902H77.4316ZM75.1641 9.99414C75.1641 9.67188 75.2695 9.40527 75.4805 9.19434C75.6973 8.97754 75.9961 8.86914 76.377 8.86914C76.752 8.86914 77.0479 8.97754 77.2646 9.19434C77.4814 9.40527 77.5898 9.67188 77.5898 9.99414C77.5898 10.3105 77.4814 10.5742 77.2646 10.7852C77.0479 10.9961 76.752 11.1016 76.377 11.1016C75.9961 11.1016 75.6973 10.9961 75.4805 10.7852C75.2695 10.5742 75.1641 10.3105 75.1641 9.99414ZM79.7607 8.5H81.8789V19.9697L81.6768 22H79.7607V8.5ZM88.084 17.1572V17.3418C88.084 18.0449 88.0049 18.6924 87.8467 19.2842C87.6943 19.8701 87.46 20.3799 87.1436 20.8135C86.833 21.2471 86.4463 21.584 85.9834 21.8242C85.5264 22.0586 84.9961 22.1758 84.3926 22.1758C83.8008 22.1758 83.2852 22.0645 82.8457 21.8418C82.4062 21.6191 82.0371 21.3027 81.7383 20.8926C81.4453 20.4824 81.208 19.9932 81.0264 19.4248C80.8447 18.8564 80.7158 18.2295 80.6396 17.5439V16.9551C80.7158 16.2637 80.8447 15.6367 81.0264 15.0742C81.208 14.5059 81.4453 14.0166 81.7383 13.6064C82.0371 13.1904 82.4033 12.8711 82.8369 12.6484C83.2764 12.4258 83.7891 12.3145 84.375 12.3145C84.9844 12.3145 85.5205 12.4316 85.9834 12.666C86.4521 12.9004 86.8418 13.2344 87.1523 13.668C87.4629 14.0957 87.6943 14.6055 87.8467 15.1973C88.0049 15.7891 88.084 16.4424 88.084 17.1572ZM85.9658 17.3418V17.1572C85.9658 16.7295 85.9307 16.3281 85.8604 15.9531C85.79 15.5723 85.6729 15.2383 85.5088 14.9512C85.3506 14.6641 85.1338 14.4385 84.8584 14.2744C84.5889 14.1045 84.252 14.0195 83.8477 14.0195C83.4727 14.0195 83.1504 14.084 82.8809 14.2129C82.6113 14.3418 82.3857 14.5176 82.2041 14.7402C82.0225 14.9629 81.8789 15.2207 81.7734 15.5137C81.6738 15.8066 81.6064 16.123 81.5713 16.4629V18.0537C81.624 18.4932 81.7354 18.8975 81.9053 19.2666C82.0811 19.6299 82.3271 19.9229 82.6436 20.1455C82.96 20.3623 83.3672 20.4707 83.8652 20.4707C84.2578 20.4707 84.5889 20.3916 84.8584 20.2334C85.1279 20.0752 85.3418 19.8555 85.5 19.5742C85.6641 19.2871 85.7812 18.9531 85.8516 18.5723C85.9277 18.1914 85.9658 17.7812 85.9658 17.3418ZM94.0693 22.1758C93.3662 22.1758 92.7305 22.0615 92.1621 21.833C91.5996 21.5986 91.1191 21.2734 90.7207 20.8574C90.3281 20.4414 90.0264 19.9521 89.8154 19.3896C89.6045 18.8271 89.499 18.2207 89.499 17.5703V17.2188C89.499 16.4746 89.6074 15.8008 89.8242 15.1973C90.041 14.5938 90.3428 14.0781 90.7295 13.6504C91.1162 13.2168 91.5732 12.8857 92.1006 12.6572C92.6279 12.4287 93.1992 12.3145 93.8145 12.3145C94.4941 12.3145 95.0889 12.4287 95.5986 12.6572C96.1084 12.8857 96.5303 13.208 96.8643 13.624C97.2041 14.0342 97.4561 14.5234 97.6201 15.0918C97.79 15.6602 97.875 16.2871 97.875 16.9727V17.8779H90.5273V16.3574H95.7832V16.1904C95.7715 15.8096 95.6953 15.4521 95.5547 15.1182C95.4199 14.7842 95.2119 14.5146 94.9307 14.3096C94.6494 14.1045 94.2744 14.002 93.8057 14.002C93.4541 14.002 93.1406 14.0781 92.8652 14.2305C92.5957 14.377 92.3701 14.5908 92.1885 14.8721C92.0068 15.1533 91.8662 15.4932 91.7666 15.8916C91.6729 16.2842 91.626 16.7266 91.626 17.2188V17.5703C91.626 17.9863 91.6816 18.373 91.793 18.7305C91.9102 19.082 92.0801 19.3896 92.3027 19.6533C92.5254 19.917 92.7949 20.125 93.1113 20.2773C93.4277 20.4238 93.7881 20.4971 94.1924 20.4971C94.7021 20.4971 95.1562 20.3945 95.5547 20.1895C95.9531 19.9844 96.2988 19.6943 96.5918 19.3193L97.708 20.4004C97.5029 20.6992 97.2363 20.9863 96.9082 21.2617C96.5801 21.5312 96.1787 21.751 95.7041 21.9209C95.2354 22.0908 94.6904 22.1758 94.0693 22.1758ZM101.654 14.3008V22H99.5361V12.4902H101.558L101.654 14.3008ZM104.563 12.4287L104.546 14.3975C104.417 14.374 104.276 14.3564 104.124 14.3447C103.978 14.333 103.831 14.3271 103.685 14.3271C103.321 14.3271 103.002 14.3799 102.727 14.4854C102.451 14.585 102.22 14.7314 102.032 14.9248C101.851 15.1123 101.71 15.3408 101.61 15.6104C101.511 15.8799 101.452 16.1816 101.435 16.5156L100.951 16.5508C100.951 15.9531 101.01 15.3994 101.127 14.8896C101.244 14.3799 101.42 13.9316 101.654 13.5449C101.895 13.1582 102.193 12.8564 102.551 12.6396C102.914 12.4229 103.333 12.3145 103.808 12.3145C103.937 12.3145 104.074 12.3262 104.221 12.3496C104.373 12.373 104.487 12.3994 104.563 12.4287ZM111.226 19.4248C111.226 19.2139 111.173 19.0234 111.067 18.8535C110.962 18.6777 110.76 18.5195 110.461 18.3789C110.168 18.2383 109.734 18.1094 109.16 17.9922C108.656 17.8809 108.193 17.749 107.771 17.5967C107.355 17.4385 106.998 17.248 106.699 17.0254C106.4 16.8027 106.169 16.5391 106.005 16.2344C105.841 15.9297 105.759 15.5781 105.759 15.1797C105.759 14.793 105.844 14.4268 106.014 14.0811C106.184 13.7354 106.427 13.4307 106.743 13.167C107.06 12.9033 107.443 12.6953 107.895 12.543C108.352 12.3906 108.861 12.3145 109.424 12.3145C110.221 12.3145 110.903 12.4492 111.472 12.7188C112.046 12.9824 112.485 13.3428 112.79 13.7998C113.095 14.251 113.247 14.7607 113.247 15.3291H111.129C111.129 15.0771 111.064 14.8428 110.936 14.626C110.812 14.4033 110.625 14.2246 110.373 14.0898C110.121 13.9492 109.805 13.8789 109.424 13.8789C109.061 13.8789 108.759 13.9375 108.519 14.0547C108.284 14.166 108.108 14.3125 107.991 14.4941C107.88 14.6758 107.824 14.875 107.824 15.0918C107.824 15.25 107.854 15.3936 107.912 15.5225C107.977 15.6455 108.082 15.7598 108.229 15.8652C108.375 15.9648 108.574 16.0586 108.826 16.1465C109.084 16.2344 109.406 16.3193 109.793 16.4014C110.52 16.5537 111.144 16.75 111.665 16.9902C112.192 17.2246 112.597 17.5293 112.878 17.9043C113.159 18.2734 113.3 18.7422 113.3 19.3105C113.3 19.7324 113.209 20.1191 113.027 20.4707C112.852 20.8164 112.594 21.1182 112.254 21.376C111.914 21.6279 111.507 21.8242 111.032 21.9648C110.563 22.1055 110.036 22.1758 109.45 22.1758C108.589 22.1758 107.859 22.0234 107.262 21.7188C106.664 21.4082 106.21 21.0127 105.899 20.5322C105.595 20.0459 105.442 19.542 105.442 19.0205H107.49C107.514 19.4131 107.622 19.7266 107.815 19.9609C108.015 20.1895 108.261 20.3564 108.554 20.4619C108.853 20.5615 109.16 20.6113 109.477 20.6113C109.857 20.6113 110.177 20.5615 110.435 20.4619C110.692 20.3564 110.889 20.2158 111.023 20.04C111.158 19.8584 111.226 19.6533 111.226 19.4248Z" fill="black"/>
<path d="M153 15C153 6.71573 159.716 0 168 0H213C221.284 0 228 6.71573 228 15V17C228 25.2843 221.284 32 213 32H168C159.716 32 153 25.2843 153 17V15Z" fill="#FF97FB"/>
<path d="M174.656 9.20312V22H172.45V9.20312H174.656ZM184.957 17.834H187.154C187.084 18.6719 186.85 19.4189 186.451 20.0752C186.053 20.7256 185.493 21.2383 184.772 21.6133C184.052 21.9883 183.176 22.1758 182.145 22.1758C181.354 22.1758 180.642 22.0352 180.009 21.7539C179.376 21.4668 178.834 21.0625 178.383 20.541C177.932 20.0137 177.586 19.3779 177.346 18.6338C177.111 17.8896 176.994 17.0576 176.994 16.1377V15.0742C176.994 14.1543 177.114 13.3223 177.354 12.5781C177.601 11.834 177.952 11.1982 178.409 10.6709C178.866 10.1377 179.414 9.73047 180.053 9.44922C180.697 9.16797 181.421 9.02734 182.224 9.02734C183.243 9.02734 184.104 9.21484 184.808 9.58984C185.511 9.96484 186.056 10.4834 186.442 11.1455C186.835 11.8076 187.075 12.5664 187.163 13.4219H184.966C184.907 12.8711 184.778 12.3994 184.579 12.0068C184.386 11.6143 184.099 11.3154 183.718 11.1104C183.337 10.8994 182.839 10.7939 182.224 10.7939C181.72 10.7939 181.28 10.8877 180.905 11.0752C180.53 11.2627 180.217 11.5381 179.965 11.9014C179.713 12.2646 179.522 12.7129 179.394 13.2461C179.271 13.7734 179.209 14.377 179.209 15.0566V16.1377C179.209 16.7822 179.265 17.3682 179.376 17.8955C179.493 18.417 179.669 18.8652 179.903 19.2402C180.144 19.6152 180.448 19.9053 180.817 20.1104C181.187 20.3154 181.629 20.418 182.145 20.418C182.771 20.418 183.278 20.3184 183.665 20.1191C184.058 19.9199 184.354 19.6299 184.553 19.249C184.758 18.8623 184.893 18.3906 184.957 17.834ZM194.159 9.20312V22H191.971V9.20312H194.159ZM198.176 9.20312V10.9609H187.989V9.20312H198.176ZM199.863 9.20312H204.39C205.362 9.20312 206.191 9.34961 206.877 9.64258C207.562 9.93555 208.087 10.3691 208.45 10.9434C208.819 11.5117 209.004 12.2148 209.004 13.0527C209.004 13.6914 208.887 14.2539 208.652 14.7402C208.418 15.2266 208.087 15.6367 207.659 15.9707C207.231 16.2988 206.722 16.5537 206.13 16.7354L205.462 17.0605H201.393L201.375 15.3115H204.425C204.952 15.3115 205.392 15.2178 205.743 15.0303C206.095 14.8428 206.358 14.5879 206.534 14.2656C206.716 13.9375 206.807 13.5684 206.807 13.1582C206.807 12.7129 206.719 12.3262 206.543 11.998C206.373 11.6641 206.109 11.4092 205.752 11.2334C205.395 11.0518 204.94 10.9609 204.39 10.9609H202.069V22H199.863V9.20312ZM207.167 22L204.161 16.252L206.473 16.2432L209.522 21.8857V22H207.167Z" fill="black"/>
<path d="M248 15C248 6.71573 254.716 0 263 0H304C312.284 0 319 6.71573 319 15V17C319 25.2843 312.284 32 304 32H263C254.716 32 248 25.2843 248 17V15Z" fill="#A990EE"/>
<path d="M272.284 10.9082L268.461 22H266.149L270.966 9.20312H272.442L272.284 10.9082ZM275.483 22L271.651 10.9082L271.484 9.20312H272.97L277.804 22H275.483ZM275.299 17.2539V19.0029H268.338V17.2539H275.299ZM282.884 19.6621L286.25 9.20312H288.685L284.097 22H282.453L282.884 19.6621ZM279.772 9.20312L283.112 19.6621L283.569 22H281.917L277.347 9.20312H279.772ZM293.835 22H291.102L291.119 20.251H293.835C294.626 20.251 295.288 20.0781 295.821 19.7324C296.36 19.3867 296.765 18.8916 297.034 18.2471C297.31 17.6025 297.447 16.835 297.447 15.9443V15.25C297.447 14.5586 297.368 13.9463 297.21 13.4131C297.058 12.8799 296.829 12.4316 296.524 12.0684C296.226 11.7051 295.856 11.4297 295.417 11.2422C294.983 11.0547 294.482 10.9609 293.914 10.9609H291.049V9.20312H293.914C294.764 9.20312 295.54 9.34668 296.243 9.63379C296.946 9.91504 297.553 10.3223 298.062 10.8555C298.578 11.3887 298.974 12.0273 299.249 12.7715C299.524 13.5156 299.662 14.3477 299.662 15.2676V15.9443C299.662 16.8643 299.524 17.6963 299.249 18.4404C298.974 19.1846 298.578 19.8232 298.062 20.3564C297.547 20.8838 296.932 21.291 296.217 21.5781C295.508 21.8594 294.714 22 293.835 22ZM292.323 9.20312V22H290.117V9.20312H292.323Z" fill="black"/>
<path d="M339 15C339 6.71573 345.716 0 354 0H460C468.284 0 475 6.71573 475 15V17C475 25.2843 468.284 32 460 32H354C345.716 32 339 25.2843 339 17V15Z" fill="#5FE2FF"/>
<path d="M360.656 9.20312V22H358.45V9.20312H360.656ZM365.306 14.4238V22H363.188V12.4902H365.183L365.306 14.4238ZM364.963 16.8936L364.242 16.8848C364.242 16.2285 364.324 15.6221 364.488 15.0654C364.652 14.5088 364.893 14.0254 365.209 13.6152C365.525 13.1992 365.918 12.8799 366.387 12.6572C366.861 12.4287 367.409 12.3145 368.03 12.3145C368.464 12.3145 368.859 12.3789 369.217 12.5078C369.58 12.6309 369.894 12.8271 370.157 13.0967C370.427 13.3662 370.632 13.7119 370.772 14.1338C370.919 14.5557 370.992 15.0654 370.992 15.6631V22H368.874V15.8477C368.874 15.3848 368.804 15.0215 368.663 14.7578C368.528 14.4941 368.332 14.3066 368.074 14.1953C367.822 14.0781 367.521 14.0195 367.169 14.0195C366.771 14.0195 366.431 14.0957 366.149 14.248C365.874 14.4004 365.648 14.6084 365.473 14.8721C365.297 15.1357 365.168 15.4404 365.086 15.7861C365.004 16.1318 364.963 16.501 364.963 16.8936ZM370.86 16.3311L369.867 16.5508C369.867 15.9766 369.946 15.4346 370.104 14.9248C370.269 14.4092 370.506 13.958 370.816 13.5713C371.133 13.1787 371.522 12.8711 371.985 12.6484C372.448 12.4258 372.979 12.3145 373.576 12.3145C374.062 12.3145 374.496 12.3818 374.877 12.5166C375.264 12.6455 375.592 12.8506 375.861 13.1318C376.131 13.4131 376.336 13.7793 376.477 14.2305C376.617 14.6758 376.688 15.2148 376.688 15.8477V22H374.561V15.8389C374.561 15.3584 374.49 14.9863 374.35 14.7227C374.215 14.459 374.021 14.2773 373.77 14.1777C373.518 14.0723 373.216 14.0195 372.864 14.0195C372.536 14.0195 372.246 14.0811 371.994 14.2041C371.748 14.3213 371.54 14.4883 371.37 14.7051C371.2 14.916 371.071 15.1592 370.983 15.4346C370.901 15.71 370.86 16.0088 370.86 16.3311ZM380.994 14.3184V25.6562H378.876V12.4902H380.827L380.994 14.3184ZM387.19 17.1572V17.3418C387.19 18.0332 387.108 18.6748 386.944 19.2666C386.786 19.8525 386.549 20.3652 386.232 20.8047C385.922 21.2383 385.538 21.5752 385.081 21.8154C384.624 22.0557 384.097 22.1758 383.499 22.1758C382.907 22.1758 382.389 22.0674 381.943 21.8506C381.504 21.6279 381.132 21.3145 380.827 20.9102C380.522 20.5059 380.276 20.0312 380.089 19.4863C379.907 18.9355 379.778 18.332 379.702 17.6758V16.9639C379.778 16.2666 379.907 15.6338 380.089 15.0654C380.276 14.4971 380.522 14.0078 380.827 13.5977C381.132 13.1875 381.504 12.8711 381.943 12.6484C382.383 12.4258 382.896 12.3145 383.481 12.3145C384.079 12.3145 384.609 12.4316 385.072 12.666C385.535 12.8945 385.925 13.2227 386.241 13.6504C386.558 14.0723 386.795 14.582 386.953 15.1797C387.111 15.7715 387.19 16.4307 387.19 17.1572ZM385.072 17.3418V17.1572C385.072 16.7178 385.031 16.3105 384.949 15.9355C384.867 15.5547 384.738 15.2207 384.562 14.9336C384.387 14.6465 384.161 14.4238 383.886 14.2656C383.616 14.1016 383.291 14.0195 382.91 14.0195C382.535 14.0195 382.213 14.084 381.943 14.2129C381.674 14.3359 381.448 14.5088 381.267 14.7314C381.085 14.9541 380.944 15.2148 380.845 15.5137C380.745 15.8066 380.675 16.126 380.634 16.4717V18.1768C380.704 18.5986 380.824 18.9854 380.994 19.3369C381.164 19.6885 381.404 19.9697 381.715 20.1807C382.031 20.3857 382.436 20.4883 382.928 20.4883C383.309 20.4883 383.634 20.4062 383.903 20.2422C384.173 20.0781 384.393 19.8525 384.562 19.5654C384.738 19.2725 384.867 18.9355 384.949 18.5547C385.031 18.1738 385.072 17.7695 385.072 17.3418ZM391.119 14.3008V22H389.001V12.4902H391.022L391.119 14.3008ZM394.028 12.4287L394.011 14.3975C393.882 14.374 393.741 14.3564 393.589 14.3447C393.442 14.333 393.296 14.3271 393.149 14.3271C392.786 14.3271 392.467 14.3799 392.191 14.4854C391.916 14.585 391.685 14.7314 391.497 14.9248C391.315 15.1123 391.175 15.3408 391.075 15.6104C390.976 15.8799 390.917 16.1816 390.899 16.5156L390.416 16.5508C390.416 15.9531 390.475 15.3994 390.592 14.8896C390.709 14.3799 390.885 13.9316 391.119 13.5449C391.359 13.1582 391.658 12.8564 392.016 12.6396C392.379 12.4229 392.798 12.3145 393.272 12.3145C393.401 12.3145 393.539 12.3262 393.686 12.3496C393.838 12.373 393.952 12.3994 394.028 12.4287ZM399.372 22.1758C398.669 22.1758 398.033 22.0615 397.465 21.833C396.902 21.5986 396.422 21.2734 396.023 20.8574C395.631 20.4414 395.329 19.9521 395.118 19.3896C394.907 18.8271 394.802 18.2207 394.802 17.5703V17.2188C394.802 16.4746 394.91 15.8008 395.127 15.1973C395.344 14.5938 395.646 14.0781 396.032 13.6504C396.419 13.2168 396.876 12.8857 397.403 12.6572C397.931 12.4287 398.502 12.3145 399.117 12.3145C399.797 12.3145 400.392 12.4287 400.901 12.6572C401.411 12.8857 401.833 13.208 402.167 13.624C402.507 14.0342 402.759 14.5234 402.923 15.0918C403.093 15.6602 403.178 16.2871 403.178 16.9727V17.8779H395.83V16.3574H401.086V16.1904C401.074 15.8096 400.998 15.4521 400.857 15.1182C400.723 14.7842 400.515 14.5146 400.233 14.3096C399.952 14.1045 399.577 14.002 399.108 14.002C398.757 14.002 398.443 14.0781 398.168 14.2305C397.898 14.377 397.673 14.5908 397.491 14.8721C397.31 15.1533 397.169 15.4932 397.069 15.8916C396.976 16.2842 396.929 16.7266 396.929 17.2188V17.5703C396.929 17.9863 396.984 18.373 397.096 18.7305C397.213 19.082 397.383 19.3896 397.605 19.6533C397.828 19.917 398.098 20.125 398.414 20.2773C398.73 20.4238 399.091 20.4971 399.495 20.4971C400.005 20.4971 400.459 20.3945 400.857 20.1895C401.256 19.9844 401.602 19.6943 401.895 19.3193L403.011 20.4004C402.806 20.6992 402.539 20.9863 402.211 21.2617C401.883 21.5312 401.481 21.751 401.007 21.9209C400.538 22.0908 399.993 22.1758 399.372 22.1758ZM410.165 19.4248C410.165 19.2139 410.112 19.0234 410.007 18.8535C409.901 18.6777 409.699 18.5195 409.4 18.3789C409.107 18.2383 408.674 18.1094 408.1 17.9922C407.596 17.8809 407.133 17.749 406.711 17.5967C406.295 17.4385 405.938 17.248 405.639 17.0254C405.34 16.8027 405.108 16.5391 404.944 16.2344C404.78 15.9297 404.698 15.5781 404.698 15.1797C404.698 14.793 404.783 14.4268 404.953 14.0811C405.123 13.7354 405.366 13.4307 405.683 13.167C405.999 12.9033 406.383 12.6953 406.834 12.543C407.291 12.3906 407.801 12.3145 408.363 12.3145C409.16 12.3145 409.843 12.4492 410.411 12.7188C410.985 12.9824 411.425 13.3428 411.729 13.7998C412.034 14.251 412.187 14.7607 412.187 15.3291H410.068C410.068 15.0771 410.004 14.8428 409.875 14.626C409.752 14.4033 409.564 14.2246 409.312 14.0898C409.061 13.9492 408.744 13.8789 408.363 13.8789C408 13.8789 407.698 13.9375 407.458 14.0547C407.224 14.166 407.048 14.3125 406.931 14.4941C406.819 14.6758 406.764 14.875 406.764 15.0918C406.764 15.25 406.793 15.3936 406.852 15.5225C406.916 15.6455 407.021 15.7598 407.168 15.8652C407.314 15.9648 407.514 16.0586 407.766 16.1465C408.023 16.2344 408.346 16.3193 408.732 16.4014C409.459 16.5537 410.083 16.75 410.604 16.9902C411.132 17.2246 411.536 17.5293 411.817 17.9043C412.099 18.2734 412.239 18.7422 412.239 19.3105C412.239 19.7324 412.148 20.1191 411.967 20.4707C411.791 20.8164 411.533 21.1182 411.193 21.376C410.854 21.6279 410.446 21.8242 409.972 21.9648C409.503 22.1055 408.976 22.1758 408.39 22.1758C407.528 22.1758 406.799 22.0234 406.201 21.7188C405.604 21.4082 405.149 21.0127 404.839 20.5322C404.534 20.0459 404.382 19.542 404.382 19.0205H406.43C406.453 19.4131 406.562 19.7266 406.755 19.9609C406.954 20.1895 407.2 20.3564 407.493 20.4619C407.792 20.5615 408.1 20.6113 408.416 20.6113C408.797 20.6113 409.116 20.5615 409.374 20.4619C409.632 20.3564 409.828 20.2158 409.963 20.04C410.098 19.8584 410.165 19.6533 410.165 19.4248ZM419.429 19.4248C419.429 19.2139 419.376 19.0234 419.271 18.8535C419.165 18.6777 418.963 18.5195 418.664 18.3789C418.371 18.2383 417.938 18.1094 417.363 17.9922C416.859 17.8809 416.396 17.749 415.975 17.5967C415.559 17.4385 415.201 17.248 414.902 17.0254C414.604 16.8027 414.372 16.5391 414.208 16.2344C414.044 15.9297 413.962 15.5781 413.962 15.1797C413.962 14.793 414.047 14.4268 414.217 14.0811C414.387 13.7354 414.63 13.4307 414.946 13.167C415.263 12.9033 415.646 12.6953 416.098 12.543C416.555 12.3906 417.064 12.3145 417.627 12.3145C418.424 12.3145 419.106 12.4492 419.675 12.7188C420.249 12.9824 420.688 13.3428 420.993 13.7998C421.298 14.251 421.45 14.7607 421.45 15.3291H419.332C419.332 15.0771 419.268 14.8428 419.139 14.626C419.016 14.4033 418.828 14.2246 418.576 14.0898C418.324 13.9492 418.008 13.8789 417.627 13.8789C417.264 13.8789 416.962 13.9375 416.722 14.0547C416.487 14.166 416.312 14.3125 416.194 14.4941C416.083 14.6758 416.027 14.875 416.027 15.0918C416.027 15.25 416.057 15.3936 416.115 15.5225C416.18 15.6455 416.285 15.7598 416.432 15.8652C416.578 15.9648 416.777 16.0586 417.029 16.1465C417.287 16.2344 417.609 16.3193 417.996 16.4014C418.723 16.5537 419.347 16.75 419.868 16.9902C420.396 17.2246 420.8 17.5293 421.081 17.9043C421.362 18.2734 421.503 18.7422 421.503 19.3105C421.503 19.7324 421.412 20.1191 421.23 20.4707C421.055 20.8164 420.797 21.1182 420.457 21.376C420.117 21.6279 419.71 21.8242 419.235 21.9648C418.767 22.1055 418.239 22.1758 417.653 22.1758C416.792 22.1758 416.062 22.0234 415.465 21.7188C414.867 21.4082 414.413 21.0127 414.103 20.5322C413.798 20.0459 413.646 19.542 413.646 19.0205H415.693C415.717 19.4131 415.825 19.7266 416.019 19.9609C416.218 20.1895 416.464 20.3564 416.757 20.4619C417.056 20.5615 417.363 20.6113 417.68 20.6113C418.061 20.6113 418.38 20.5615 418.638 20.4619C418.896 20.3564 419.092 20.2158 419.227 20.04C419.361 19.8584 419.429 19.6533 419.429 19.4248ZM425.625 12.4902V22H423.498V12.4902H425.625ZM423.357 9.99414C423.357 9.67188 423.463 9.40527 423.674 9.19434C423.891 8.97754 424.189 8.86914 424.57 8.86914C424.945 8.86914 425.241 8.97754 425.458 9.19434C425.675 9.40527 425.783 9.67188 425.783 9.99414C425.783 10.3105 425.675 10.5742 425.458 10.7852C425.241 10.9961 424.945 11.1016 424.57 11.1016C424.189 11.1016 423.891 10.9961 423.674 10.7852C423.463 10.5742 423.357 10.3105 423.357 9.99414ZM427.541 17.3506V17.1484C427.541 16.4629 427.641 15.8271 427.84 15.2412C428.039 14.6494 428.326 14.1367 428.701 13.7031C429.082 13.2637 429.545 12.9238 430.09 12.6836C430.641 12.4375 431.262 12.3145 431.953 12.3145C432.65 12.3145 433.271 12.4375 433.816 12.6836C434.367 12.9238 434.833 13.2637 435.214 13.7031C435.595 14.1367 435.885 14.6494 436.084 15.2412C436.283 15.8271 436.383 16.4629 436.383 17.1484V17.3506C436.383 18.0361 436.283 18.6719 436.084 19.2578C435.885 19.8438 435.595 20.3564 435.214 20.7959C434.833 21.2295 434.37 21.5693 433.825 21.8154C433.28 22.0557 432.662 22.1758 431.971 22.1758C431.273 22.1758 430.649 22.0557 430.099 21.8154C429.554 21.5693 429.091 21.2295 428.71 20.7959C428.329 20.3564 428.039 19.8438 427.84 19.2578C427.641 18.6719 427.541 18.0361 427.541 17.3506ZM429.659 17.1484V17.3506C429.659 17.7783 429.703 18.1826 429.791 18.5635C429.879 18.9443 430.017 19.2783 430.204 19.5654C430.392 19.8525 430.632 20.0781 430.925 20.2422C431.218 20.4062 431.566 20.4883 431.971 20.4883C432.363 20.4883 432.703 20.4062 432.99 20.2422C433.283 20.0781 433.523 19.8525 433.711 19.5654C433.898 19.2783 434.036 18.9443 434.124 18.5635C434.218 18.1826 434.265 17.7783 434.265 17.3506V17.1484C434.265 16.7266 434.218 16.3281 434.124 15.9531C434.036 15.5723 433.896 15.2354 433.702 14.9424C433.515 14.6494 433.274 14.4209 432.981 14.2568C432.694 14.0869 432.352 14.002 431.953 14.002C431.555 14.002 431.209 14.0869 430.916 14.2568C430.629 14.4209 430.392 14.6494 430.204 14.9424C430.017 15.2354 429.879 15.5723 429.791 15.9531C429.703 16.3281 429.659 16.7266 429.659 17.1484ZM440.259 14.5205V22H438.141V12.4902H440.136L440.259 14.5205ZM439.881 16.8936L439.195 16.8848C439.201 16.2109 439.295 15.5928 439.477 15.0303C439.664 14.4678 439.922 13.9844 440.25 13.5801C440.584 13.1758 440.982 12.8652 441.445 12.6484C441.908 12.4258 442.424 12.3145 442.992 12.3145C443.449 12.3145 443.862 12.3789 444.231 12.5078C444.606 12.6309 444.926 12.833 445.189 13.1143C445.459 13.3955 445.664 13.7617 445.805 14.2129C445.945 14.6582 446.016 15.2061 446.016 15.8564V22H443.889V15.8477C443.889 15.3906 443.821 15.0303 443.687 14.7666C443.558 14.4971 443.367 14.3066 443.115 14.1953C442.869 14.0781 442.562 14.0195 442.192 14.0195C441.829 14.0195 441.504 14.0957 441.217 14.248C440.93 14.4004 440.687 14.6084 440.487 14.8721C440.294 15.1357 440.145 15.4404 440.039 15.7861C439.934 16.1318 439.881 16.501 439.881 16.8936ZM453.513 19.4248C453.513 19.2139 453.46 19.0234 453.354 18.8535C453.249 18.6777 453.047 18.5195 452.748 18.3789C452.455 18.2383 452.021 18.1094 451.447 17.9922C450.943 17.8809 450.48 17.749 450.059 17.5967C449.643 17.4385 449.285 17.248 448.986 17.0254C448.688 16.8027 448.456 16.5391 448.292 16.2344C448.128 15.9297 448.046 15.5781 448.046 15.1797C448.046 14.793 448.131 14.4268 448.301 14.0811C448.471 13.7354 448.714 13.4307 449.03 13.167C449.347 12.9033 449.73 12.6953 450.182 12.543C450.639 12.3906 451.148 12.3145 451.711 12.3145C452.508 12.3145 453.19 12.4492 453.759 12.7188C454.333 12.9824 454.772 13.3428 455.077 13.7998C455.382 14.251 455.534 14.7607 455.534 15.3291H453.416C453.416 15.0771 453.352 14.8428 453.223 14.626C453.1 14.4033 452.912 14.2246 452.66 14.0898C452.408 13.9492 452.092 13.8789 451.711 13.8789C451.348 13.8789 451.046 13.9375 450.806 14.0547C450.571 14.166 450.396 14.3125 450.278 14.4941C450.167 14.6758 450.111 14.875 450.111 15.0918C450.111 15.25 450.141 15.3936 450.199 15.5225C450.264 15.6455 450.369 15.7598 450.516 15.8652C450.662 15.9648 450.861 16.0586 451.113 16.1465C451.371 16.2344 451.693 16.3193 452.08 16.4014C452.807 16.5537 453.431 16.75 453.952 16.9902C454.479 17.2246 454.884 17.5293 455.165 17.9043C455.446 18.2734 455.587 18.7422 455.587 19.3105C455.587 19.7324 455.496 20.1191 455.314 20.4707C455.139 20.8164 454.881 21.1182 454.541 21.376C454.201 21.6279 453.794 21.8242 453.319 21.9648C452.851 22.1055 452.323 22.1758 451.737 22.1758C450.876 22.1758 450.146 22.0234 449.549 21.7188C448.951 21.4082 448.497 21.0127 448.187 20.5322C447.882 20.0459 447.729 19.542 447.729 19.0205H449.777C449.801 19.4131 449.909 19.7266 450.103 19.9609C450.302 20.1895 450.548 20.3564 450.841 20.4619C451.14 20.5615 451.447 20.6113 451.764 20.6113C452.145 20.6113 452.464 20.5615 452.722 20.4619C452.979 20.3564 453.176 20.2158 453.311 20.04C453.445 19.8584 453.513 19.6533 453.513 19.4248Z" fill="black"/>
<path d="M0 71C0 62.7157 6.71573 56 15 56H125C133.284 56 140 62.7157 140 71V73C140 81.2843 133.284 88 125 88H15C6.71573 88 0 81.2843 0 73V71Z" fill="#5FFFBC"/>
<path d="M22.5088 75.126L25.0576 65.2031H26.3936L26.2441 67.7607L23.5195 78H22.1309L22.5088 75.126ZM20.6016 65.2031L22.667 75.0469L22.8516 78H21.375L18.4131 65.2031H20.6016ZM29.2852 75.0205L31.3242 65.2031H33.5215L30.5596 78H29.083L29.2852 75.0205ZM26.9121 65.2031L29.4346 75.1523L29.8037 78H28.415L25.7344 67.7607L25.5938 65.2031H26.9121ZM40.0078 76.0928V71.5576C40.0078 71.2178 39.9463 70.9248 39.8232 70.6787C39.7002 70.4326 39.5127 70.2422 39.2607 70.1074C39.0146 69.9727 38.7041 69.9053 38.3291 69.9053C37.9834 69.9053 37.6846 69.9639 37.4326 70.0811C37.1807 70.1982 36.9844 70.3564 36.8438 70.5557C36.7031 70.7549 36.6328 70.9805 36.6328 71.2324H34.5234C34.5234 70.8574 34.6143 70.4941 34.7959 70.1426C34.9775 69.791 35.2412 69.4775 35.5869 69.2021C35.9326 68.9268 36.3457 68.71 36.8262 68.5518C37.3066 68.3936 37.8457 68.3145 38.4434 68.3145C39.1582 68.3145 39.791 68.4346 40.3418 68.6748C40.8984 68.915 41.335 69.2783 41.6514 69.7646C41.9736 70.2451 42.1348 70.8486 42.1348 71.5752V75.8027C42.1348 76.2363 42.1641 76.626 42.2227 76.9717C42.2871 77.3115 42.3779 77.6074 42.4951 77.8594V78H40.3242C40.2246 77.7715 40.1455 77.4814 40.0869 77.1299C40.0342 76.7725 40.0078 76.4268 40.0078 76.0928ZM40.3154 72.2168L40.333 73.5264H38.8125C38.4199 73.5264 38.0742 73.5645 37.7754 73.6406C37.4766 73.7109 37.2275 73.8164 37.0283 73.957C36.8291 74.0977 36.6797 74.2676 36.5801 74.4668C36.4805 74.666 36.4307 74.8916 36.4307 75.1436C36.4307 75.3955 36.4893 75.627 36.6064 75.8379C36.7236 76.043 36.8936 76.2041 37.1162 76.3213C37.3447 76.4385 37.6201 76.4971 37.9424 76.4971C38.376 76.4971 38.7539 76.4092 39.0762 76.2334C39.4043 76.0518 39.6621 75.832 39.8496 75.5742C40.0371 75.3105 40.1367 75.0615 40.1484 74.8271L40.834 75.7676C40.7637 76.0078 40.6436 76.2656 40.4736 76.541C40.3037 76.8164 40.0811 77.0801 39.8057 77.332C39.5361 77.5781 39.2109 77.7803 38.8301 77.9385C38.4551 78.0967 38.0215 78.1758 37.5293 78.1758C36.9082 78.1758 36.3545 78.0527 35.8682 77.8066C35.3818 77.5547 35.001 77.2178 34.7256 76.7959C34.4502 76.3682 34.3125 75.8848 34.3125 75.3457C34.3125 74.8418 34.4062 74.3965 34.5938 74.0098C34.7871 73.6172 35.0684 73.2891 35.4375 73.0254C35.8125 72.7617 36.2695 72.5625 36.8086 72.4277C37.3477 72.2871 37.9629 72.2168 38.6543 72.2168H40.3154ZM48.709 68.4902V70.0371H43.3477V68.4902H48.709ZM44.8945 66.1611H47.0127V75.3721C47.0127 75.665 47.0537 75.8906 47.1357 76.0488C47.2236 76.2012 47.3438 76.3037 47.4961 76.3564C47.6484 76.4092 47.8271 76.4355 48.0322 76.4355C48.1787 76.4355 48.3193 76.4268 48.4541 76.4092C48.5889 76.3916 48.6973 76.374 48.7793 76.3564L48.7881 77.9736C48.6123 78.0264 48.4072 78.0732 48.1729 78.1143C47.9443 78.1553 47.6807 78.1758 47.3818 78.1758C46.8955 78.1758 46.4648 78.0908 46.0898 77.9209C45.7148 77.7451 45.4219 77.4609 45.2109 77.0684C45 76.6758 44.8945 76.1543 44.8945 75.5039V66.1611ZM54.2285 76.4883C54.5742 76.4883 54.8848 76.4209 55.1602 76.2861C55.4414 76.1455 55.667 75.9521 55.8369 75.7061C56.0127 75.46 56.1094 75.1758 56.127 74.8535H58.1221C58.1104 75.4688 57.9287 76.0283 57.5771 76.5322C57.2256 77.0361 56.7598 77.4375 56.1797 77.7363C55.5996 78.0293 54.958 78.1758 54.2549 78.1758C53.5283 78.1758 52.8955 78.0527 52.3564 77.8066C51.8174 77.5547 51.3691 77.209 51.0117 76.7695C50.6543 76.3301 50.3848 75.8232 50.2031 75.249C50.0273 74.6748 49.9395 74.0596 49.9395 73.4033V73.0957C49.9395 72.4395 50.0273 71.8242 50.2031 71.25C50.3848 70.6699 50.6543 70.1602 51.0117 69.7207C51.3691 69.2812 51.8174 68.9385 52.3564 68.6924C52.8955 68.4404 53.5254 68.3145 54.2461 68.3145C55.0078 68.3145 55.6758 68.4668 56.25 68.7715C56.8242 69.0703 57.2754 69.4893 57.6035 70.0283C57.9375 70.5615 58.1104 71.1826 58.1221 71.8916H56.127C56.1094 71.54 56.0215 71.2236 55.8633 70.9424C55.7109 70.6553 55.4941 70.4268 55.2129 70.2568C54.9375 70.0869 54.6064 70.002 54.2197 70.002C53.792 70.002 53.4375 70.0898 53.1562 70.2656C52.875 70.4355 52.6553 70.6699 52.4971 70.9688C52.3389 71.2617 52.2246 71.5928 52.1543 71.9619C52.0898 72.3252 52.0576 72.7031 52.0576 73.0957V73.4033C52.0576 73.7959 52.0898 74.1768 52.1543 74.5459C52.2188 74.915 52.3301 75.2461 52.4883 75.5391C52.6523 75.8262 52.875 76.0576 53.1562 76.2334C53.4375 76.4033 53.7949 76.4883 54.2285 76.4883ZM61.8398 64.5V78H59.7305V64.5H61.8398ZM61.4707 72.8936L60.7852 72.8848C60.791 72.2285 60.8818 71.6221 61.0576 71.0654C61.2393 70.5088 61.4912 70.0254 61.8135 69.6152C62.1416 69.1992 62.5342 68.8799 62.9912 68.6572C63.4482 68.4287 63.9551 68.3145 64.5117 68.3145C64.9805 68.3145 65.4023 68.3789 65.7773 68.5078C66.1582 68.6367 66.4863 68.8447 66.7617 69.1318C67.0371 69.4131 67.2451 69.7822 67.3857 70.2393C67.5322 70.6904 67.6055 71.2412 67.6055 71.8916V78H65.4785V71.874C65.4785 71.417 65.4111 71.0537 65.2764 70.7842C65.1475 70.5146 64.957 70.3213 64.7051 70.2041C64.4531 70.0811 64.1455 70.0195 63.7822 70.0195C63.4014 70.0195 63.0645 70.0957 62.7715 70.248C62.4844 70.4004 62.2441 70.6084 62.0508 70.8721C61.8574 71.1357 61.7109 71.4404 61.6113 71.7861C61.5176 72.1318 61.4707 72.501 61.4707 72.8936ZM82.8984 70.5469V72.2959H76.1045V70.5469H82.8984ZM76.6494 65.2031V78H74.4434V65.2031H76.6494ZM84.5947 65.2031V78H82.3975V65.2031H84.5947ZM86.6074 73.3506V73.1484C86.6074 72.4629 86.707 71.8271 86.9062 71.2412C87.1055 70.6494 87.3926 70.1367 87.7676 69.7031C88.1484 69.2637 88.6113 68.9238 89.1562 68.6836C89.707 68.4375 90.3281 68.3145 91.0195 68.3145C91.7168 68.3145 92.3379 68.4375 92.8828 68.6836C93.4336 68.9238 93.8994 69.2637 94.2803 69.7031C94.6611 70.1367 94.9512 70.6494 95.1504 71.2412C95.3496 71.8271 95.4492 72.4629 95.4492 73.1484V73.3506C95.4492 74.0361 95.3496 74.6719 95.1504 75.2578C94.9512 75.8438 94.6611 76.3564 94.2803 76.7959C93.8994 77.2295 93.4365 77.5693 92.8916 77.8154C92.3467 78.0557 91.7285 78.1758 91.0371 78.1758C90.3398 78.1758 89.7158 78.0557 89.165 77.8154C88.6201 77.5693 88.1572 77.2295 87.7764 76.7959C87.3955 76.3564 87.1055 75.8438 86.9062 75.2578C86.707 74.6719 86.6074 74.0361 86.6074 73.3506ZM88.7256 73.1484V73.3506C88.7256 73.7783 88.7695 74.1826 88.8574 74.5635C88.9453 74.9443 89.083 75.2783 89.2705 75.5654C89.458 75.8525 89.6982 76.0781 89.9912 76.2422C90.2842 76.4062 90.6328 76.4883 91.0371 76.4883C91.4297 76.4883 91.7695 76.4062 92.0566 76.2422C92.3496 76.0781 92.5898 75.8525 92.7773 75.5654C92.9648 75.2783 93.1025 74.9443 93.1904 74.5635C93.2842 74.1826 93.3311 73.7783 93.3311 73.3506V73.1484C93.3311 72.7266 93.2842 72.3281 93.1904 71.9531C93.1025 71.5723 92.9619 71.2354 92.7686 70.9424C92.5811 70.6494 92.3408 70.4209 92.0479 70.2568C91.7607 70.0869 91.418 70.002 91.0195 70.002C90.6211 70.002 90.2754 70.0869 89.9824 70.2568C89.6953 70.4209 89.458 70.6494 89.2705 70.9424C89.083 71.2354 88.9453 71.5723 88.8574 71.9531C88.7695 72.3281 88.7256 72.7266 88.7256 73.1484ZM102.946 75.7588V68.4902H105.073V78H103.069L102.946 75.7588ZM103.245 73.7812L103.957 73.7637C103.957 74.4023 103.887 74.9912 103.746 75.5303C103.605 76.0635 103.389 76.5293 103.096 76.9277C102.803 77.3203 102.428 77.6279 101.971 77.8506C101.514 78.0674 100.966 78.1758 100.327 78.1758C99.8643 78.1758 99.4395 78.1084 99.0527 77.9736C98.666 77.8389 98.332 77.6309 98.0508 77.3496C97.7754 77.0684 97.5615 76.7021 97.4092 76.251C97.2568 75.7998 97.1807 75.2607 97.1807 74.6338V68.4902H99.2988V74.6514C99.2988 74.9971 99.3398 75.2871 99.4219 75.5215C99.5039 75.75 99.6152 75.9346 99.7559 76.0752C99.8965 76.2158 100.061 76.3154 100.248 76.374C100.436 76.4326 100.635 76.4619 100.846 76.4619C101.449 76.4619 101.924 76.3447 102.27 76.1104C102.621 75.8701 102.87 75.5479 103.017 75.1436C103.169 74.7393 103.245 74.2852 103.245 73.7812ZM109.371 70.3008V78H107.253V68.4902H109.274L109.371 70.3008ZM112.28 68.4287L112.263 70.3975C112.134 70.374 111.993 70.3564 111.841 70.3447C111.694 70.333 111.548 70.3271 111.401 70.3271C111.038 70.3271 110.719 70.3799 110.443 70.4854C110.168 70.585 109.937 70.7314 109.749 70.9248C109.567 71.1123 109.427 71.3408 109.327 71.6104C109.228 71.8799 109.169 72.1816 109.151 72.5156L108.668 72.5508C108.668 71.9531 108.727 71.3994 108.844 70.8896C108.961 70.3799 109.137 69.9316 109.371 69.5449C109.611 69.1582 109.91 68.8564 110.268 68.6396C110.631 68.4229 111.05 68.3145 111.524 68.3145C111.653 68.3145 111.791 68.3262 111.938 68.3496C112.09 68.373 112.204 68.3994 112.28 68.4287ZM118.942 75.4248C118.942 75.2139 118.89 75.0234 118.784 74.8535C118.679 74.6777 118.477 74.5195 118.178 74.3789C117.885 74.2383 117.451 74.1094 116.877 73.9922C116.373 73.8809 115.91 73.749 115.488 73.5967C115.072 73.4385 114.715 73.248 114.416 73.0254C114.117 72.8027 113.886 72.5391 113.722 72.2344C113.558 71.9297 113.476 71.5781 113.476 71.1797C113.476 70.793 113.561 70.4268 113.73 70.0811C113.9 69.7354 114.144 69.4307 114.46 69.167C114.776 68.9033 115.16 68.6953 115.611 68.543C116.068 68.3906 116.578 68.3145 117.141 68.3145C117.938 68.3145 118.62 68.4492 119.188 68.7188C119.763 68.9824 120.202 69.3428 120.507 69.7998C120.812 70.251 120.964 70.7607 120.964 71.3291H118.846C118.846 71.0771 118.781 70.8428 118.652 70.626C118.529 70.4033 118.342 70.2246 118.09 70.0898C117.838 69.9492 117.521 69.8789 117.141 69.8789C116.777 69.8789 116.476 69.9375 116.235 70.0547C116.001 70.166 115.825 70.3125 115.708 70.4941C115.597 70.6758 115.541 70.875 115.541 71.0918C115.541 71.25 115.57 71.3936 115.629 71.5225C115.693 71.6455 115.799 71.7598 115.945 71.8652C116.092 71.9648 116.291 72.0586 116.543 72.1465C116.801 72.2344 117.123 72.3193 117.51 72.4014C118.236 72.5537 118.86 72.75 119.382 72.9902C119.909 73.2246 120.313 73.5293 120.595 73.9043C120.876 74.2734 121.017 74.7422 121.017 75.3105C121.017 75.7324 120.926 76.1191 120.744 76.4707C120.568 76.8164 120.311 77.1182 119.971 77.376C119.631 77.6279 119.224 77.8242 118.749 77.9648C118.28 78.1055 117.753 78.1758 117.167 78.1758C116.306 78.1758 115.576 78.0234 114.979 77.7188C114.381 77.4082 113.927 77.0127 113.616 76.5322C113.312 76.0459 113.159 75.542 113.159 75.0205H115.207C115.23 75.4131 115.339 75.7266 115.532 75.9609C115.731 76.1895 115.978 76.3564 116.271 76.4619C116.569 76.5615 116.877 76.6113 117.193 76.6113C117.574 76.6113 117.894 76.5615 118.151 76.4619C118.409 76.3564 118.605 76.2158 118.74 76.04C118.875 75.8584 118.942 75.6533 118.942 75.4248Z" fill="black"/>
<path d="M160 71C160 62.7157 166.716 56 175 56H230C238.284 56 245 62.7157 245 71V73C245 81.2843 238.284 88 230 88H175C166.716 88 160 81.2843 160 73V71Z" fill="#FFC95F"/>
<path d="M183.687 75.6621L187.053 65.2031H189.487L184.899 78H183.256L183.687 75.6621ZM180.575 65.2031L183.915 75.6621L184.372 78H182.72L178.149 65.2031H180.575ZM192.977 68.4902V78H190.85V68.4902H192.977ZM190.709 65.9941C190.709 65.6719 190.814 65.4053 191.025 65.1943C191.242 64.9775 191.541 64.8691 191.922 64.8691C192.297 64.8691 192.593 64.9775 192.81 65.1943C193.026 65.4053 193.135 65.6719 193.135 65.9941C193.135 66.3105 193.026 66.5742 192.81 66.7852C192.593 66.9961 192.297 67.1016 191.922 67.1016C191.541 67.1016 191.242 66.9961 191.025 66.7852C190.814 66.5742 190.709 66.3105 190.709 65.9941ZM199.489 78.1758C198.786 78.1758 198.15 78.0615 197.582 77.833C197.02 77.5986 196.539 77.2734 196.141 76.8574C195.748 76.4414 195.446 75.9521 195.235 75.3896C195.024 74.8271 194.919 74.2207 194.919 73.5703V73.2188C194.919 72.4746 195.027 71.8008 195.244 71.1973C195.461 70.5938 195.763 70.0781 196.149 69.6504C196.536 69.2168 196.993 68.8857 197.521 68.6572C198.048 68.4287 198.619 68.3145 199.234 68.3145C199.914 68.3145 200.509 68.4287 201.019 68.6572C201.528 68.8857 201.95 69.208 202.284 69.624C202.624 70.0342 202.876 70.5234 203.04 71.0918C203.21 71.6602 203.295 72.2871 203.295 72.9727V73.8779H195.947V72.3574H201.203V72.1904C201.191 71.8096 201.115 71.4521 200.975 71.1182C200.84 70.7842 200.632 70.5146 200.351 70.3096C200.069 70.1045 199.694 70.002 199.226 70.002C198.874 70.002 198.561 70.0781 198.285 70.2305C198.016 70.377 197.79 70.5908 197.608 70.8721C197.427 71.1533 197.286 71.4932 197.187 71.8916C197.093 72.2842 197.046 72.7266 197.046 73.2188V73.5703C197.046 73.9863 197.102 74.373 197.213 74.7305C197.33 75.082 197.5 75.3896 197.723 75.6533C197.945 75.917 198.215 76.125 198.531 76.2773C198.848 76.4238 199.208 76.4971 199.612 76.4971C200.122 76.4971 200.576 76.3945 200.975 76.1895C201.373 75.9844 201.719 75.6943 202.012 75.3193L203.128 76.4004C202.923 76.6992 202.656 76.9863 202.328 77.2617C202 77.5312 201.599 77.751 201.124 77.9209C200.655 78.0908 200.11 78.1758 199.489 78.1758ZM207.531 75.8906L209.729 68.4902H211.082L210.713 70.7051L208.498 78H207.285L207.531 75.8906ZM206.239 68.4902L207.953 75.9258L208.094 78H206.74L204.165 68.4902H206.239ZM213.139 75.8379L214.8 68.4902H216.865L214.299 78H212.945L213.139 75.8379ZM211.311 68.4902L213.481 75.8027L213.754 78H212.541L210.3 70.6963L209.931 68.4902H211.311ZM223.642 75.4248C223.642 75.2139 223.589 75.0234 223.483 74.8535C223.378 74.6777 223.176 74.5195 222.877 74.3789C222.584 74.2383 222.15 74.1094 221.576 73.9922C221.072 73.8809 220.609 73.749 220.188 73.5967C219.771 73.4385 219.414 73.248 219.115 73.0254C218.816 72.8027 218.585 72.5391 218.421 72.2344C218.257 71.9297 218.175 71.5781 218.175 71.1797C218.175 70.793 218.26 70.4268 218.43 70.0811C218.6 69.7354 218.843 69.4307 219.159 69.167C219.476 68.9033 219.859 68.6953 220.311 68.543C220.768 68.3906 221.277 68.3145 221.84 68.3145C222.637 68.3145 223.319 68.4492 223.888 68.7188C224.462 68.9824 224.901 69.3428 225.206 69.7998C225.511 70.251 225.663 70.7607 225.663 71.3291H223.545C223.545 71.0771 223.48 70.8428 223.352 70.626C223.229 70.4033 223.041 70.2246 222.789 70.0898C222.537 69.9492 222.221 69.8789 221.84 69.8789C221.477 69.8789 221.175 69.9375 220.935 70.0547C220.7 70.166 220.524 70.3125 220.407 70.4941C220.296 70.6758 220.24 70.875 220.24 71.0918C220.24 71.25 220.27 71.3936 220.328 71.5225C220.393 71.6455 220.498 71.7598 220.645 71.8652C220.791 71.9648 220.99 72.0586 221.242 72.1465C221.5 72.2344 221.822 72.3193 222.209 72.4014C222.936 72.5537 223.56 72.75 224.081 72.9902C224.608 73.2246 225.013 73.5293 225.294 73.9043C225.575 74.2734 225.716 74.7422 225.716 75.3105C225.716 75.7324 225.625 76.1191 225.443 76.4707C225.268 76.8164 225.01 77.1182 224.67 77.376C224.33 77.6279 223.923 77.8242 223.448 77.9648C222.979 78.1055 222.452 78.1758 221.866 78.1758C221.005 78.1758 220.275 78.0234 219.678 77.7188C219.08 77.4082 218.626 77.0127 218.315 76.5322C218.011 76.0459 217.858 75.542 217.858 75.0205H219.906C219.93 75.4131 220.038 75.7266 220.231 75.9609C220.431 76.1895 220.677 76.3564 220.97 76.4619C221.269 76.5615 221.576 76.6113 221.893 76.6113C222.273 76.6113 222.593 76.5615 222.851 76.4619C223.108 76.3564 223.305 76.2158 223.439 76.04C223.574 75.8584 223.642 75.6533 223.642 75.4248Z" fill="black"/>
<path d="M265 71C265 62.7157 271.716 56 280 56H412C420.284 56 427 62.7157 427 71V73C427 81.2843 420.284 88 412 88H280C271.716 88 265 81.2843 265 73V71Z" fill="#5FC5FF"/>
<path d="M291.481 65.2031H293.679V73.7549C293.679 74.7275 293.468 75.542 293.046 76.1982C292.624 76.8545 292.05 77.3496 291.323 77.6836C290.603 78.0117 289.797 78.1758 288.906 78.1758C287.986 78.1758 287.166 78.0117 286.445 77.6836C285.725 77.3496 285.156 76.8545 284.74 76.1982C284.33 75.542 284.125 74.7275 284.125 73.7549V65.2031H286.322V73.7549C286.322 74.3701 286.428 74.877 286.639 75.2754C286.85 75.668 287.148 75.958 287.535 76.1455C287.922 76.333 288.379 76.4268 288.906 76.4268C289.434 76.4268 289.888 76.333 290.269 76.1455C290.655 75.958 290.954 75.668 291.165 75.2754C291.376 74.877 291.481 74.3701 291.481 73.7549V65.2031ZM297.968 70.5205V78H295.85V68.4902H297.845L297.968 70.5205ZM297.59 72.8936L296.904 72.8848C296.91 72.2109 297.004 71.5928 297.186 71.0303C297.373 70.4678 297.631 69.9844 297.959 69.5801C298.293 69.1758 298.691 68.8652 299.154 68.6484C299.617 68.4258 300.133 68.3145 300.701 68.3145C301.158 68.3145 301.571 68.3789 301.94 68.5078C302.315 68.6309 302.635 68.833 302.898 69.1143C303.168 69.3955 303.373 69.7617 303.514 70.2129C303.654 70.6582 303.725 71.2061 303.725 71.8564V78H301.598V71.8477C301.598 71.3906 301.53 71.0303 301.396 70.7666C301.267 70.4971 301.076 70.3066 300.824 70.1953C300.578 70.0781 300.271 70.0195 299.901 70.0195C299.538 70.0195 299.213 70.0957 298.926 70.248C298.639 70.4004 298.396 70.6084 298.196 70.8721C298.003 71.1357 297.854 71.4404 297.748 71.7861C297.643 72.1318 297.59 72.501 297.59 72.8936ZM308.154 68.4902V78H306.027V68.4902H308.154ZM305.887 65.9941C305.887 65.6719 305.992 65.4053 306.203 65.1943C306.42 64.9775 306.719 64.8691 307.1 64.8691C307.475 64.8691 307.771 64.9775 307.987 65.1943C308.204 65.4053 308.312 65.6719 308.312 65.9941C308.312 66.3105 308.204 66.5742 307.987 66.7852C307.771 66.9961 307.475 67.1016 307.1 67.1016C306.719 67.1016 306.42 66.9961 306.203 66.7852C305.992 66.5742 305.887 66.3105 305.887 65.9941ZM316.267 81.6562V70.3799L316.513 68.4902H318.402V81.6562H316.267ZM310.088 73.3418V73.1572C310.088 72.4365 310.17 71.7803 310.334 71.1885C310.498 70.5908 310.741 70.0781 311.063 69.6504C311.386 69.2227 311.778 68.8945 312.241 68.666C312.704 68.4316 313.237 68.3145 313.841 68.3145C314.427 68.3145 314.937 68.4258 315.37 68.6484C315.81 68.8711 316.179 69.1904 316.478 69.6064C316.782 70.0166 317.025 70.5059 317.207 71.0742C317.389 71.6426 317.521 72.2754 317.603 72.9727V73.5615C317.526 74.2412 317.397 74.8623 317.216 75.4248C317.034 75.9873 316.791 76.4736 316.486 76.8838C316.182 77.2939 315.81 77.6133 315.37 77.8418C314.931 78.0645 314.415 78.1758 313.823 78.1758C313.231 78.1758 312.704 78.0557 312.241 77.8154C311.778 77.5752 311.386 77.2383 311.063 76.8047C310.747 76.3652 310.504 75.8525 310.334 75.2666C310.17 74.6748 310.088 74.0332 310.088 73.3418ZM312.206 73.1572V73.3418C312.206 73.7754 312.244 74.1826 312.32 74.5635C312.402 74.9385 312.531 75.2725 312.707 75.5654C312.883 75.8525 313.105 76.0781 313.375 76.2422C313.645 76.4062 313.97 76.4883 314.351 76.4883C314.849 76.4883 315.256 76.3799 315.572 76.1631C315.895 75.9463 316.141 75.6562 316.311 75.293C316.486 74.9238 316.609 74.5166 316.68 74.0713V72.4805C316.639 72.1348 316.565 71.8125 316.46 71.5137C316.354 71.209 316.208 70.9453 316.021 70.7227C315.839 70.4941 315.61 70.3184 315.335 70.1953C315.065 70.0664 314.743 70.002 314.368 70.002C313.987 70.002 313.659 70.084 313.384 70.248C313.108 70.4121 312.883 70.6406 312.707 70.9336C312.537 71.2207 312.411 71.5547 312.329 71.9355C312.247 72.3164 312.206 72.7236 312.206 73.1572ZM326.392 75.7588V68.4902H328.519V78H326.515L326.392 75.7588ZM326.69 73.7812L327.402 73.7637C327.402 74.4023 327.332 74.9912 327.191 75.5303C327.051 76.0635 326.834 76.5293 326.541 76.9277C326.248 77.3203 325.873 77.6279 325.416 77.8506C324.959 78.0674 324.411 78.1758 323.772 78.1758C323.31 78.1758 322.885 78.1084 322.498 77.9736C322.111 77.8389 321.777 77.6309 321.496 77.3496C321.221 77.0684 321.007 76.7021 320.854 76.251C320.702 75.7998 320.626 75.2607 320.626 74.6338V68.4902H322.744V74.6514C322.744 74.9971 322.785 75.2871 322.867 75.5215C322.949 75.75 323.061 75.9346 323.201 76.0752C323.342 76.2158 323.506 76.3154 323.693 76.374C323.881 76.4326 324.08 76.4619 324.291 76.4619C324.895 76.4619 325.369 76.3447 325.715 76.1104C326.066 75.8701 326.315 75.5479 326.462 75.1436C326.614 74.7393 326.69 74.2852 326.69 73.7812ZM334.882 78.1758C334.179 78.1758 333.543 78.0615 332.975 77.833C332.412 77.5986 331.932 77.2734 331.533 76.8574C331.141 76.4414 330.839 75.9521 330.628 75.3896C330.417 74.8271 330.312 74.2207 330.312 73.5703V73.2188C330.312 72.4746 330.42 71.8008 330.637 71.1973C330.854 70.5938 331.155 70.0781 331.542 69.6504C331.929 69.2168 332.386 68.8857 332.913 68.6572C333.44 68.4287 334.012 68.3145 334.627 68.3145C335.307 68.3145 335.901 68.4287 336.411 68.6572C336.921 68.8857 337.343 69.208 337.677 69.624C338.017 70.0342 338.269 70.5234 338.433 71.0918C338.603 71.6602 338.688 72.2871 338.688 72.9727V73.8779H331.34V72.3574H336.596V72.1904C336.584 71.8096 336.508 71.4521 336.367 71.1182C336.232 70.7842 336.024 70.5146 335.743 70.3096C335.462 70.1045 335.087 70.002 334.618 70.002C334.267 70.002 333.953 70.0781 333.678 70.2305C333.408 70.377 333.183 70.5908 333.001 70.8721C332.819 71.1533 332.679 71.4932 332.579 71.8916C332.485 72.2842 332.438 72.7266 332.438 73.2188V73.5703C332.438 73.9863 332.494 74.373 332.605 74.7305C332.723 75.082 332.893 75.3896 333.115 75.6533C333.338 75.917 333.607 76.125 333.924 76.2773C334.24 76.4238 334.601 76.4971 335.005 76.4971C335.515 76.4971 335.969 76.3945 336.367 76.1895C336.766 75.9844 337.111 75.6943 337.404 75.3193L338.521 76.4004C338.315 76.6992 338.049 76.9863 337.721 77.2617C337.393 77.5312 336.991 77.751 336.517 77.9209C336.048 78.0908 335.503 78.1758 334.882 78.1758ZM349.419 75.6621L352.785 65.2031H355.22L350.632 78H348.988L349.419 75.6621ZM346.308 65.2031L349.647 75.6621L350.104 78H348.452L343.882 65.2031H346.308ZM358.709 68.4902V78H356.582V68.4902H358.709ZM356.441 65.9941C356.441 65.6719 356.547 65.4053 356.758 65.1943C356.975 64.9775 357.273 64.8691 357.654 64.8691C358.029 64.8691 358.325 64.9775 358.542 65.1943C358.759 65.4053 358.867 65.6719 358.867 65.9941C358.867 66.3105 358.759 66.5742 358.542 66.7852C358.325 66.9961 358.029 67.1016 357.654 67.1016C357.273 67.1016 356.975 66.9961 356.758 66.7852C356.547 66.5742 356.441 66.3105 356.441 65.9941ZM365.222 78.1758C364.519 78.1758 363.883 78.0615 363.314 77.833C362.752 77.5986 362.271 77.2734 361.873 76.8574C361.48 76.4414 361.179 75.9521 360.968 75.3896C360.757 74.8271 360.651 74.2207 360.651 73.5703V73.2188C360.651 72.4746 360.76 71.8008 360.977 71.1973C361.193 70.5938 361.495 70.0781 361.882 69.6504C362.269 69.2168 362.726 68.8857 363.253 68.6572C363.78 68.4287 364.352 68.3145 364.967 68.3145C365.646 68.3145 366.241 68.4287 366.751 68.6572C367.261 68.8857 367.683 69.208 368.017 69.624C368.356 70.0342 368.608 70.5234 368.772 71.0918C368.942 71.6602 369.027 72.2871 369.027 72.9727V73.8779H361.68V72.3574H366.936V72.1904C366.924 71.8096 366.848 71.4521 366.707 71.1182C366.572 70.7842 366.364 70.5146 366.083 70.3096C365.802 70.1045 365.427 70.002 364.958 70.002C364.606 70.002 364.293 70.0781 364.018 70.2305C363.748 70.377 363.522 70.5908 363.341 70.8721C363.159 71.1533 363.019 71.4932 362.919 71.8916C362.825 72.2842 362.778 72.7266 362.778 73.2188V73.5703C362.778 73.9863 362.834 74.373 362.945 74.7305C363.062 75.082 363.232 75.3896 363.455 75.6533C363.678 75.917 363.947 76.125 364.264 76.2773C364.58 76.4238 364.94 76.4971 365.345 76.4971C365.854 76.4971 366.309 76.3945 366.707 76.1895C367.105 75.9844 367.451 75.6943 367.744 75.3193L368.86 76.4004C368.655 76.6992 368.389 76.9863 368.061 77.2617C367.732 77.5312 367.331 77.751 366.856 77.9209C366.388 78.0908 365.843 78.1758 365.222 78.1758ZM373.264 75.8906L375.461 68.4902H376.814L376.445 70.7051L374.23 78H373.018L373.264 75.8906ZM371.972 68.4902L373.686 75.9258L373.826 78H372.473L369.897 68.4902H371.972ZM378.871 75.8379L380.532 68.4902H382.598L380.031 78H378.678L378.871 75.8379ZM377.043 68.4902L379.214 75.8027L379.486 78H378.273L376.032 70.6963L375.663 68.4902H377.043ZM388.231 78.1758C387.528 78.1758 386.893 78.0615 386.324 77.833C385.762 77.5986 385.281 77.2734 384.883 76.8574C384.49 76.4414 384.188 75.9521 383.978 75.3896C383.767 74.8271 383.661 74.2207 383.661 73.5703V73.2188C383.661 72.4746 383.77 71.8008 383.986 71.1973C384.203 70.5938 384.505 70.0781 384.892 69.6504C385.278 69.2168 385.735 68.8857 386.263 68.6572C386.79 68.4287 387.361 68.3145 387.977 68.3145C388.656 68.3145 389.251 68.4287 389.761 68.6572C390.271 68.8857 390.692 69.208 391.026 69.624C391.366 70.0342 391.618 70.5234 391.782 71.0918C391.952 71.6602 392.037 72.2871 392.037 72.9727V73.8779H384.689V72.3574H389.945V72.1904C389.934 71.8096 389.857 71.4521 389.717 71.1182C389.582 70.7842 389.374 70.5146 389.093 70.3096C388.812 70.1045 388.437 70.002 387.968 70.002C387.616 70.002 387.303 70.0781 387.027 70.2305C386.758 70.377 386.532 70.5908 386.351 70.8721C386.169 71.1533 386.028 71.4932 385.929 71.8916C385.835 72.2842 385.788 72.7266 385.788 73.2188V73.5703C385.788 73.9863 385.844 74.373 385.955 74.7305C386.072 75.082 386.242 75.3896 386.465 75.6533C386.688 75.917 386.957 76.125 387.273 76.2773C387.59 76.4238 387.95 76.4971 388.354 76.4971C388.864 76.4971 389.318 76.3945 389.717 76.1895C390.115 75.9844 390.461 75.6943 390.754 75.3193L391.87 76.4004C391.665 76.6992 391.398 76.9863 391.07 77.2617C390.742 77.5312 390.341 77.751 389.866 77.9209C389.397 78.0908 388.853 78.1758 388.231 78.1758ZM395.816 70.3008V78H393.698V68.4902H395.72L395.816 70.3008ZM398.726 68.4287L398.708 70.3975C398.579 70.374 398.438 70.3564 398.286 70.3447C398.14 70.333 397.993 70.3271 397.847 70.3271C397.483 70.3271 397.164 70.3799 396.889 70.4854C396.613 70.585 396.382 70.7314 396.194 70.9248C396.013 71.1123 395.872 71.3408 395.772 71.6104C395.673 71.8799 395.614 72.1816 395.597 72.5156L395.113 72.5508C395.113 71.9531 395.172 71.3994 395.289 70.8896C395.406 70.3799 395.582 69.9316 395.816 69.5449C396.057 69.1582 396.355 68.8564 396.713 68.6396C397.076 68.4229 397.495 68.3145 397.97 68.3145C398.099 68.3145 398.236 68.3262 398.383 68.3496C398.535 68.373 398.649 68.3994 398.726 68.4287ZM405.388 75.4248C405.388 75.2139 405.335 75.0234 405.229 74.8535C405.124 74.6777 404.922 74.5195 404.623 74.3789C404.33 74.2383 403.896 74.1094 403.322 73.9922C402.818 73.8809 402.355 73.749 401.934 73.5967C401.518 73.4385 401.16 73.248 400.861 73.0254C400.562 72.8027 400.331 72.5391 400.167 72.2344C400.003 71.9297 399.921 71.5781 399.921 71.1797C399.921 70.793 400.006 70.4268 400.176 70.0811C400.346 69.7354 400.589 69.4307 400.905 69.167C401.222 68.9033 401.605 68.6953 402.057 68.543C402.514 68.3906 403.023 68.3145 403.586 68.3145C404.383 68.3145 405.065 68.4492 405.634 68.7188C406.208 68.9824 406.647 69.3428 406.952 69.7998C407.257 70.251 407.409 70.7607 407.409 71.3291H405.291C405.291 71.0771 405.227 70.8428 405.098 70.626C404.975 70.4033 404.787 70.2246 404.535 70.0898C404.283 69.9492 403.967 69.8789 403.586 69.8789C403.223 69.8789 402.921 69.9375 402.681 70.0547C402.446 70.166 402.271 70.3125 402.153 70.4941C402.042 70.6758 401.986 70.875 401.986 71.0918C401.986 71.25 402.016 71.3936 402.074 71.5225C402.139 71.6455 402.244 71.7598 402.391 71.8652C402.537 71.9648 402.736 72.0586 402.988 72.1465C403.246 72.2344 403.568 72.3193 403.955 72.4014C404.682 72.5537 405.306 72.75 405.827 72.9902C406.354 73.2246 406.759 73.5293 407.04 73.9043C407.321 74.2734 407.462 74.7422 407.462 75.3105C407.462 75.7324 407.371 76.1191 407.189 76.4707C407.014 76.8164 406.756 77.1182 406.416 77.376C406.076 77.6279 405.669 77.8242 405.194 77.9648C404.726 78.1055 404.198 78.1758 403.612 78.1758C402.751 78.1758 402.021 78.0234 401.424 77.7188C400.826 77.4082 400.372 77.0127 400.062 76.5322C399.757 76.0459 399.604 75.542 399.604 75.0205H401.652C401.676 75.4131 401.784 75.7266 401.978 75.9609C402.177 76.1895 402.423 76.3564 402.716 76.4619C403.015 76.5615 403.322 76.6113 403.639 76.6113C404.02 76.6113 404.339 76.5615 404.597 76.4619C404.854 76.3564 405.051 76.2158 405.186 76.04C405.32 75.8584 405.388 75.6533 405.388 75.4248Z" fill="black"/>
<defs>
<clipPath id="clip0_927_9677">
<rect width="370" height="261" fill="white" transform="translate(42 164)"/>
</clipPath>
</defs>
</svg>
