<svg width="223" height="193" viewBox="0 0 223 193" fill="none" xmlns="http://www.w3.org/2000/svg">
<g clip-path="url(#clip0_656_9680)">
<path d="M223 93.765C223 136.704 185.085 172.899 133.349 184.011C124.947 185.811 116.411 186.922 107.827 187.334C107.41 187.355 106.992 187.375 106.572 187.39C104.338 187.482 102.087 187.529 99.8191 187.53C95.8762 187.53 91.9799 187.39 88.1304 187.111C85.9948 186.959 83.8771 186.766 81.7774 186.531C61.3557 184.249 42.5625 178.153 26.6891 169.223C24.7057 168.108 22.769 166.949 20.879 165.746C17.4182 163.55 14.077 161.173 10.8695 158.625C-10.3337 141.786 7.34411 105.843 18.3945 83.2146C48.2204 22.141 31.7894 0 99.8191 0C167.849 0 223 41.9788 223 93.765Z" fill="#F2F2F2"/>
<path d="M174.246 38.6555C153.102 38.2776 153.106 6.96712 174.247 6.59241C195.391 6.97019 195.387 38.2807 174.246 38.6555Z" fill="white"/>
<path d="M134.259 85.315C113.115 84.9372 113.118 53.6267 134.26 53.252C155.403 53.6297 155.4 84.9403 134.259 85.315Z" fill="white"/>
<path d="M175.97 132.695C154.826 132.317 154.829 101.007 175.971 100.632C197.114 101.01 197.111 132.32 175.97 132.695Z" fill="white"/>
<path d="M174.246 38.6555C153.102 38.2776 153.106 6.96712 174.247 6.59241C195.391 6.97019 195.387 38.2807 174.246 38.6555ZM174.246 7.56399C154.384 7.91897 154.387 37.3317 174.247 37.6838C194.109 37.3289 194.106 7.91607 174.246 7.56399Z" fill="#E6E6E6"/>
<path d="M81.7031 186.308C81.6556 186.157 81.6227 186.002 81.6048 185.845L75.4636 150.954C75.4545 150.864 75.4406 150.775 75.4219 150.687C75.2919 150.051 74.9681 149.47 74.4946 149.024C74.021 148.579 73.421 148.289 72.7764 148.196L37.7578 148.348C37.0952 148.249 36.4182 148.363 35.8258 148.675C35.2334 148.987 34.7565 149.479 34.465 150.08C33.8954 151.263 33.3377 152.463 32.7918 153.679C30.5817 158.58 28.5476 163.761 26.6895 169.223C42.5628 178.153 61.356 184.249 81.7777 186.531L81.7031 186.308Z" fill="#2F2E41"/>
<path d="M115.887 92.9414C115.801 93.3186 115.745 93.702 115.719 94.088L85.5785 111.414L78.2524 107.212L70.4424 117.399L82.6862 126.095C83.6753 126.797 84.8664 127.161 86.0807 127.132C87.295 127.102 88.467 126.681 89.4206 125.932L120.501 101.5C121.903 102.017 123.431 102.097 124.88 101.728C126.329 101.359 127.631 100.559 128.613 99.4353C129.595 98.3111 130.21 96.9157 130.377 95.4347C130.543 93.9537 130.254 92.4572 129.546 91.1443C128.838 89.8314 127.746 88.7644 126.415 88.0851C125.083 87.4057 123.576 87.1464 122.093 87.3415C120.611 87.5366 119.223 88.1768 118.114 89.1772C117.005 90.1775 116.228 91.4904 115.887 92.9414V92.9414Z" fill="#FFB8B8"/>
<path d="M85.1655 109.683C85.074 109.24 84.8879 108.821 84.6198 108.456C84.3517 108.091 84.0078 107.788 83.6116 107.567L69.7813 99.8604C67.9435 98.4475 65.6184 97.8183 63.3158 98.1108C61.0132 98.4034 58.9209 99.5938 57.4977 101.421C56.0745 103.248 55.4365 105.563 55.7236 107.858C56.0107 110.154 57.1994 112.242 59.0291 113.665L70.0557 125.074C70.3704 125.4 70.7519 125.655 71.1742 125.82C71.5964 125.986 72.0495 126.059 72.5027 126.034C72.9558 126.01 73.3983 125.888 73.8001 125.678C74.2018 125.468 74.5534 125.174 74.8309 124.816L76.9782 122.04L77.712 121.095L84.5719 112.236C84.8224 111.912 85.0059 111.543 85.1118 111.148C85.246 110.671 85.2644 110.168 85.1655 109.683Z" fill="#00B4A9"/>
<path d="M65.1405 86.1848C71.8704 79.4789 71.8704 68.6065 65.1405 61.9007C58.4106 55.1948 47.4994 55.1948 40.7695 61.9007C34.0396 68.6065 34.0396 79.4789 40.7695 86.1848C47.4994 92.8906 58.4106 92.8906 65.1405 86.1848Z" fill="#FFB8B8"/>
<path d="M74.7448 139.037C75.4367 138.005 79.836 131.045 78.1717 122.887C78.0494 122.282 77.8961 121.684 77.7123 121.095C76.928 118.639 75.6753 116.358 74.0229 114.375C74.0438 113.829 74.0379 113.291 74.0051 112.756V112.753C73.7619 109.036 72.1792 105.532 69.5486 102.885C66.918 100.239 63.4164 98.6285 59.6887 98.3507L40.4152 96.8915C37.9344 96.6899 35.4416 97.092 33.1514 98.0632C30.8611 99.0345 28.8421 100.546 27.2679 102.467C26.9054 102.905 26.5659 103.361 26.2508 103.834C26.2504 103.834 26.25 103.834 26.2497 103.834C26.2493 103.834 26.249 103.835 26.2487 103.835C26.2485 103.835 26.2482 103.835 26.2481 103.836C26.248 103.836 26.2479 103.837 26.2479 103.837C25.0327 105.664 24.2263 107.731 23.8835 109.897C23.5408 112.062 23.6697 114.276 24.2615 116.387L24.4256 117.107L26.4805 126.085L29.9164 141.108L32.7917 153.679L33.0959 155.005C33.2563 155.699 33.6478 156.319 34.2067 156.763C34.7656 157.207 35.459 157.45 36.1739 157.451C36.3458 157.452 36.5174 157.438 36.6869 157.409L73.9812 151.317C74.5075 151.233 75.0035 151.016 75.4218 150.687C75.6729 150.487 75.893 150.252 76.075 149.988C76.318 149.638 76.4863 149.242 76.5694 148.824C76.6524 148.407 76.6486 147.976 76.558 147.56L74.7448 139.037Z" fill="#00B4A9"/>
<path d="M1.34806 189.744C0.715499 188.845 0.288464 187.819 0.0970333 186.738C-0.0943974 185.656 -0.0455662 184.546 0.240087 183.486C0.52574 182.425 1.04127 181.44 1.75036 180.6C2.45944 179.759 3.34484 179.084 4.34419 178.621L25.5781 113.569L37.8837 119.387L14.6503 182.728C15.319 184.452 15.3296 186.361 14.6802 188.093C14.0308 189.824 12.7664 191.259 11.1268 192.123C9.4871 192.988 7.586 193.224 5.78372 192.785C3.98144 192.347 2.4032 191.265 1.34806 189.744Z" fill="#FFB8B8"/>
<path d="M37.74 98.2021C35.4652 97.5202 33.0157 97.7219 30.8841 98.7668C28.7526 99.8117 27.0972 101.622 26.2511 103.834C26.2507 103.834 26.2504 103.834 26.25 103.834C26.2496 103.834 26.2493 103.835 26.249 103.835C26.2488 103.835 26.2485 103.835 26.2484 103.836C26.2483 103.836 26.2482 103.837 26.2482 103.837C26.1706 104.036 26.0991 104.244 26.0365 104.452L24.2379 108.253L18.8037 119.74C18.5959 120.177 18.4854 120.655 18.4797 121.139C18.474 121.623 18.5732 122.102 18.7706 122.545C18.9679 122.987 19.2587 123.382 19.6232 123.702C19.9877 124.022 20.4172 124.26 20.8825 124.4L21.9414 124.718L26.4808 126.085L34.5368 128.51L37.2211 129.318C37.6862 129.458 38.1761 129.497 38.6575 129.431C39.1388 129.365 39.6003 129.197 40.0105 128.938C40.4206 128.678 40.7698 128.334 41.0343 127.927C41.2987 127.521 41.4722 127.063 41.5428 126.584L44.0244 109.811C44.7295 107.441 44.4641 104.889 43.2865 102.714C42.1088 100.539 40.1147 98.9165 37.74 98.2021Z" fill="#00B4A9"/>
<path d="M68.7791 67.7984C62.6385 73.1508 53.2117 74.3936 45.8854 70.8166C49.1764 74.7069 55.4265 93.9109 55.4265 93.9109C55.4265 93.9109 37.7788 92.0628 35.2854 91.5316C20.5587 88.3937 25.9117 50.3903 41.6038 50.5822C44.2617 50.6147 46.5851 50.9349 48.354 52.9116C49.5282 49.6321 53.2618 47.7003 56.7471 47.9504C60.2325 48.2004 63.3844 50.2865 65.6266 52.9571C67.4158 55.1193 68.7073 57.6462 69.4099 60.3597C70.1126 63.0732 70.2094 65.9072 69.6935 68.6621L68.7791 67.7984Z" fill="#2F2E41"/>
<path d="M134.259 85.315C113.115 84.9372 113.118 53.6267 134.26 53.252C155.403 53.6298 155.4 84.9403 134.259 85.315ZM134.259 54.2235C114.396 54.5785 114.4 83.9913 134.26 84.3434C154.122 83.9884 154.119 54.5756 134.259 54.2235Z" fill="#E6E6E6"/>
<path d="M175.97 132.695C154.826 132.317 154.829 101.007 175.971 100.632C197.114 101.01 197.111 132.32 175.97 132.695ZM175.97 101.604C156.107 101.959 156.111 131.371 175.971 131.723C195.833 131.369 195.83 101.956 175.97 101.604Z" fill="#E6E6E6"/>
<path d="M178.714 19.1999C177.379 19.2166 177.383 17.1271 178.718 17.1497C180.053 17.1332 180.048 19.2222 178.714 19.1999Z" fill="white"/>
<path d="M174.246 19.8844C177.813 19.8322 177.813 25.416 174.246 25.3634C170.679 25.415 170.679 19.8323 174.246 19.8844ZM174.246 18.5148C168.896 18.437 168.895 26.8115 174.247 26.733C179.597 26.8109 179.596 18.4363 174.246 18.5148V18.5148Z" fill="white"/>
<path d="M146.926 119.367C146.83 119.37 146.735 119.344 146.653 119.293C146.571 119.242 146.507 119.168 146.468 119.08C146.428 118.992 146.416 118.895 146.432 118.801C146.448 118.706 146.492 118.618 146.559 118.549L148.182 116.84C148.233 116.786 148.26 116.714 148.258 116.641C148.256 116.567 148.225 116.497 148.171 116.446L146.446 114.82C146.399 114.775 146.36 114.721 146.334 114.661C146.307 114.602 146.292 114.537 146.29 114.472C146.288 114.406 146.3 114.341 146.323 114.28C146.346 114.219 146.382 114.163 146.427 114.116C146.518 114.02 146.643 113.965 146.775 113.961C146.907 113.957 147.035 114.005 147.131 114.094L149.451 116.254C149.497 116.297 149.534 116.348 149.56 116.405C149.585 116.462 149.599 116.523 149.601 116.586C149.603 116.648 149.592 116.71 149.57 116.768C149.547 116.826 149.513 116.879 149.47 116.924L147.264 119.218C147.175 119.31 147.054 119.364 146.926 119.367Z" fill="#CCCCCC"/>
<path d="M145.154 116.88C145.101 116.928 145.032 116.956 144.96 116.958L139.551 117.106C139.512 117.108 139.473 117.101 139.436 117.087C139.4 117.073 139.366 117.052 139.338 117.025C139.309 116.999 139.286 116.966 139.27 116.931C139.254 116.895 139.245 116.857 139.244 116.818C139.243 116.779 139.25 116.74 139.264 116.703C139.278 116.667 139.299 116.633 139.326 116.605C139.353 116.577 139.385 116.554 139.421 116.538C139.457 116.522 139.495 116.513 139.535 116.512L144.943 116.364C145.004 116.362 145.064 116.379 145.115 116.412C145.166 116.445 145.205 116.493 145.228 116.549C145.251 116.605 145.256 116.667 145.243 116.726C145.229 116.785 145.198 116.839 145.154 116.88Z" fill="#CCCCCC"/>
<path d="M105.169 71.9865C105.073 71.9893 104.978 71.9635 104.896 71.9125C104.815 71.8615 104.75 71.7874 104.711 71.6998C104.671 71.6122 104.659 71.5149 104.675 71.4203C104.691 71.3257 104.736 71.238 104.802 71.1683L106.425 69.4593C106.476 69.4057 106.503 69.3341 106.501 69.2604C106.499 69.1866 106.468 69.1166 106.414 69.0659L104.69 67.4398C104.642 67.3948 104.604 67.3409 104.577 67.2812C104.55 67.2214 104.535 67.157 104.533 67.0916C104.532 67.0262 104.543 66.9611 104.566 66.9C104.59 66.8389 104.625 66.783 104.67 66.7355C104.761 66.6402 104.886 66.5845 105.018 66.5804C105.15 66.5764 105.278 66.6244 105.375 66.7139L107.694 68.874C107.74 68.9166 107.777 68.9678 107.803 69.0247C107.828 69.0815 107.842 69.1429 107.844 69.2053C107.846 69.2676 107.835 69.3297 107.813 69.3878C107.79 69.446 107.756 69.4992 107.713 69.5442L105.507 71.8377C105.419 71.9298 105.297 71.9833 105.169 71.9865Z" fill="#CCCCCC"/>
<path d="M103.397 69.4993C103.344 69.5479 103.275 69.5757 103.203 69.5776L97.7941 69.7262C97.7549 69.7273 97.7159 69.7207 97.6793 69.7068C97.6427 69.6929 97.6092 69.6719 97.5807 69.6451C97.5522 69.6183 97.5293 69.5861 97.5133 69.5505C97.4973 69.5148 97.4885 69.4764 97.4874 69.4373C97.4863 69.3983 97.493 69.3594 97.507 69.323C97.521 69.2865 97.5421 69.2531 97.5691 69.2248C97.596 69.1964 97.6283 69.1736 97.6641 69.1577C97.6999 69.1418 97.7385 69.1331 97.7777 69.1321L103.187 68.9835C103.247 68.9818 103.307 68.9987 103.358 69.0318C103.409 69.0649 103.448 69.1127 103.471 69.1688C103.494 69.2249 103.499 69.2866 103.486 69.3456C103.473 69.4047 103.441 69.4583 103.397 69.4993Z" fill="#CCCCCC"/>
<path d="M145.136 25.327C145.039 25.3298 144.945 25.304 144.863 25.253C144.781 25.2019 144.717 25.1279 144.677 25.0403C144.638 24.9526 144.626 24.8554 144.642 24.7607C144.658 24.6661 144.702 24.5784 144.769 24.5088L146.392 22.7998C146.442 22.7461 146.47 22.6746 146.468 22.6008C146.466 22.5271 146.434 22.4571 146.381 22.4063L144.656 20.7802C144.609 20.7352 144.57 20.6813 144.544 20.6216C144.517 20.5619 144.502 20.4975 144.5 20.4321C144.498 20.3667 144.51 20.3016 144.533 20.2405C144.556 20.1793 144.592 20.1234 144.637 20.0759C144.728 19.9806 144.853 19.9249 144.985 19.9209C145.117 19.9169 145.245 19.9648 145.341 20.0544L147.661 22.2145C147.707 22.2571 147.744 22.3083 147.769 22.3651C147.795 22.422 147.809 22.4834 147.811 22.5457C147.813 22.6081 147.802 22.6701 147.78 22.7283C147.757 22.7865 147.723 22.8396 147.68 22.8846L145.474 25.1781C145.385 25.2702 145.264 25.3237 145.136 25.327Z" fill="#CCCCCC"/>
<path d="M143.363 22.8397C143.311 22.8884 143.242 22.9162 143.17 22.918L137.761 23.0666C137.722 23.0678 137.683 23.0612 137.646 23.0473C137.609 23.0334 137.576 23.0124 137.547 22.9856C137.519 22.9587 137.496 22.9266 137.48 22.8909C137.464 22.8553 137.455 22.8168 137.454 22.7778C137.453 22.7388 137.46 22.6999 137.474 22.6634C137.488 22.6269 137.509 22.5936 137.536 22.5652C137.563 22.5369 137.595 22.5141 137.631 22.4982C137.667 22.4823 137.705 22.4736 137.744 22.4726L143.153 22.324C143.214 22.3223 143.274 22.3391 143.325 22.3722C143.376 22.4053 143.415 22.4531 143.438 22.5092C143.461 22.5653 143.466 22.627 143.453 22.6861C143.439 22.7452 143.408 22.7988 143.363 22.8397Z" fill="#CCCCCC"/>
<path d="M139.598 176.795C138.199 179.69 135.92 182.032 133.349 184.011C124.947 185.811 116.411 186.922 107.827 187.334C107.41 187.355 106.992 187.375 106.572 187.39C104.338 187.482 102.087 187.529 99.8189 187.53C95.8761 187.53 91.9798 187.39 88.1302 187.111C87.9836 186.229 87.9635 185.33 88.0705 184.442C88.4971 180.968 91.1427 177.776 94.5755 177.039C98.0086 176.302 101.922 178.344 102.963 181.684C103.538 175.241 104.197 168.53 107.636 163.044C110.747 158.078 116.137 154.523 121.979 153.887C125.413 153.531 128.878 154.164 131.962 155.709C132.246 155.852 132.526 156.001 132.803 156.155C134.655 157.2 136.288 158.59 137.614 160.247C141.259 164.842 142.151 171.523 139.598 176.795Z" fill="white"/>
<path d="M132.804 156.155C132.811 156.233 132.798 156.312 132.766 156.383C132.733 156.454 132.683 156.516 132.619 156.562C122.267 164.96 113.818 175.447 107.828 187.334C107.41 187.355 106.993 187.375 106.572 187.39C107.103 186.317 107.654 185.255 108.225 184.204C111.189 178.762 114.676 173.619 118.637 168.848C122.597 164.074 127.019 159.699 131.838 155.787C131.876 155.756 131.918 155.73 131.963 155.709C132.047 155.673 132.138 155.657 132.229 155.661C132.321 155.665 132.41 155.689 132.491 155.732C132.571 155.774 132.641 155.835 132.696 155.908C132.75 155.981 132.787 156.066 132.804 156.155Z" fill="#F2F2F2"/>
<path d="M137.783 71.8181C137.783 71.8181 137.783 71.8181 137.783 71.8181L138.004 71.3588L137.783 71.8181Z" fill="#46FE36" stroke="#00E609" stroke-width="3"/>
<path d="M182 111H170C169.175 111 168.507 111.675 168.507 112.5L168.5 121.5C168.5 122.325 169.175 123 170 123H182C182.825 123 183.5 122.325 183.5 121.5V112.5C183.5 111.675 182.825 111 182 111ZM182 121.5H170V114L176 117.75L182 114V121.5ZM176 116.25L170 112.5H182L176 116.25Z" fill="#4285F4"/>
<rect x="172.947" y="25.3276" width="0.223005" height="2.40702" fill="#00B4A9"/>
<rect width="0.21776" height="14.0818" transform="matrix(0.724142 0.689651 -0.724142 0.689651 182.836 14.7329)" fill="#00B4A9"/>
<rect x="168.189" y="16.2656" width="0.223006" height="2.40702" fill="#00B4A9"/>
<rect width="0.21776" height="4.64555" transform="matrix(0.724142 -0.689651 0.724142 0.689651 168.696 20.5442)" fill="#00B4A9"/>
<ellipse cx="168.264" cy="15.2039" rx="1.2637" ry="1.20351" fill="#00B4A9"/>
<ellipse cx="168.264" cy="19.7349" rx="1.2637" ry="1.20351" fill="#00B4A9"/>
<ellipse cx="177.779" cy="19.7349" rx="1.2637" ry="1.20351" fill="#00B4A9"/>
<ellipse cx="173.022" cy="24.2658" rx="1.2637" ry="1.20351" fill="#00B4A9"/>
<ellipse cx="173.022" cy="28.7965" rx="1.2637" ry="1.20351" fill="#00B4A9"/>
<ellipse cx="182.536" cy="28.7965" rx="1.2637" ry="1.20351" fill="#FFC700"/>
<ellipse cx="182.536" cy="15.2038" rx="1.2637" ry="1.20351" fill="#00B4A9"/>
<path fill-rule="evenodd" clip-rule="evenodd" d="M173.022 16.407C173.719 16.407 174.285 15.8682 174.285 15.2035C174.285 14.5388 173.719 14 173.022 14C172.324 14 171.758 14.5388 171.758 15.2035C171.758 15.8682 172.324 16.407 173.022 16.407ZM173.022 16.1945C173.597 16.1945 174.063 15.7507 174.063 15.2034C174.063 14.656 173.597 14.2122 173.022 14.2122C172.447 14.2122 171.981 14.656 171.981 15.2034C171.981 15.7507 172.447 16.1945 173.022 16.1945Z" fill="#00B4A9"/>
<path fill-rule="evenodd" clip-rule="evenodd" d="M168.264 25.4694C168.962 25.4694 169.527 24.9306 169.527 24.2659C169.527 23.6012 168.962 23.0624 168.264 23.0624C167.566 23.0624 167 23.6012 167 24.2659C167 24.9306 167.566 25.4694 168.264 25.4694ZM168.264 25.2569C168.839 25.2569 169.305 24.8131 169.305 24.2657C169.305 23.7183 168.839 23.2746 168.264 23.2746C167.689 23.2746 167.223 23.7183 167.223 24.2657C167.223 24.8131 167.689 25.2569 168.264 25.2569Z" fill="#00B4A9"/>
<path fill-rule="evenodd" clip-rule="evenodd" d="M177.778 25.4694C178.476 25.4694 179.042 24.9306 179.042 24.2659C179.042 23.6012 178.476 23.0624 177.778 23.0624C177.08 23.0624 176.515 23.6012 176.515 24.2659C176.515 24.9306 177.08 25.4694 177.778 25.4694ZM177.779 25.2569C178.353 25.2569 178.819 24.8131 178.819 24.2657C178.819 23.7183 178.353 23.2746 177.779 23.2746C177.204 23.2746 176.738 23.7183 176.738 24.2657C176.738 24.8131 177.204 25.2569 177.779 25.2569Z" fill="#00B4A9"/>
<path fill-rule="evenodd" clip-rule="evenodd" d="M182.536 25.4694C183.234 25.4694 183.8 24.9306 183.8 24.2659C183.8 23.6012 183.234 23.0624 182.536 23.0624C181.838 23.0624 181.272 23.6012 181.272 24.2659C181.272 24.9306 181.838 25.4694 182.536 25.4694ZM182.536 25.2569C183.111 25.2569 183.577 24.8131 183.577 24.2657C183.577 23.7183 183.111 23.2746 182.536 23.2746C181.962 23.2746 181.496 23.7183 181.496 24.2657C181.496 24.8131 181.962 25.2569 182.536 25.2569Z" fill="#00B4A9"/>
<path fill-rule="evenodd" clip-rule="evenodd" d="M168.264 29.9999C168.962 29.9999 169.527 29.4611 169.527 28.7964C169.527 28.1317 168.962 27.5929 168.264 27.5929C167.566 27.5929 167 28.1317 167 28.7964C167 29.4611 167.566 29.9999 168.264 29.9999ZM168.264 29.7874C168.839 29.7874 169.305 29.3436 169.305 28.7962C169.305 28.2489 168.839 27.8051 168.264 27.8051C167.689 27.8051 167.223 28.2489 167.223 28.7962C167.223 29.3436 167.689 29.7874 168.264 29.7874Z" fill="#00B4A9"/>
<path fill-rule="evenodd" clip-rule="evenodd" d="M177.778 29.9999C178.476 29.9999 179.042 29.4611 179.042 28.7964C179.042 28.1317 178.476 27.5929 177.778 27.5929C177.08 27.5929 176.515 28.1317 176.515 28.7964C176.515 29.4611 177.08 29.9999 177.778 29.9999ZM177.779 29.7874C178.353 29.7874 178.819 29.3436 178.819 28.7962C178.819 28.2489 178.353 27.8051 177.779 27.8051C177.204 27.8051 176.738 28.2489 176.738 28.7962C176.738 29.3436 177.204 29.7874 177.779 29.7874Z" fill="#00B4A9"/>
<path fill-rule="evenodd" clip-rule="evenodd" d="M182.536 20.9384C183.234 20.9384 183.8 20.3996 183.8 19.7349C183.8 19.0702 183.234 18.5314 182.536 18.5314C181.838 18.5314 181.272 19.0702 181.272 19.7349C181.272 20.3996 181.838 20.9384 182.536 20.9384ZM182.536 20.7259C183.111 20.7259 183.577 20.2821 183.577 19.7347C183.577 19.1873 183.111 18.7436 182.536 18.7436C181.962 18.7436 181.496 19.1873 181.496 19.7347C181.496 20.2821 181.962 20.7259 182.536 20.7259Z" fill="#00B4A9"/>
<path fill-rule="evenodd" clip-rule="evenodd" d="M177.778 16.407C178.476 16.407 179.042 15.8682 179.042 15.2035C179.042 14.5388 178.476 14 177.778 14C177.08 14 176.515 14.5388 176.515 15.2035C176.515 15.8682 177.08 16.407 177.778 16.407ZM177.779 16.1945C178.353 16.1945 178.819 15.7507 178.819 15.2034C178.819 14.656 178.353 14.2122 177.779 14.2122C177.204 14.2122 176.738 14.656 176.738 15.2034C176.738 15.7507 177.204 16.1945 177.779 16.1945Z" fill="#00B4A9"/>
<path fill-rule="evenodd" clip-rule="evenodd" d="M173.022 20.9384C173.719 20.9384 174.285 20.3996 174.285 19.7349C174.285 19.0702 173.719 18.5314 173.022 18.5314C172.324 18.5314 171.758 19.0702 171.758 19.7349C171.758 20.3996 172.324 20.9384 173.022 20.9384ZM173.022 20.7259C173.597 20.7259 174.063 20.2821 174.063 19.7347C174.063 19.1873 173.597 18.7436 173.022 18.7436C172.447 18.7436 171.981 19.1873 171.981 19.7347C171.981 20.2821 172.447 20.7259 173.022 20.7259Z" fill="#00B4A9"/>
</g>
<defs>
<clipPath id="clip0_656_9680">
<rect width="223" height="193" fill="white"/>
</clipPath>
</defs>
</svg>
