<svg width="200" height="208" viewBox="0 0 200 208" fill="none" xmlns="http://www.w3.org/2000/svg">
<g clip-path="url(#clip0_656_9606)">
<path d="M183.433 177.951L174.272 186.371L181.552 174.175C175.816 163.79 166.435 154.815 166.435 154.815C166.435 154.815 146.973 173.431 146.973 188.064C146.973 202.698 155.686 207.807 166.435 207.807C177.184 207.807 185.898 202.698 185.898 188.064C185.898 184.807 184.932 181.353 183.433 177.951Z" fill="#F2F2F2"/>
<path d="M171.916 186.826V187.548C171.873 195.932 170.456 202.474 167.677 207.08C167.638 207.148 167.595 207.212 167.556 207.28L167.244 207.091L166.948 206.905C170.031 201.931 171.122 194.9 171.161 187.587C171.164 187.351 171.168 187.112 171.164 186.873C171.154 183.777 170.964 180.645 170.66 177.603C170.639 177.367 170.614 177.128 170.589 176.889C170.167 172.875 169.559 169.04 168.936 165.709C168.893 165.473 168.847 165.237 168.8 165.005C167.724 159.37 166.626 155.289 166.375 154.385C166.347 154.275 166.329 154.214 166.325 154.2L166.665 154.103L166.669 154.1L167.012 154.003C167.015 154.018 167.076 154.221 167.176 154.6C167.559 156.014 168.553 159.852 169.53 164.916C169.573 165.144 169.619 165.38 169.662 165.616C170.17 168.319 170.667 171.34 171.061 174.511C171.161 175.307 171.25 176.093 171.329 176.867C171.358 177.107 171.383 177.346 171.404 177.582C171.733 180.87 171.904 183.952 171.916 186.826Z" fill="white"/>
<path d="M169.529 164.916C169.29 164.948 169.047 164.98 168.8 165.005C168.13 165.074 167.456 165.109 166.782 165.109C163.911 165.112 161.075 164.473 158.485 163.238C158.334 163.427 158.184 163.616 158.03 163.809C160.756 165.137 163.749 165.826 166.782 165.823C167.502 165.823 168.22 165.784 168.936 165.709C169.179 165.684 169.422 165.651 169.662 165.616C171.64 165.332 173.563 164.751 175.367 163.891C175.213 163.695 175.063 163.502 174.916 163.313C173.209 164.109 171.394 164.649 169.529 164.916Z" fill="white"/>
<path d="M171.329 176.867C171.082 176.882 170.836 176.889 170.589 176.889C170.514 176.892 170.435 176.892 170.36 176.892C167.249 176.892 164.183 176.141 161.426 174.703C158.668 173.265 156.3 171.183 154.522 168.633C154.379 168.844 154.236 169.054 154.097 169.269C155.949 171.848 158.391 173.95 161.219 175.4C164.047 176.85 167.181 177.606 170.36 177.607C170.46 177.607 170.56 177.607 170.66 177.603C170.911 177.599 171.158 177.592 171.404 177.582C175.223 177.386 178.905 176.097 182.009 173.868C181.895 173.657 181.78 173.447 181.662 173.236C178.645 175.424 175.054 176.686 171.329 176.867Z" fill="white"/>
<path d="M171.915 186.826C171.665 186.848 171.415 186.862 171.164 186.873C170.896 186.884 170.628 186.891 170.359 186.891C166.179 186.886 162.112 185.529 158.768 183.024C155.424 180.519 152.983 176.999 151.811 172.993C151.65 173.282 151.489 173.568 151.335 173.857C152.656 177.854 155.206 181.334 158.621 183.802C162.036 186.27 166.143 187.6 170.359 187.605C170.628 187.605 170.896 187.601 171.161 187.587C171.415 187.58 171.665 187.566 171.915 187.548C176.972 187.153 181.69 184.854 185.113 181.117C185.038 180.852 184.952 180.592 184.867 180.327C181.56 184.093 176.915 186.424 171.915 186.826Z" fill="white"/>
<path d="M150.489 44.974L50.8463 32.2912C50.5778 32.2569 50.3075 32.2393 50.0369 32.2388C49.7701 32.2383 49.5036 32.2551 49.2391 32.2891C48.9749 32.323 48.7133 32.3741 48.4559 32.4421C48.1954 32.5115 47.9397 32.5977 47.6904 32.7C47.4461 32.8001 47.2082 32.9149 46.9778 33.0439C46.7444 33.1737 46.5188 33.3173 46.3023 33.4737C46.0808 33.6342 45.8687 33.8071 45.6668 33.9917C45.4584 34.1815 45.2604 34.3824 45.0735 34.5934C44.8818 34.8107 44.7013 35.0377 44.5328 35.2734C44.3626 35.5121 44.2028 35.7604 44.0536 36.0183C43.9043 36.2771 43.7658 36.5462 43.6381 36.8256C43.5104 37.105 43.3938 37.3938 43.2885 37.6921C43.1794 38.0005 43.0838 38.3157 43.0018 38.6378C42.9197 38.9598 42.8511 39.2875 42.796 39.6208C42.742 39.9538 42.7007 40.2922 42.672 40.6361C42.6433 40.9799 42.6289 41.328 42.6289 41.6801C42.63 42.032 42.6444 42.3828 42.672 42.7324C42.6995 43.082 42.7409 43.4287 42.796 43.7726C42.8517 44.1179 42.9205 44.4598 43.0026 44.7982C43.0847 45.1366 43.1803 45.4712 43.2894 45.8018C43.3947 46.1214 43.5112 46.4336 43.639 46.7385C43.7667 47.0437 43.9052 47.3405 44.0544 47.6291C44.2037 47.9176 44.3634 48.1979 44.5336 48.4699C44.7036 48.7429 44.8838 49.0057 45.0744 49.2582C45.265 49.5106 45.4627 49.7515 45.6677 49.9807C45.8726 50.2085 46.0845 50.4235 46.3032 50.6255C46.5219 50.8275 46.7471 51.0162 46.9787 51.1916C47.2078 51.3652 47.4456 51.527 47.6913 51.6764C47.9386 51.8271 48.1942 51.9639 48.4568 52.0861C48.7115 52.2046 48.973 52.3081 49.2399 52.396C49.5013 52.4821 49.7678 52.5523 50.0377 52.6062C50.305 52.6593 50.5753 52.6959 50.8471 52.7158L150.49 59.9925C150.78 60.0135 151.071 59.9844 151.351 59.9065C151.493 59.8669 151.632 59.8157 151.766 59.7535C151.906 59.6885 152.041 59.613 152.17 59.5278C152.3 59.4414 152.425 59.3467 152.543 59.2441C152.667 59.1365 152.784 59.0216 152.894 58.9002C153.011 58.772 153.12 58.6377 153.223 58.4979C153.328 58.3541 153.43 58.2008 153.528 58.038C153.625 57.8752 153.718 57.7054 153.805 57.5286C153.892 57.3518 153.973 57.1681 154.049 56.9776C154.125 56.7873 154.195 56.5904 154.26 56.387C154.324 56.1835 154.383 55.9741 154.436 55.7586C154.492 55.5356 154.54 55.3087 154.581 55.0777C154.621 54.8467 154.656 54.6123 154.685 54.3745C154.713 54.1367 154.733 53.8957 154.747 53.6515C154.761 53.4074 154.768 53.1605 154.768 52.9109C154.767 52.6616 154.76 52.4134 154.747 52.1664C154.734 51.9194 154.713 51.6743 154.685 51.431C154.657 51.1877 154.622 50.9464 154.581 50.7071C154.54 50.4679 154.491 50.2312 154.436 49.997C154.383 49.7707 154.324 49.5494 154.26 49.3334C154.196 49.1202 154.125 48.9101 154.049 48.7032C153.972 48.4963 153.891 48.2957 153.805 48.1015C153.718 47.9075 153.626 47.7192 153.528 47.5367C153.43 47.3541 153.328 47.1805 153.223 47.0157C153.117 46.8509 153.007 46.6947 152.894 46.5472C152.781 46.3996 152.664 46.2615 152.543 46.1328C152.425 46.0067 152.3 45.8871 152.17 45.7743C152.042 45.6638 151.907 45.5615 151.766 45.4678C151.634 45.3794 151.495 45.3004 151.351 45.2314C151.213 45.1655 151.071 45.1103 150.925 45.0664C150.782 45.0237 150.637 44.9928 150.489 44.974Z" fill="#00B4A9"/>
<path d="M150.489 73.5784L50.8463 71.1958C50.3058 71.1825 49.7657 71.2375 49.2391 71.3596C48.9734 71.4213 48.7118 71.4996 48.4559 71.5938C48.1942 71.6901 47.9386 71.8021 47.6904 71.9291C47.4453 72.0545 47.2074 72.1934 46.9778 72.3452C46.7438 72.4999 46.5183 72.6671 46.3023 72.8459C46.0806 73.0295 45.8685 73.2244 45.6668 73.4297C45.4616 73.6383 45.2638 73.86 45.0735 74.095C44.8832 74.3306 44.703 74.576 44.5328 74.8313C44.3626 75.0867 44.2028 75.3514 44.0536 75.6257C43.9043 75.8999 43.7658 76.1833 43.6381 76.4759C43.5104 76.7685 43.3938 77.0693 43.2885 77.3785C43.1794 77.6986 43.0838 78.0239 43.0017 78.3543C42.9197 78.6847 42.8511 79.0194 42.796 79.3584C42.742 79.6974 42.7007 80.0402 42.672 80.387C42.6433 80.7337 42.6289 81.0832 42.6289 81.4353C42.63 81.7875 42.6444 82.1368 42.672 82.4833C42.6995 82.8297 42.7409 83.1723 42.796 83.511C42.8516 83.848 42.9205 84.1814 43.0026 84.5113C43.0847 84.8411 43.1803 85.1658 43.2893 85.4853C43.3947 85.7953 43.5112 86.0962 43.6389 86.3879C43.7667 86.6796 43.9052 86.9622 44.0544 87.2356C44.2037 87.5089 44.3634 87.7727 44.5336 88.0269C44.7036 88.2802 44.8838 88.5238 45.0744 88.7576C45.265 88.9914 45.4627 89.2119 45.6677 89.4191C45.8694 89.6232 46.0815 89.8167 46.3032 89.999C46.5192 90.1765 46.7447 90.3422 46.9787 90.4954C47.2083 90.6457 47.4462 90.7831 47.6912 90.9068C47.9395 91.0323 48.1951 91.1427 48.4568 91.2373C48.7128 91.3299 48.9743 91.4065 49.2399 91.4664C49.5029 91.5262 49.7693 91.5693 50.0377 91.5954C50.3067 91.6211 50.5771 91.6298 50.8471 91.6216L150.489 88.5951C150.635 88.5907 150.781 88.5739 150.925 88.5448C151.07 88.5154 151.213 88.4742 151.351 88.4215C151.494 88.3668 151.633 88.3013 151.766 88.2255C151.907 88.1457 152.042 88.0564 152.17 87.9581C152.3 87.8581 152.425 87.7504 152.543 87.6357C152.666 87.5154 152.784 87.3886 152.894 87.2558C153.007 87.1205 153.117 86.9751 153.223 86.8195C153.328 86.6639 153.43 86.5001 153.528 86.3282C153.625 86.1551 153.718 85.9757 153.805 85.79C153.892 85.6043 153.973 85.4123 154.049 85.214C154.125 85.0126 154.195 84.8076 154.26 84.599C154.324 84.3903 154.383 84.1754 154.436 83.9542C154.492 83.7278 154.54 83.497 154.581 83.2617C154.621 83.0265 154.656 82.7885 154.685 82.5478C154.713 82.3062 154.733 82.0626 154.747 81.8171C154.761 81.5715 154.768 81.3239 154.768 81.0743C154.767 80.827 154.76 80.58 154.747 80.3333C154.734 80.0865 154.713 79.843 154.685 79.6025C154.657 79.3613 154.622 79.1236 154.581 78.8895C154.54 78.6553 154.491 78.4237 154.436 78.1944C154.383 77.9732 154.324 77.7577 154.259 77.5479C154.195 77.3382 154.125 77.1344 154.049 76.9367C153.973 76.739 153.892 76.5474 153.805 76.362C153.718 76.1766 153.626 75.9979 153.528 75.826C153.43 75.6538 153.329 75.4904 153.223 75.336C153.117 75.1815 153.008 75.0367 152.894 74.9014C152.784 74.7693 152.667 74.6432 152.543 74.5236C152.425 74.4097 152.301 74.3029 152.17 74.2038C152.042 74.1064 151.907 74.0179 151.767 73.939C151.633 73.8643 151.494 73.7999 151.351 73.7465C151.212 73.6946 151.07 73.6542 150.925 73.6257C150.781 73.5976 150.635 73.5818 150.489 73.5784Z" fill="#E4E4E4"/>
<path d="M150.489 100.395L50.8463 107.67C50.5745 107.69 50.3041 107.726 50.0369 107.78C49.7669 107.833 49.5005 107.904 49.2391 107.99C48.9722 108.078 48.7107 108.181 48.4559 108.3C48.1933 108.422 47.9377 108.559 47.6904 108.709C47.4448 108.859 47.2069 109.021 46.9778 109.194C46.7459 109.371 46.5207 109.56 46.3023 109.76C46.0839 109.962 45.8721 110.177 45.6668 110.405C45.4616 110.633 45.2638 110.874 45.0735 111.128C44.8832 111.382 44.703 111.645 44.5328 111.917C44.3626 112.189 44.2028 112.469 44.0536 112.758C43.9043 113.046 43.7658 113.343 43.6381 113.648C43.5104 113.953 43.3938 114.265 43.2885 114.585C43.1794 114.915 43.0838 115.249 43.0018 115.588C42.9197 115.927 42.8511 116.269 42.796 116.613C42.742 116.957 42.7007 117.304 42.672 117.653C42.6433 118.003 42.6289 118.353 42.6289 118.706C42.63 119.058 42.6444 119.406 42.672 119.75C42.6995 120.094 42.7409 120.432 42.796 120.765C42.8517 121.1 42.9205 121.427 43.0026 121.749C43.0847 122.07 43.1803 122.386 43.2894 122.695C43.3947 122.993 43.5112 123.282 43.639 123.561C43.7667 123.84 43.9052 124.11 44.0544 124.368C44.2037 124.627 44.3634 124.875 44.5336 125.113C44.7021 125.349 44.8826 125.576 45.0744 125.793C45.2613 126.004 45.4593 126.205 45.6677 126.395C45.8695 126.579 46.0817 126.752 46.3032 126.913C46.5197 127.069 46.7452 127.213 46.9787 127.343C47.209 127.472 47.447 127.587 47.6913 127.687C47.9406 127.789 48.1963 127.875 48.4568 127.945C48.7142 128.013 48.9758 128.064 49.2399 128.098C49.5045 128.132 49.771 128.148 50.0377 128.148C50.3084 128.147 50.5787 128.13 50.8471 128.095L150.489 115.416C150.637 115.397 150.782 115.366 150.925 115.323C151.071 115.279 151.213 115.224 151.351 115.158C151.495 115.089 151.634 115.01 151.766 114.922C151.907 114.828 152.042 114.726 152.17 114.615C152.3 114.503 152.425 114.383 152.543 114.257C152.662 114.128 152.779 113.99 152.894 113.842C153.007 113.695 153.117 113.539 153.223 113.374C153.328 113.209 153.43 113.035 153.528 112.853C153.625 112.672 153.718 112.484 153.805 112.288C153.892 112.093 153.973 111.892 154.049 111.686C154.125 111.48 154.195 111.268 154.26 111.052C154.324 110.836 154.383 110.615 154.436 110.389C154.492 110.154 154.54 109.918 154.581 109.678C154.621 109.439 154.656 109.198 154.685 108.954C154.713 108.711 154.733 108.466 154.747 108.219C154.761 107.972 154.768 107.724 154.768 107.474C154.767 107.226 154.76 106.98 154.747 106.736C154.734 106.491 154.713 106.25 154.684 106.013C154.657 105.774 154.622 105.539 154.581 105.308C154.54 105.077 154.491 104.85 154.436 104.627C154.383 104.411 154.324 104.202 154.26 103.999C154.196 103.796 154.126 103.599 154.049 103.408C153.973 103.218 153.891 103.034 153.805 102.857C153.718 102.682 153.625 102.512 153.527 102.349C153.429 102.186 153.327 102.032 153.222 101.889C153.119 101.749 153.01 101.615 152.893 101.487C152.783 101.365 152.666 101.251 152.542 101.143C152.424 101.04 152.299 100.946 152.169 100.859C152.04 100.774 151.906 100.699 151.766 100.634C151.632 100.571 151.493 100.52 151.35 100.481C151.07 100.403 150.779 100.374 150.489 100.395" fill="#E4E4E4"/>
<path d="M96.1774 101.728C96.8086 102.775 97.8032 103.555 98.9723 103.919C100.141 104.283 101.404 104.206 102.519 103.702C103.635 103.198 104.527 102.302 105.025 101.185C105.523 100.069 105.593 98.8079 105.222 97.6429L124.533 58.0334L115.29 52.4388L98.6116 94.5121C98.5478 94.5369 98.4851 94.5628 98.4233 94.5899C98.3615 94.617 98.2999 94.6453 98.2385 94.6748C98.1772 94.7043 98.1163 94.7353 98.0558 94.7679C97.9954 94.8005 97.9354 94.8348 97.8759 94.8707C96.74 95.5551 95.923 96.662 95.6044 97.9477C95.2858 99.2335 95.4918 100.593 96.177 101.727L96.1774 101.728Z" fill="#FFB6B6"/>
<path d="M120.847 73.307L107.128 69.7964C107.128 69.7964 107.576 68.7855 108.304 67.1108C109.032 65.436 110.049 63.1007 111.193 60.4492C112.337 57.7977 113.607 54.8351 114.847 51.9067C116.087 48.9782 117.293 46.0848 118.308 43.5769C119.324 41.069 120.478 39.567 121.637 38.7252C122.597 37.9969 123.806 37.6761 125.001 37.8324C125.93 37.9705 126.818 38.308 127.604 38.8216C127.976 39.0527 128.326 39.3177 128.649 39.6133L131.83 45.3885L120.847 73.307Z" fill="#CCCCCC"/>
<path d="M11.053 70.1701C10.7207 70.1946 10.3901 70.2377 10.0627 70.2991C9.73319 70.3607 9.40735 70.4405 9.08668 70.5381C8.76112 70.6373 8.44118 70.7541 8.12828 70.888C7.80803 71.0249 7.49518 71.1784 7.19099 71.3479C6.89334 71.5149 6.60243 71.6966 6.31827 71.8929C6.03411 72.0892 5.75813 72.3001 5.49033 72.5256C5.22282 72.7506 4.9632 72.9904 4.71147 73.2452C4.45975 73.4999 4.21722 73.7686 3.98386 74.0511C3.75051 74.3337 3.52934 74.6264 3.32038 74.9293C3.11142 75.2322 2.91538 75.5442 2.73226 75.8655C2.55085 76.1873 2.38121 76.5178 2.22335 76.8571C2.06548 77.1963 1.92197 77.5435 1.79281 77.8986C1.65819 78.2668 1.54036 78.6389 1.43933 79.0148C1.33829 79.3908 1.25405 79.7699 1.1866 80.1522C1.11886 80.5345 1.06806 80.9193 1.03419 81.3067C1.00032 81.6942 0.983389 82.0832 0.983398 82.4737C0.983398 82.8643 1.00033 83.2499 1.03419 83.6304C1.06805 84.011 1.11885 84.3857 1.1866 84.7545C1.25405 85.1233 1.33829 85.4855 1.43933 85.8411C1.54036 86.1967 1.65776 86.545 1.79152 86.886C1.92183 87.2153 2.06534 87.5338 2.22206 87.8415C2.37697 88.1462 2.5471 88.4428 2.73182 88.7304C2.91365 89.0126 3.10996 89.2852 3.31996 89.5471C3.52795 89.8075 3.74955 90.0567 3.98385 90.2938C4.21428 90.5268 4.45718 90.7472 4.71147 90.954C4.96049 91.1565 5.22065 91.3449 5.49075 91.5184C6.02379 91.8609 6.59441 92.1412 7.19141 92.354C7.80341 92.5723 8.43941 92.7166 9.0858 92.7838C9.41003 92.8172 9.73594 92.8315 10.0619 92.8268C10.393 92.8222 10.7236 92.7988 11.0521 92.7567C11.3836 92.7146 11.7124 92.6542 12.0372 92.5758C12.3629 92.4971 12.6842 92.4008 12.9995 92.2873C13.3183 92.1725 13.6309 92.0409 13.9359 91.8932C14.2467 91.7427 14.5496 91.5765 14.8435 91.3954C15.1297 91.2172 15.4084 91.0261 15.6796 90.822C15.9508 90.618 16.2136 90.4005 16.4679 90.1696C16.7222 89.9386 16.9678 89.695 17.2046 89.4388C17.4414 89.1826 17.669 88.9139 17.8874 88.6325C18.1073 88.3513 18.3143 88.0618 18.5083 87.7638C18.7023 87.4657 18.884 87.1598 19.0534 86.8461C19.2227 86.5323 19.3794 86.2112 19.5235 85.8828C19.6676 85.5544 19.7989 85.2191 19.9175 84.877C20.0403 84.5228 20.1478 84.1656 20.24 83.8054C20.3321 83.4452 20.409 83.0824 20.4707 82.717C20.5321 82.3514 20.5784 81.9839 20.6094 81.6145C20.6404 81.2451 20.6559 80.8742 20.6559 80.5017C20.6556 80.1292 20.6401 79.7612 20.6094 79.3978C20.5786 79.0345 20.5324 78.6763 20.4707 78.3233C20.4093 77.9708 20.3324 77.6235 20.24 77.2813C20.1475 76.9392 20.04 76.6035 19.9175 76.2742C19.7984 75.9556 19.667 75.6465 19.5235 75.3471C19.378 75.0485 19.2206 74.7588 19.0512 74.4779C18.716 73.9229 18.3261 73.4027 17.8874 72.9249C17.6722 72.69 17.4448 72.4663 17.2063 72.2548C16.9715 72.0473 16.7255 71.8526 16.4697 71.6715C16.2162 71.4922 15.953 71.3271 15.6813 71.1768C15.4098 71.0266 15.1301 70.8917 14.8435 70.7728C14.2517 70.5267 13.6329 70.3514 12.9999 70.2505C12.6813 70.1998 12.36 70.1678 12.0376 70.1546C11.7092 70.1414 11.3803 70.1468 11.0526 70.171" fill="#E4E4E4"/>
<path d="M11.053 110.575C10.7207 110.599 10.3901 110.642 10.0627 110.704C9.73319 110.765 9.40735 110.845 9.08668 110.943C8.76112 111.042 8.44118 111.159 8.12828 111.293C7.80803 111.43 7.49518 111.583 7.19099 111.753C6.89334 111.92 6.60243 112.101 6.31827 112.298C6.03411 112.494 5.75813 112.705 5.49033 112.93C5.22282 113.155 4.9632 113.395 4.71147 113.65C4.45975 113.905 4.21722 114.173 3.98386 114.456C3.75051 114.738 3.52934 115.031 3.32038 115.334C3.11142 115.637 2.91538 115.949 2.73226 116.27C2.55085 116.592 2.38121 116.922 2.22335 117.262C2.06548 117.601 1.92197 117.948 1.79281 118.303C1.65819 118.671 1.54036 119.044 1.43933 119.42C1.33829 119.795 1.25405 120.175 1.1866 120.557C1.11886 120.939 1.06806 121.324 1.03419 121.711C1.00032 122.099 0.983389 122.488 0.983398 122.878C0.983398 123.269 1.00033 123.655 1.03419 124.035C1.06805 124.416 1.11885 124.79 1.1866 125.159C1.25405 125.528 1.33829 125.89 1.43933 126.246C1.54036 126.601 1.65776 126.95 1.79152 127.291C1.92183 127.62 2.06534 127.938 2.22206 128.246C2.37697 128.551 2.5471 128.847 2.73182 129.135C2.91365 129.417 3.10996 129.69 3.31996 129.952C3.52795 130.212 3.74955 130.461 3.98385 130.698C4.21428 130.931 4.45718 131.152 4.71147 131.359C4.96049 131.561 5.22065 131.75 5.49075 131.923C6.02379 132.266 6.59441 132.546 7.19141 132.759C7.80341 132.977 8.43941 133.121 9.0858 133.188C9.41003 133.222 9.73594 133.236 10.0619 133.231C10.393 133.227 10.7236 133.203 11.0521 133.161C11.3836 133.119 11.7124 133.059 12.0372 132.98C12.3629 132.902 12.6842 132.805 12.9995 132.692C13.3183 132.577 13.6309 132.446 13.9359 132.298C14.2467 132.147 14.5496 131.981 14.8435 131.8C15.1297 131.622 15.4084 131.431 15.6796 131.227C15.9508 131.023 16.2136 130.805 16.4679 130.574C16.7222 130.343 16.9678 130.1 17.2046 129.843C17.4414 129.587 17.669 129.319 17.8874 129.037C18.1073 128.756 18.3143 128.466 18.5083 128.168C18.7023 127.87 18.884 127.564 19.0534 127.251C19.2227 126.937 19.3794 126.616 19.5235 126.287C19.6676 125.959 19.7989 125.624 19.9175 125.282C20.0403 124.927 20.1478 124.57 20.24 124.21C20.3321 123.85 20.409 123.487 20.4707 123.122C20.5321 122.756 20.5784 122.389 20.6094 122.019C20.6404 121.65 20.6559 121.279 20.6559 120.906C20.6556 120.534 20.6401 120.166 20.6094 119.803C20.5786 119.439 20.5324 119.081 20.4707 118.728C20.4093 118.375 20.3324 118.028 20.24 117.686C20.1475 117.344 20.04 117.008 19.9175 116.679C19.7984 116.36 19.667 116.051 19.5235 115.752C19.378 115.453 19.2206 115.163 19.0512 114.883C18.716 114.328 18.3261 113.807 17.8874 113.33C17.6722 113.095 17.4448 112.871 17.2063 112.659C16.9715 112.452 16.7255 112.257 16.4697 112.076C16.2162 111.897 15.953 111.732 15.6813 111.581C15.4098 111.431 15.1301 111.296 14.8435 111.177C14.2517 110.931 13.6329 110.756 12.9999 110.655C12.6813 110.604 12.36 110.572 12.0376 110.559C11.7092 110.546 11.3803 110.551 11.0526 110.576" fill="#E4E4E4"/>
<path d="M11.0545 26.3991C10.724 26.391 10.3934 26.4018 10.0642 26.4313C9.73635 26.4607 9.41047 26.5089 9.08816 26.5757C8.76403 26.6434 8.44403 26.7295 8.12976 26.8336C7.81066 26.9391 7.49774 27.0624 7.19247 27.2029C6.89367 27.3403 6.60236 27.4934 6.31976 27.6615C6.03436 27.8313 5.75801 28.0158 5.49182 28.2142C5.22132 28.4159 4.96123 28.6311 4.71253 28.859C4.45966 29.0908 4.21669 29.3366 3.98363 29.5962C3.75027 29.8561 3.52911 30.1275 3.32014 30.4103C3.11118 30.6931 2.91514 30.9863 2.73202 31.2897C2.54975 31.5972 2.37968 31.9123 2.22182 32.2349C2.06396 32.5576 1.92045 32.8908 1.79128 33.2347C1.65753 33.5892 1.54013 33.9495 1.43909 34.3158C1.33805 34.682 1.25381 35.0529 1.18636 35.4286C1.11862 35.8054 1.06782 36.1854 1.03395 36.5685C1.00008 36.9517 0.983152 37.3385 0.983161 37.7291C0.983161 38.1191 1.00009 38.506 1.03395 38.8897C1.06781 39.2734 1.11861 39.6529 1.18636 40.0283C1.25381 40.4037 1.33806 40.7741 1.43909 41.1394C1.54012 41.5048 1.65752 41.8644 1.79128 42.2183C1.92159 42.5602 2.0651 42.8926 2.22182 43.2155C2.37969 43.5373 2.55018 43.8495 2.73329 44.1521C2.9164 44.4548 3.11245 44.7466 3.32142 45.0277C3.53009 45.3097 3.75125 45.5796 3.98489 45.8375C4.21854 46.0954 4.46108 46.339 4.71251 46.5683C4.95991 46.7953 5.21871 47.0096 5.48792 47.2104C5.75415 47.4071 6.03051 47.5898 6.31586 47.7576C6.59852 47.924 6.88983 48.0752 7.18858 48.2107C7.49392 48.3492 7.80685 48.4705 8.12588 48.5739C8.75364 48.7767 9.40274 48.9065 10.0603 48.9607C10.7188 49.0152 11.3813 48.9952 12.0352 48.901C12.3594 48.8542 12.6807 48.789 12.9975 48.7058C13.3151 48.6223 13.6277 48.521 13.9339 48.4024C14.2437 48.2825 14.5467 48.1457 14.8415 47.9927C15.129 47.8437 15.4087 47.68 15.6794 47.5023C15.9516 47.3234 16.2147 47.1311 16.4677 46.9259C16.722 46.7196 16.9675 46.4998 17.2043 46.2665C17.4411 46.0333 17.6688 45.7865 17.8872 45.5263C18.1071 45.2661 18.314 44.9965 18.508 44.7174C18.7021 44.4383 18.8838 44.15 19.0531 43.8525C19.223 43.5551 19.3798 43.2492 19.5233 42.9348C19.6668 42.6205 19.7981 42.2985 19.9172 41.969C20.0401 41.6269 20.1476 41.2801 20.2397 40.9288C20.3318 40.5775 20.4088 40.2221 20.4705 39.8628C20.5319 39.502 20.5781 39.1384 20.6091 38.7719C20.6401 38.4054 20.6556 38.0359 20.6556 37.6633C20.6553 37.2911 20.6398 36.9217 20.6091 36.5552C20.5784 36.1887 20.5322 35.8261 20.4705 35.4673C20.409 35.1082 20.3321 34.7532 20.2397 34.4022C20.1473 34.0511 20.0398 33.705 19.9172 33.3637C19.7981 33.0338 19.6668 32.7122 19.5233 32.3987C19.3798 32.0852 19.2223 31.7799 19.051 31.4827C18.8816 31.1881 18.6999 30.9016 18.5059 30.623C18.3118 30.3445 18.1056 30.0763 17.8872 29.8184C17.6702 29.5608 17.4432 29.3159 17.2061 29.0838C16.969 28.8517 16.7234 28.6335 16.4694 28.4292C16.2166 28.2252 15.9536 28.0341 15.6815 27.8566C15.4108 27.6806 15.1311 27.5186 14.8437 27.3713C14.5488 27.2201 14.2458 27.0853 13.9361 26.9673C13.6298 26.8506 13.3171 26.7513 12.9996 26.6698C12.6828 26.5886 12.3615 26.5254 12.0374 26.4807C11.7108 26.4358 11.3819 26.4094 11.0523 26.4016L11.0545 26.3991ZM11.0523 25.3262C12.4986 25.3657 13.9171 25.7322 15.201 26.3982C16.4769 27.0642 17.6078 27.9763 18.5283 29.0817C19.4904 30.2336 20.2398 31.5471 20.7413 32.9609C21.8153 36.004 21.8153 39.3222 20.7413 42.3653C20.2392 43.7832 19.49 45.1013 18.5283 46.2588C17.6077 47.3694 16.4769 48.2879 15.2006 48.962C13.9184 49.6359 12.5001 50.0117 11.0519 50.0611C9.59471 50.1088 8.14617 49.8205 6.81874 49.2186C5.47866 48.6058 4.2798 47.7233 3.29731 46.6263C2.25399 45.4646 1.43743 44.1185 0.889705 42.6572C-0.296568 39.476 -0.296568 35.9749 0.889705 32.7937C1.43797 31.3281 2.25437 29.9769 3.29731 28.8091C4.2795 27.706 5.47805 26.816 6.81874 26.194C8.14513 25.5836 9.59442 25.2861 11.0544 25.3245L11.0523 25.3262Z" fill="#00B4A9"/>
<path d="M11.0535 40.7336L7.66211 33.68L8.46723 33.1565L11.2606 38.9511C15.841 33.5762 18.4091 30.5627 22.9895 25.1877L23.6995 25.943L11.0535 40.7336Z" fill="#00B4A9"/>
<path d="M134.481 179.991L126.085 179.958L128.792 201.86L134.481 201.888V179.991Z" fill="#9E616A"/>
<path d="M135.931 207.399L117.6 207.302V207.071C117.599 206.601 117.645 206.133 117.737 205.672C117.917 204.763 118.276 203.899 118.793 203.129C119.319 202.35 119.993 201.681 120.776 201.16C121.549 200.647 122.417 200.292 123.328 200.116C123.79 200.027 124.26 199.984 124.73 199.987L135.931 200.042V207.399Z" fill="#2F2E41"/>
<path d="M107.599 179.887L99.2275 179.854L101.926 201.726L107.599 201.754V179.887Z" fill="#9E616A"/>
<path d="M109.045 207.257L90.7617 207.161V206.929C90.7616 206.46 90.8074 205.993 90.8986 205.533C91.0783 204.625 91.4366 203.762 91.9526 202.993C92.4765 202.215 93.1485 201.546 93.9305 201.026C94.7015 200.514 95.5667 200.16 96.4759 199.984C96.9368 199.896 97.4054 199.852 97.8748 199.855L109.045 199.91V207.257Z" fill="#2F2E41"/>
<path d="M107.243 90.3699L93.165 142.819L98.3178 193.096L109.727 193.41L107.243 148.013L121.476 125.358L124.563 193.719L134.913 192.989L140.67 134.212C142.625 129.622 144.06 124.829 144.945 119.92C145.642 116.067 145.98 112.159 145.957 108.244C145.945 105.608 145.742 102.977 145.35 100.37C145.209 99.3991 145.02 98.4356 144.781 97.4837L140.584 93.2356L107.243 90.3699Z" fill="#2F2E41"/>
<path d="M125.894 99.1421C123.527 99.1421 121.305 99.0662 119.291 98.9164C117.234 98.7755 115.187 98.5065 113.163 98.1111C111.439 97.7897 109.761 97.2622 108.164 96.54C106.879 95.9856 105.761 95.1049 104.922 93.9855L104.826 93.8462L108.674 68.8457L112.823 40.7357C113.096 38.8755 114.045 37.1805 115.489 35.9734C116.933 34.7663 118.771 34.1313 120.653 34.1893L133.648 34.5868C134.623 34.6167 135.581 34.8416 136.467 35.2481C137.353 35.6547 138.148 36.2347 138.805 36.9537C139.462 37.6727 139.968 38.5161 140.293 39.434C140.617 40.3518 140.754 41.3253 140.695 42.2969L138.989 70.2526L145.281 97.8279L144.836 97.89C144.657 97.9137 143.966 98.0047 142.884 98.1263C141.47 98.2849 140.026 98.4279 138.593 98.5513C136.565 98.7259 134.581 98.8631 132.695 98.9593C130.303 99.081 128.011 99.14 125.894 99.1421Z" fill="#00B4A9"/>
<path d="M118.684 29.2218C118.68 29.2218 118.677 29.2218 118.673 29.2218C118.401 29.2216 118.131 29.1678 117.879 29.0635C117.627 28.9592 117.398 28.8064 117.206 28.6138C117.013 28.4212 116.86 28.1926 116.756 27.9411C116.652 27.6896 116.598 27.42 116.599 27.1478V15.5809C116.597 13.5086 117.012 11.457 117.82 9.54819C119.402 5.82315 122.364 2.85143 126.087 1.25235C128.441 0.244091 131.009 -0.165441 133.561 0.0604237C136.113 0.286289 138.57 1.1405 140.71 2.54656C142.85 3.95263 144.607 5.86666 145.825 8.11724C147.042 10.3678 147.682 12.8847 147.686 15.4425V27.0271C147.686 27.3058 147.63 27.5818 147.521 27.8386C147.308 28.3394 146.909 28.7386 146.408 28.9527C146.151 29.0623 145.874 29.1192 145.595 29.1199L118.682 29.2218H118.684Z" fill="#2F2E41"/>
<path d="M139.16 11.614C140.244 13.5907 140.717 15.8439 140.519 18.0888C140.322 20.3337 139.462 22.4698 138.049 24.2272C136.636 25.9846 134.733 27.2846 132.58 27.9628C130.427 28.6411 128.122 28.6673 125.954 28.0381C124.519 27.6263 123.18 26.9343 122.014 26.0021C120.849 25.0699 119.88 23.9161 119.164 22.6075C118.083 20.6317 117.612 18.3804 117.81 16.1375C118.008 13.8946 118.867 11.7605 120.279 10.0044C121.69 8.24825 123.591 6.94864 125.741 6.26942C127.891 5.59021 130.195 5.5618 132.361 6.18778C133.798 6.59804 135.139 7.28897 136.306 8.22052C137.473 9.15207 138.443 10.3057 139.16 11.6145V11.614Z" fill="#FFB6B6"/>
<path d="M112.924 16.5223C112.922 14.8834 113.251 13.2608 113.89 11.7511C115.141 8.80557 117.483 6.45583 120.427 5.19184C121.937 4.54571 123.563 4.2095 125.206 4.20322L127.525 4.19161C127.551 4.19146 127.577 4.19139 127.603 4.19141C129.209 4.1924 130.799 4.50912 132.282 5.12351C133.765 5.7379 135.112 6.63792 136.247 7.77217C137.382 8.90643 138.282 10.2527 138.895 11.7342C139.509 13.2156 139.824 14.8032 139.823 16.4063V16.638L134.917 16.6577L133.245 11.9923L132.91 16.6667L130.376 16.6779L129.533 14.3241L129.364 16.6809L112.926 16.7544L112.924 16.5223Z" fill="#2F2E41"/>
<path d="M93.1743 40.8554C92.4195 41.0398 91.7136 41.3852 91.1052 41.8678C90.6297 42.2434 90.2232 42.6985 89.9036 43.2129C89.2734 44.2309 88.9957 45.4274 89.1133 46.6184C89.1726 47.22 89.3361 47.8068 89.5964 48.3527C89.9173 49.033 90.379 49.6376 90.9512 50.1266C91.5234 50.6155 92.1929 50.9778 92.9157 51.1894C93.6384 51.401 94.3979 51.4572 95.1439 51.3542C95.89 51.2512 96.6057 50.9914 97.2438 50.5919C97.2908 50.5616 97.3374 50.5308 97.3835 50.4996C97.4296 50.4684 97.4749 50.4365 97.5194 50.4041C97.5641 50.3715 97.6081 50.3384 97.6513 50.3049C97.6945 50.2713 97.7374 50.2373 97.78 50.2027L124.849 59.8211C125.682 60.1168 126.589 60.1345 127.433 59.8714C128.277 59.6082 129.012 59.0786 129.528 58.3621L135.946 49.4912L128.187 44.275L124.115 48.8928L99.342 43.973C99.315 43.9089 99.287 43.8451 99.258 43.7817C99.2291 43.7182 99.1989 43.6551 99.1674 43.5922C99.1353 43.5295 99.1024 43.4671 99.0684 43.405C99.0345 43.3429 98.9986 43.2814 98.9607 43.2203C98.3697 42.2669 97.4916 41.5247 96.4522 41.0999C95.4128 40.6751 94.2654 40.5895 93.1743 40.8554Z" fill="#FFB6B6"/>
<path d="M124.552 45.9805C125.362 44.9716 126.494 43.6617 127.644 42.3624C128.794 41.0632 129.962 39.7755 130.842 38.8122C131.723 37.8489 132.315 37.2104 132.315 37.2104C133.128 35.9835 134.341 35.0753 135.749 34.6401C137.156 34.2049 138.671 34.2695 140.036 34.8229C141.401 35.3763 142.532 36.3845 143.237 37.6761C143.942 38.9677 144.177 40.4631 143.903 41.9083C143.747 42.7403 143.423 43.5321 142.952 44.236C142.952 44.236 142.069 45.3897 140.736 47.1118C139.403 48.8339 137.619 51.1263 135.82 53.4054C134.021 55.6844 132.204 57.9516 130.804 59.6252C129.403 61.2988 128.417 62.38 128.278 62.2874L123.393 47.788C123.254 47.6954 123.742 46.9894 124.552 45.9805Z" fill="#00B4A9"/>
<path d="M127.452 28.8573C127.375 29.2312 127.405 29.6192 127.538 29.977C127.605 30.1602 127.697 30.3331 127.812 30.4907C127.91 30.625 128.024 30.7472 128.151 30.8547C128.527 31.1723 129.005 31.3456 129.498 31.3435C129.528 31.3432 129.559 31.3423 129.59 31.3409C129.621 31.3395 129.651 31.3373 129.682 31.3344C129.713 31.3319 129.744 31.3284 129.775 31.3241C129.805 31.3198 129.836 31.315 129.867 31.3095L131.608 30.9936L134.006 25.8785V30.5637L141.922 29.141V9.25891L128.652 9.32252L128.98 9.70293C130.069 10.9793 130.784 12.531 131.046 14.187C131.304 15.8643 131.272 17.5733 130.951 19.2397C130.639 20.9259 130.166 22.5783 129.538 24.1742C128.989 25.588 128.359 26.9691 127.65 28.3105C127.559 28.4826 127.492 28.6667 127.452 28.8573Z" fill="#2F2E41"/>
<path d="M35.5321 208H199.57C199.684 208 199.793 207.955 199.874 207.874C199.955 207.794 200 207.684 200 207.57C200 207.456 199.955 207.347 199.874 207.266C199.793 207.186 199.684 207.14 199.57 207.14H35.5321C35.4179 207.14 35.3084 207.186 35.2277 207.266C35.1469 207.347 35.1016 207.456 35.1016 207.57C35.1016 207.684 35.1469 207.794 35.2277 207.874C35.3084 207.955 35.4179 208 35.5321 208Z" fill="#CACACA"/>
</g>
<defs>
<clipPath id="clip0_656_9606">
<rect width="200" height="208" fill="white"/>
</clipPath>
</defs>
</svg>
