<svg width="266" height="201" viewBox="0 0 266 201" fill="none" xmlns="http://www.w3.org/2000/svg">
<g clip-path="url(#clip0_656_9636)">
<path d="M173.914 81.5369C173.333 81.6207 172.741 81.5762 172.179 81.4064C171.617 81.2367 171.098 80.946 170.661 80.5546C170.223 80.1632 169.877 79.6808 169.646 79.1412C169.415 78.6016 169.305 78.0179 169.325 77.4314L156 72.3134L162.033 68L173.761 73.5214C174.745 73.6189 175.659 74.0739 176.33 74.8001C177.001 75.5263 177.382 76.4732 177.401 77.4614C177.419 78.4496 177.075 79.4103 176.432 80.1615C175.79 80.9126 174.894 81.4021 173.914 81.537L173.914 81.5369Z" fill="#FFB7B7"/>
<path d="M166.169 77.5303L168.249 70.1954L168.147 70.1257L148.659 56.8944L131.813 40L122 43.9186L122.644 47.023L122.686 47.0611L145.084 67.1121L145.105 67.1222L166.169 77.5303Z" fill="#00B4A9"/>
<path d="M145.841 95.5628L115.681 91.3373L118.335 72.8406H140.539L145.841 95.5628Z" fill="#FFB6B6"/>
<path d="M94.5938 186.136L100.781 187.573L109.27 164.406L100.139 162.286L94.5938 186.136Z" fill="#FFB6B6"/>
<path d="M88.8379 196.092L93.2746 197.122L95.0399 193.119L96.0948 197.777L107.862 200.51C108.426 200.641 109.017 200.589 109.549 200.36C110.081 200.132 110.526 199.739 110.819 199.24C111.112 198.741 111.238 198.161 111.178 197.585C111.118 197.01 110.875 196.468 110.486 196.04L102.597 187.371L103.581 183.138L93.5598 181.432L88.8379 196.092Z" fill="#2F2E41"/>
<path d="M132.768 189.582H139.119L142.142 165.096H132.768V189.582Z" fill="#FFB6B6"/>
<path d="M129.415 200.581H133.97L134.783 196.283L136.865 200.581H148.946C149.525 200.581 150.089 200.396 150.556 200.053C151.022 199.71 151.367 199.227 151.539 198.675C151.711 198.122 151.702 197.529 151.513 196.982C151.325 196.435 150.966 195.962 150.489 195.634L140.842 188.974V184.629L130.694 185.234L129.415 200.581Z" fill="#2F2E41"/>
<path d="M115.299 88.1989L144.794 85.8539C153.498 106.175 147.964 138.615 141.275 175.134L131.788 176.36L131.052 117.679L107.27 172.27L97.3828 171.764L115.299 88.1989Z" fill="#2F2E41"/>
<path d="M132.467 34.6877V24.7142C132.468 22.9586 132.123 21.2201 131.452 19.5979C130.78 17.9757 129.795 16.5016 128.554 15.2599C127.312 14.0182 125.837 13.0332 124.215 12.3612C122.592 11.6892 120.853 11.3433 119.096 11.3433C117.34 11.3433 115.601 11.6892 113.978 12.3612C112.355 13.0332 110.881 14.0182 109.639 15.2599C108.398 16.5016 107.413 17.9757 106.741 19.5979C106.07 21.2201 105.724 22.9586 105.725 24.7142C103.369 29.6226 104.843 31.9562 105.725 34.6877C105.726 35.1633 105.916 35.6193 106.252 35.9556C106.589 36.292 107.045 36.4813 107.521 36.4821H130.671C131.147 36.4815 131.604 36.2923 131.94 35.9559C132.277 35.6196 132.467 35.1635 132.467 34.6877Z" fill="#2F2E41"/>
<path d="M122.396 36.3316C127.81 36.3316 132.199 31.9447 132.199 26.5333C132.199 21.1218 127.81 16.735 122.396 16.735C116.982 16.735 112.593 21.1218 112.593 26.5333C112.593 31.9447 116.982 36.3316 122.396 36.3316Z" fill="#FFB7B7"/>
<path d="M135.63 25.5118C135.627 22.709 134.512 20.0219 132.529 18.04C130.546 16.0582 127.857 14.9433 125.053 14.9402H123.057C120.253 14.9433 117.565 16.0582 115.582 18.04C113.599 20.0219 112.484 22.709 112.48 25.5118V25.7113C113.975 26.7327 115.394 26.882 116.698 25.7113L118.137 21.6854L118.424 25.7113H120.604L121.331 23.6802L121.476 25.7113C124.421 28.2177 129.989 27.0166 135.63 25.7113L135.63 25.5118Z" fill="#2F2E41"/>
<path d="M116.68 78.2468L141.64 77.2975L143.036 60.977C144.112 57.9897 144.129 55.4229 143.087 53.3533C142.191 51.6522 140.686 50.3518 138.872 49.712L133.411 43.1188C132.708 42.2714 131.826 41.5906 130.828 41.1255C129.83 40.6605 128.741 40.4229 127.64 40.4298L113.448 40.5267C113.106 40.3212 111.031 39.2672 106.939 41.0394C102.501 42.962 103.532 49.6415 103.543 49.7085L103.553 49.7713L103.602 49.8141L113.041 57.7607L116.68 78.2468Z" fill="#00B4A9"/>
<path d="M0.418773 201H251.036C251.147 201 251.254 200.956 251.332 200.877C251.411 200.799 251.455 200.692 251.455 200.581C251.455 200.47 251.411 200.364 251.332 200.285C251.254 200.207 251.147 200.163 251.036 200.163H0.418773C0.307708 200.163 0.201194 200.207 0.122659 200.285C0.0441242 200.364 0 200.47 0 200.581C0 200.692 0.0441242 200.799 0.122659 200.877C0.201194 200.956 0.307708 201 0.418773 201Z" fill="#CCCCCC"/>
<path d="M139.081 85.8211L139.087 85.8199C139.129 85.7818 139.168 85.7404 139.203 85.6962L139.081 85.8211Z" fill="#00B4A9"/>
<path d="M155.172 116.623L155.174 116.627L155.209 116.558L155.172 116.623Z" fill="#00B4A9"/>
<path d="M110.398 111.655C109.961 111.263 109.615 110.78 109.386 110.24C109.156 109.7 109.047 109.116 109.067 108.53C109.087 107.943 109.236 107.368 109.502 106.845C109.769 106.322 110.147 105.864 110.609 105.503L106 92L113.181 93.8645L116.454 106.401C117.01 107.218 117.247 108.211 117.119 109.191C116.991 110.171 116.508 111.071 115.761 111.719C115.014 112.367 114.056 112.718 113.067 112.706C112.078 112.695 111.127 112.321 110.396 111.656L110.398 111.655Z" fill="#FFB7B7"/>
<path d="M107.837 102.18L114.805 99.0764L112.464 75.5215L114.644 51.7695L105.341 46.7516L103.37 49.2355V49.2919L102.326 79.3269L102.332 79.3495L107.837 102.18Z" fill="#00B4A9"/>
<path d="M214.575 172.372C210.635 170.561 206.386 168.428 201.826 165.972C178.245 153.266 149.247 133.444 120.174 110.158C91.1018 86.8731 65.4278 62.9054 47.8819 42.6714C39.3348 32.8146 33.1781 24.3733 29.5833 17.5817C25.7772 10.3915 25.0096 5.29625 27.3014 2.43766C31.7664 -3.13125 46.3074 1.88474 57.7195 7.07334L57.3024 7.98997C41.6306 0.86461 31.2553 -0.883492 28.0877 3.06745C24.053 8.09946 31.5454 22.294 48.6432 42.0118C66.1506 62.2014 91.7777 86.1241 120.804 109.373C149.831 132.621 178.775 152.407 202.304 165.085C225.283 177.467 240.777 181.683 244.811 176.651C248.161 172.473 243.592 161.95 231.946 147.02L232.74 146.401C241.202 157.249 250.302 171.412 245.598 177.281C243.306 180.139 238.163 180.5 230.313 178.354C225.838 177.131 220.571 175.128 214.575 172.372Z" fill="#00B4A9"/>
<path d="M63.7143 104.476C52.8526 99.4844 42.9264 94.4707 34.2325 89.5642C22.8689 83.1507 14.2326 77.2673 8.56371 72.0782C2.56184 66.5838 0.125983 62.0426 1.32378 58.5805C3.65685 51.8361 19.0388 51.6774 31.5318 52.7318L31.4469 53.7355C14.2909 52.2872 3.93115 54.1247 2.27573 58.9098C0.167367 65.0041 11.9957 75.8575 34.7279 88.6872C58.0045 101.824 90.1835 115.75 125.338 127.899C160.492 140.049 194.405 148.965 220.829 153.004C246.634 156.95 262.644 155.717 264.752 149.623C266.503 144.563 258.662 136.186 242.674 126.035L243.214 125.185C254.831 132.561 268.163 142.845 265.704 149.952C264.507 153.414 259.784 155.481 251.669 156.096C244.004 156.677 233.576 155.972 220.676 154C194.194 149.951 160.219 141.02 125.009 128.851C102.921 121.217 81.9971 112.879 63.7143 104.476Z" fill="#00B4A9"/>
<path d="M80.1925 53.2292C83.435 53.2292 86.0637 50.6019 86.0637 47.361C86.0637 44.1201 83.435 41.4928 80.1925 41.4928C76.9499 41.4928 74.3213 44.1201 74.3213 47.361C74.3213 50.6019 76.9499 53.2292 80.1925 53.2292Z" fill="#E6E6E6"/>
<path d="M195.919 124.854C197.904 124.854 199.513 123.246 199.513 121.262C199.513 119.278 197.904 117.669 195.919 117.669C193.934 117.669 192.325 119.278 192.325 121.262C192.325 123.246 193.934 124.854 195.919 124.854Z" fill="#FF6584"/>
<path d="M20.1417 156.387C23.3843 156.387 26.0129 153.759 26.0129 150.518C26.0129 147.277 23.3843 144.65 20.1417 144.65C16.8991 144.65 14.2705 147.277 14.2705 150.518C14.2705 153.759 16.8991 156.387 20.1417 156.387Z" fill="#E6E6E6"/>
<path d="M235.745 58.3382C235.054 55.8421 233.024 53.8805 230.441 53.2123C225.764 52 207 52 207 52C207 52 188.236 52 183.559 53.2123C180.976 53.8805 178.946 55.8421 178.255 58.3382C177 62.858 177 72.2938 177 72.2938C177 72.2938 177 81.7296 178.255 86.2494C178.946 88.7456 180.976 90.7071 183.559 91.3752C188.236 92.5876 207 92.5876 207 92.5876C207 92.5876 225.764 92.5876 230.441 91.3752C233.024 90.7071 235.054 88.7456 235.745 86.2494C237 81.7296 237 72.2938 237 72.2938C237 72.2938 236.995 62.858 235.745 58.3382Z" fill="#FF0000"/>
<path d="M200.994 80.9904L216.582 72.2945L200.994 63.5985V80.9904Z" fill="white"/>
</g>
<defs>
<clipPath id="clip0_656_9636">
<rect width="266" height="201" fill="white"/>
</clipPath>
</defs>
</svg>
