<svg width="430" height="162" viewBox="0 0 430 162" fill="none" xmlns="http://www.w3.org/2000/svg">
<g clip-path="url(#clip0_656_9748)">
<path d="M253.037 159.264C250.693 157.117 249.269 153.726 249.642 150.425C250.016 147.124 252.329 144.09 255.329 143.389C258.33 142.688 261.75 144.628 262.662 147.804C263.163 141.681 263.741 135.302 266.746 130.088C269.466 125.367 274.178 121.989 279.284 121.384C284.391 120.78 289.767 123.063 292.952 127.429C296.137 131.796 296.917 138.145 294.686 143.159C293.043 146.852 290.016 149.601 286.844 151.837C276.595 159.002 264.302 161.916 252.228 160.042" fill="#F2F2F2"/>
<path d="M327.437 44.0165C318.88 55.6148 311.029 68.5865 303.998 82.7441C292.996 104.825 284.092 129.581 277.598 156.151C277.123 158.089 279.015 158.933 279.485 157.016C290.11 113.835 307.073 75.7752 328.821 46.3182C329.797 44.9949 328.406 42.7042 327.437 44.0165Z" fill="white"/>
<path d="M84.5469 160.92H57.4531C56.5376 160.917 55.6599 159.99 55.0125 158.343C54.3652 156.695 54.001 154.461 54 152.13V8.78975C54.001 6.45938 54.3652 4.22525 55.0125 2.57743C55.6599 0.929613 56.5376 0.00266638 57.4531 0H84.5469C85.4624 0.00266638 86.3401 0.929613 86.9874 2.57743C87.6348 4.22525 87.999 6.45938 88 8.78975V152.13C87.999 154.461 87.6348 156.695 86.9874 158.343C86.3401 159.99 85.4624 160.917 84.5469 160.92Z" fill="#00B4A9"/>
<path d="M148.555 162H121.46C120.545 161.998 119.667 161.235 119.019 159.879C118.372 158.524 118.008 156.685 118.007 154.768V36.8283C118.008 34.9109 118.372 33.0727 119.019 31.7169C119.667 30.3611 120.545 29.5984 121.46 29.5962H148.555C149.471 29.5984 150.349 30.3611 150.996 31.7169C151.644 33.0727 152.008 34.9109 152.009 36.8283V154.768C152.008 156.685 151.644 158.524 150.996 159.879C150.349 161.235 149.471 161.998 148.555 162Z" fill="#E8ECEC"/>
<path d="M212.158 161.546H184.61C183.679 161.546 182.786 161.329 182.128 160.943C181.47 160.557 181.1 160.035 181.099 159.489V9.18006C181.1 8.63473 181.47 8.11192 182.128 7.72632C182.786 7.34072 183.679 7.1238 184.61 7.12317H212.158C213.089 7.1238 213.981 7.34072 214.64 7.72632C215.298 8.11192 215.668 8.63473 215.669 9.18006V159.489C215.668 160.035 215.298 160.557 214.64 160.943C213.981 161.329 213.089 161.546 212.158 161.546Z" fill="#E8ECEC"/>
<path d="M277.445 160H249.555C248.612 160 247.709 159.852 247.042 159.59C246.376 159.328 246.001 158.972 246 158.601V56.3986C246.001 56.0278 246.376 55.6723 247.042 55.4101C247.709 55.1479 248.612 55.0004 249.555 55H277.445C278.388 55.0004 279.291 55.1479 279.958 55.4101C280.624 55.6723 280.999 56.0278 281 56.3986V158.601C280.999 158.972 280.624 159.328 279.958 159.59C279.291 159.852 278.388 160 277.445 160Z" fill="#FF0000"/>
</g>
<path d="M429.293 161.93H57.6816C57.5006 161.929 57.3273 161.876 57.1995 161.782C57.0717 161.687 57 161.559 57 161.426C57 161.293 57.0717 161.165 57.1995 161.071C57.3273 160.977 57.5006 160.923 57.6816 160.923H429.293C429.474 160.923 429.647 160.977 429.775 161.071C429.903 161.165 429.975 161.293 429.975 161.426C429.975 161.559 429.903 161.687 429.775 161.782C429.647 161.876 429.474 161.929 429.293 161.93Z" fill="#CCCCCC"/>
<path d="M326.239 91.3172C326.235 90.8261 326.357 90.3396 326.599 89.888C326.841 89.4364 327.197 89.0295 327.645 88.6926C328.093 88.3557 328.623 88.0962 329.202 87.9301C329.782 87.764 330.398 87.695 331.012 87.7274C331.626 87.7597 332.225 87.8928 332.772 88.1182C333.319 88.3436 333.801 88.6566 334.19 89.0376C334.578 89.4185 334.864 89.8593 335.029 90.3323C335.195 90.8054 335.236 91.3006 335.151 91.7869L348.015 105.229C348.564 106.105 348.777 107.091 348.627 108.063C348.477 109.035 347.971 109.95 347.172 110.694L346.163 111.633L341.533 110.894L336.285 107.2L336.903 103.012L330.42 94.8842L330.429 94.8783C329.294 94.8207 328.229 94.4205 327.451 93.759C326.673 93.0975 326.24 92.2245 326.239 91.3172Z" fill="#FFB9B9"/>
<path d="M415.713 157.966L417.848 151.724L388.281 142.273L385.13 151.484L415.713 157.966Z" fill="#FFB8B8"/>
<path d="M423.25 161.702L430 141.133L429.683 141.063C427.095 140.492 424.336 140.787 422.013 141.884C419.69 142.981 417.994 144.79 417.297 146.913L417.297 146.914L413.174 159.477L423.25 161.702Z" fill="#2F2E41"/>
<path d="M375.693 157.219L382.326 153.361L366.877 131.063L357.087 136.757L375.693 157.219Z" fill="#FFB8B8"/>
<path d="M377.963 161.703L398.218 149.537L398.031 149.325C396.511 147.598 394.222 146.441 391.669 146.108C389.115 145.775 386.506 146.293 384.415 147.549L384.414 147.549L372.044 154.98L377.963 161.703Z" fill="#2F2E41"/>
<path d="M319.949 125.828L336.47 112.801C337.912 111.664 339.811 110.988 341.818 110.897C343.825 110.806 345.805 111.306 347.394 112.305L378.587 140.436L375.795 143.961L346.011 127.591L325.844 148.998L306.609 141.191L319.949 125.828Z" fill="#2F2E41"/>
<path d="M326.865 129.696L339.021 128.995L347.824 127.394C348.321 126.812 349.043 126.358 349.894 126.092C350.745 125.827 351.683 125.763 352.584 125.908C353.485 126.054 354.304 126.403 354.934 126.908C355.563 127.413 355.972 128.05 356.105 128.734C356.238 129.418 356.09 130.116 355.679 130.735C355.269 131.354 354.617 131.864 353.809 132.197C353.002 132.53 352.078 132.67 351.162 132.599C350.245 132.527 349.38 132.247 348.681 131.796L348.683 131.801L343.384 133.438L320.631 139.283L317.826 137.647L326.865 129.696Z" fill="#FFB9B9"/>
<path d="M295.391 157.439L302.246 160.955H310.348L348.051 149.654L403.203 157.69L404.761 148.147L354.282 130.316L310.036 142.119L295.391 157.439Z" fill="#2F2E41"/>
<path d="M312.217 95.1926C305.506 95.1926 300.065 90.843 300.065 85.4776C300.065 80.1122 305.506 75.7627 312.217 75.7627C318.928 75.7627 324.369 80.1122 324.369 85.4776C324.369 90.843 318.928 95.1926 312.217 95.1926Z" fill="#FFB9B9"/>
<path d="M280.435 124.296C280.435 130.074 281.608 135.816 283.912 141.31L284.836 143.515L289.265 159.226L294.011 160.208L297.491 156.771L304.452 152.843L309.514 146.461L313.855 140.849L315.209 139.096L319.955 120.685L337.989 112.829L344 112.093L342.734 109.392L337.356 103.746L331.977 103.255L330.395 102.273L329.13 102.764L322.153 104.849L299.535 97.4346L296.226 97.8544L284.836 105.219C281.924 111.325 280.434 117.785 280.435 124.296Z" fill="#CCCCCC"/>
<path opacity="0.1" d="M283.239 122.275L295.4 128.595L313.551 141.525L314.92 139.72L318.761 124.55H317.801L307.88 110.139L283.239 122.275Z" fill="black"/>
<path d="M307.569 108.644L317.365 122.954L323.053 127.975L328.108 128.979L314.521 140.778L295.246 126.97L283.239 120.694L307.569 108.644Z" fill="#CCCCCC"/>
<path d="M322.018 78.0725L323.335 78.4732C323.535 78.3662 323.706 78.229 323.839 78.0696C323.972 77.9102 324.064 77.7317 324.11 77.5442C324.155 77.3567 324.154 77.1639 324.105 76.9769C324.057 76.7898 323.962 76.6122 323.827 76.454C323.819 76.4458 323.812 76.4375 323.805 76.4294L326.239 76.3393C324.677 74.6937 322.69 73.3292 320.41 72.3361C318.131 71.3431 315.611 70.7441 313.016 70.5787C310.422 70.4134 307.813 70.6855 305.362 71.3771C302.911 72.0687 300.673 73.1639 298.797 74.5904C298.687 74.2886 297.478 74.8758 296.985 75.4712C296.819 74.9801 295.687 77.3542 295.286 79.0324C295.101 78.4736 294.387 79.3757 295.012 80.2412C294.616 80.1955 294.437 80.9964 294.744 81.4426C294.311 81.2817 294.384 82.2378 294.853 82.8767C294.235 82.8333 294.906 92.8986 304.181 92.1652C304.827 89.8194 304.645 89.9651 305.405 86.9487C305.759 86.6516 306.147 86.3811 306.534 86.1111L308.626 84.6505C311.06 82.952 313.273 80.8558 316.515 80.2211C318.743 79.7848 320.152 79.6864 318.938 77.7014C320.034 78.0633 321.059 78.6016 322.166 78.9377C322.151 78.6604 321.996 78.35 322.018 78.0725Z" fill="#2F2E41"/>
<path d="M306.142 87.7195C304.851 87.7195 303.805 87.2177 303.805 86.5986C303.805 85.9795 304.851 85.4777 306.142 85.4777C307.432 85.4777 308.479 85.9795 308.479 86.5986C308.479 87.2177 307.432 87.7195 306.142 87.7195Z" fill="#FFB9B9"/>
<path d="M361.523 59.4278L368.823 64.8945L361.985 70.7309L354.685 65.2641L361.523 59.4278Z" fill="#E6E6E6"/>
<defs>
<clipPath id="clip0_656_9748">
<rect width="373" height="162" fill="white"/>
</clipPath>
</defs>
</svg>
