<svg width="350" height="262" viewBox="0 0 350 262" fill="none" xmlns="http://www.w3.org/2000/svg">
<path d="M261.087 258.853C256.243 254.996 253.3 248.904 254.072 242.974C254.843 237.043 259.623 231.591 265.823 230.331C272.023 229.072 279.091 232.558 280.974 238.264C282.01 227.263 283.205 215.802 289.413 206.434C295.034 197.952 304.77 191.883 315.322 190.797C325.874 189.711 336.983 193.812 343.564 201.658C350.145 209.504 351.756 220.91 347.147 229.918C343.752 236.554 337.496 241.492 330.942 245.51C309.764 258.383 284.363 263.618 259.414 260.252" fill="#F2F2F2"/>
<path d="M333.129 194.039C324.423 200.72 316.435 208.192 309.283 216.347C298.089 229.066 289.031 243.326 282.424 258.631C281.94 259.747 283.865 260.233 284.343 259.129C295.153 234.256 312.41 212.333 334.536 195.365C335.53 194.603 334.115 193.283 333.129 194.039Z" fill="white"/>
<path d="M85.5708 261.492H58.0955C57.1671 261.491 56.277 261.144 55.6206 260.525C54.9641 259.907 54.5948 259.068 54.5938 258.194V204.396C54.5948 203.521 54.9641 202.683 55.6206 202.064C56.277 201.446 57.1671 201.098 58.0955 201.097H85.5708C86.4992 201.098 87.3892 201.446 88.0457 202.064C88.7022 202.683 89.0715 203.521 89.0725 204.396V258.194C89.0715 259.068 88.7022 259.907 88.0457 260.525C87.3892 261.144 86.4992 261.491 85.5708 261.492Z" fill="#00B4A9"/>
<path d="M281.739 261.746H254.263C253.335 261.745 252.445 261.397 251.789 260.779C251.132 260.16 250.763 259.322 250.762 258.447V17.3734C250.763 16.4988 251.132 15.6603 251.789 15.0418C252.445 14.4234 253.335 14.0755 254.263 14.0745H281.739C282.667 14.0755 283.557 14.4234 284.214 15.0418C284.87 15.6603 285.239 16.4988 285.24 17.3734V258.447C285.239 259.322 284.87 260.16 284.214 260.779C283.557 261.397 282.667 261.745 281.739 261.746Z" fill="#0CD508"/>
<path d="M215.547 261H188.453C187.538 260.999 186.66 260.748 186.013 260.301C185.365 259.854 185.001 259.248 185 258.616V84.3842C185.001 83.7521 185.365 83.1461 186.013 82.6991C186.66 82.2522 187.538 82.0007 188.453 82H215.547C216.462 82.0007 217.34 82.2522 217.987 82.6991C218.635 83.1461 218.999 83.7521 219 84.3842V258.616C218.999 259.248 218.635 259.854 217.987 260.301C217.34 260.748 216.462 260.999 215.547 261Z" fill="#00B4A9"/>
<path d="M150.547 261H123.453C122.538 261 121.66 260.844 121.013 260.566C120.365 260.289 120.001 259.913 120 259.522V151.478C120.001 151.087 120.365 150.711 121.013 150.434C121.66 150.156 122.538 150 123.453 150H150.547C151.462 150 152.34 150.156 152.987 150.434C153.635 150.711 153.999 151.087 154 151.478V259.522C153.999 259.913 153.635 260.289 152.987 260.566C152.34 260.844 151.462 261 150.547 261Z" fill="#00B4A9"/>
<path d="M110.86 112.852C110.96 112.112 110.886 111.36 110.644 110.65C110.402 109.939 109.997 109.288 109.459 108.741C108.921 108.193 108.261 107.764 107.528 107.483C106.794 107.202 106.004 107.075 105.213 107.113L95.6364 90.5629L93.4814 97.6682L100.043 112.836C100.198 114.084 100.833 115.234 101.829 116.07C102.824 116.906 104.11 117.369 105.444 117.371C106.777 117.373 108.065 116.914 109.063 116.081C110.061 115.248 110.701 114.099 110.86 112.852Z" fill="#FFB8B8"/>
<path d="M37.0732 178.198L42.4072 181.867L59.9671 164.229L52.0941 158.814L37.0732 178.198Z" fill="#FFB8B8"/>
<path d="M49.0791 193.609L32.3138 182.079L37.0427 175.976L47.3305 183.052C49.0485 184.233 50.1978 186.009 50.5257 187.989C50.8537 189.969 50.3333 191.991 49.0791 193.609L49.0791 193.609Z" fill="#2F2E41"/>
<path d="M65.295 197.618L71.8999 197.618L75.0417 173.618L65.2939 173.618L65.295 197.618Z" fill="#FFB8B8"/>
<path d="M84.6377 203.395L63.88 203.396L63.8797 195.841L76.6173 195.84C78.7444 195.84 80.7843 196.636 82.2884 198.053C83.7925 199.469 84.6376 201.391 84.6377 203.395Z" fill="#2F2E41"/>
<path d="M85.1309 104.012C85.1309 104.012 88.3633 133.449 80.2823 153.75L74.3563 192.321H64.1204L65.1979 146.644L61.4268 106.042C61.4268 106.042 68.969 87.7715 85.1309 104.012Z" fill="#2F2E41"/>
<path d="M50.1128 106.042L60.8874 141.061L39.877 172.528L50.3822 180.902L74.3557 145.629L67.3522 102.489L50.1128 106.042Z" fill="#2F2E41"/>
<path d="M66.5448 32.1976C66.5448 32.1976 74.6258 27.1224 83.7842 38.2879L86.2085 108.58C86.2085 108.58 79.205 99.4445 64.6593 108.072C50.1135 116.7 46.8811 107.057 46.8811 107.057C46.8811 107.057 36.6453 34.4815 66.5448 32.1976Z" fill="#00B4A9"/>
<path d="M83.1324 38.1106C85.4565 38.229 87.6521 39.1528 89.2968 40.7044C90.9414 42.256 91.9189 44.3257 92.0413 46.5153L93.7507 77.1134L105.064 106.042L98.5993 111.118L77.5888 76.6059L73.2872 48.2388C73.09 46.9386 73.2013 45.6134 73.613 44.3586C74.0247 43.1038 74.7266 41.9506 75.6681 40.982C76.6097 40.0134 77.7674 39.2535 79.0581 38.757C80.3488 38.2605 81.7403 38.0397 83.1324 38.1106Z" fill="#00B4A9"/>
<path d="M349.359 261.785H0.641548C0.471744 261.784 0.309059 261.72 0.189164 261.607C0.0692685 261.494 0.00195312 261.34 0.00195312 261.18C0.00195312 261.02 0.0692685 260.867 0.189164 260.754C0.309059 260.64 0.471744 260.577 0.641548 260.576H349.359C349.528 260.577 349.691 260.64 349.811 260.754C349.931 260.867 349.998 261.02 349.998 261.18C349.998 261.34 349.931 261.494 349.811 261.607C349.691 261.72 349.528 261.784 349.359 261.785Z" fill="#CCCCCC"/>
<path d="M90.2189 25.0496C94.6256 20.6587 94.6256 13.5396 90.2189 9.14866C85.8123 4.75775 78.6678 4.75775 74.2611 9.14866C69.8545 13.5396 69.8545 20.6587 74.2611 25.0496C78.6678 29.4405 85.8123 29.4405 90.2189 25.0496Z" fill="#FFB8B8"/>
<path d="M92.1994 12.9635C88.2372 16.4556 82.1545 17.2664 77.4272 14.9327C79.5507 17.4708 83.5836 30 83.5836 30C83.5836 30 72.1964 28.7942 70.5875 28.4477C61.0851 26.4004 64.5391 1.606 74.6645 1.73118C76.3795 1.75238 77.8787 1.96132 79.0201 3.25096C79.7777 1.11135 82.1868 -0.149028 84.4358 0.0141293C86.6847 0.177286 88.7185 1.53826 90.1653 3.28067C91.3197 4.69131 92.1531 6.33992 92.6065 8.11028C93.0599 9.88065 93.1223 11.7297 92.7894 13.527L92.1994 12.9635Z" fill="#2F2E41"/>
</svg>
